{
.formatVersion = 3;
DisplayStrings = (
"भ/stemserif रत अ ब घर चल । घर चल कर फल चख । जचल भरसाभरा कर रख । टब भर कर रख । कर नगर चल । डगर डईइगर चल । बइहस मबत कर । कल जडजतलए बह कर चल । सच सच डइइहर कह । उपमवन चल कमवर कबसरत कलर । अचकन पहन कर चल । छतर भथरमस रख कर शहद चख ु /tta-deva.half  । खटपट मत कर । झटपट चल । शरबत चख कर मटक मत । नटखट मत बन । सडक पर मत टहल । बतख मत पक ।कलतम पक कर सबक । मनन अब घर पर रह ।/.notdef  प ुक/pa-deva.matra/.notdef ेु हं हगँ",
"अ  आ  इ  ई  उ  ऊ  ए  ऐ  ओ औ \r\rक  ख  ग  घ  ङ  च  छ  ज  झ  ञ  \rट  ठ  ड  ढ  त  थ  द  ध  न  प  फ \rब  भ  म  य  री क/iisign-deva.002   ल  व  श  ष  स  ह\r\rिर  /isign-deva.002 द  /isign-deva.003 ग  /isign-deva.004 ख\r \r/gya-deva   /tra-deva        व\r\r०  २  ३  ४  ६  ७   /tta-deva.half    /ttha-deva.half ८  ९\r\rि   /isign-deva.003      ी   /iisign-deva.002    ा    ु    ू  ्   ै      े    ो    ौ   ः।\r\r/ka-deva.half क /ba-deva.half ब /va-deva.half व /ta-deva.half त /la-deva.half ल /na-deva.half न /ma-deva.half म /pha-deva.half फ /sa-deva.half स /ga-deva.half ग /kha-deva.half ख /ssa-deva.half ष  /bha-deva.half भ\n\r\r\r",
" \r\rी  /iisign-deva.002   ि  /isign-deva.002    /isign-deva.003    /isign-deva.004    ",
"/gya-deva/tra-deva"
);
familyName = crudev10;
customParameters = (
{
name = glyphOrder;
value = (
.notdef,
a,
b,
c,
d,
e,
f,
g,
h,
i,
j,
k,
l,
m,
n,
o,
p,
q,
r,
s,
t,
u,
v,
w,
x,
y,
z,
"candrabinduinverted-deva",
"candrabindu-deva",
"anusvara-deva",
"visarga-deva",
"ashort-deva",
"a-deva",
"aa-deva",
"i-deva",
"ii-deva",
"u-deva",
"uu-deva",
"vocalicr-deva",
"vocalicl-deva",
"ecandra-deva",
"eshort-deva",
"e-deva",
"ai-deva",
"ocandra-deva",
"oshort-deva",
"o-deva",
"au-deva",
"ka-deva",
"kha-deva",
"ga-deva",
"gha-deva",
"nga-deva",
"ca-deva",
"cha-deva",
"ja-deva",
"jha-deva",
"nya-deva",
"tta-deva",
"ttha-deva",
"dda-deva",
"ddha-deva",
"nna-deva",
"ta-deva",
"tha-deva",
"da-deva",
"dha-deva",
"na-deva",
"nnna-deva",
"pa-deva",
"pha-deva",
"ba-deva",
"bha-deva",
"ma-deva",
"ya-deva",
"ra-deva",
"rra-deva",

glyphs = (
{
color = 7;
glyphname = a;
layers = (
{
layerId = "7D96EDF2-9291-42EB-8A89-114070E423BA";
associatedMasterId = "A45B8B48-B1A0-4768-860A-A9A091AD15CC";
name = Regular2;
shapes = (
{
attr = {
strokeWidth = 80;
};
closed = 0;
nodes = (
(361,278,l),
(361,382,o),
(282,400,o),
(220,400,cs),
(86,400,o),
(40,317,o),
(40,210,cs),
(40,129,o),
(66,40,o),
(186,40,cs),
(264,40,o),
(360,77,o),
(360,141,c)
);
},
{
attr = {
strokeWidth = 80;
};
closed = 0;
nodes = (
(360,438,l),
(360,0,l)
);
}
);
width = 480;
},
{
layerId = "A45B8B48-B1A0-4768-860A-A9A091AD15CC";
shapes = (
{
attr = {
strokeWidth = 80;
};
closed = 0;
nodes = (
(361,278,l),
(361,382,o),
(282,400,o),
(220,400,cs),
(86,400,o),
(40,317,o),
(40,210,cs),
(40,129,o),
(66,40,o),
(186,40,cs),
(264,40,o),
(360,77,o),
(360,141,c)
);
},
{
attr = {
strokeWidth = 80;
};
closed = 0;
nodes = (
(360,438,l),
(360,0,l)
);
}
);
width = 480;
}
);
unicode = 97;
},
{
color = 7;
glyphname = b;
layers = (
{
guides = (
{
position = "{0, 1001}";
},
{
position = "{0, 1000}";
}
);
layerId = "7D96EDF2-9291-42EB-8A89-114070E423BA";
associatedMasterId = "A45B8B48-B1A0-4768-860A-A9A091AD15CC";
name = Regular2;
shapes = (
{
attr = {
strokeWidth = 80;
};
closed = 0;
nodes = (
(119,640,l),
(119,0,l)
);
},
{
attr = {
strokeWidth = 80;
};
closed = 0;
nodes = (
(235,35,l),
(346,35,o),
(397,121,o),
(397,217,cs),
(397,319,o),
(355,405,o),
(231,403,c)
);
},
{
attr = {
strokeWidth = 80;
};
closed = 0;
nodes = (
(119,98,l),
(145,59,o),
(187,35,o),
(246,35,c)
);
},
{
attr = {
strokeWidth = 80;
};
closed = 0;
nodes = (
(250,403,l),
(190,403,o),
(148,383,o),
(123,348,c)
);
}
);
width = 480;
},
{
guides = (
{
position = "{0, 1001}";
},
{
position = "{0, 1000}";
}
);
layerId = "A45B8B48-B1A0-4768-860A-A9A091AD15CC";
shapes = (
{
attr = {
strokeWidth = 80;
};
closed = 0;
nodes = (
(119,640,l),
(119,0,l)
);
},
{
attr = {
strokeWidth = 80;
};
closed = 0;
nodes = (
(235,35,l),
(346,35,o),
(397,121,o),
(397,217,cs),
(397,319,o),
(355,405,o),
(231,403,c)
);
},
{
attr = {
strokeWidth = 80;
};
closed = 0;
nodes = (
(119,98,l),
(145,59,o),
(187,35,o),
(246,35,c)
);
},
{
attr = {
strokeWidth = 80;
};
closed = 0;
nodes = (
(250,403,l),
(190,403,o),
(148,383,o),
(123,348,c)
);
}
);
width = 480;
}
);
unicode = 98;
},
{
color = 7;
glyphname = c;
layers = (
{
layerId = "7D96EDF2-9291-42EB-8A89-114070E423BA";
associatedMasterId = "A45B8B48-B1A0-4768-860A-A9A091AD15CC";
name = Regular2;
shapes = (
{
attr = {
strokeWidth = 80;
};
closed = 0;
nodes = (
(244,403,l),
(123,406,o),
(80,320,o),
(80,219,cs),
(80,123,o),
(131,38,o),
(241,38,c)
);
},
{
attr = {
strokeWidth = 80;
};
closed = 0;
nodes = (
(231,38,l),
(290,38,o),
(331,62,o),
(357,101,c)
);
},
{
attr = {
strokeWidth = 80;
};
closed = 0;
nodes = (
(353,349,l),
(327,384,o),
(286,404,o),
(226,403,c)
);
}
);
width = 400;
},
{
layerId = "A45B8B48-B1A0-4768-860A-A9A091AD15CC";
shapes = (
{
attr = {
strokeWidth = 80;
};
closed = 0;
nodes = (
(244,403,l),
(123,406,o),
(80,320,o),
(80,219,cs),
(80,123,o),
(131,38,o),
(241,38,c)
);
},
{
attr = {
strokeWidth = 80;
};
closed = 0;
nodes = (
(231,38,l),
(290,38,o),
(331,62,o),
(357,101,c)
);
},
{
attr = {
strokeWidth = 80;
};
closed = 0;
nodes = (
(353,349,l),
(327,384,o),
(286,404,o),
(226,403,c)
);
}
);
width = 400;
}
);
unicode = 99;
},
{
color = 7;
glyphname = d;
layers = (
{
layerId = "7D96EDF2-9291-42EB-8A89-114070E423BA";
associatedMasterId = "A45B8B48-B1A0-4768-860A-A9A091AD15CC";
name = Regular2;
shapes = (
{
attr = {
strokeWidth = 80;
};
closed = 0;
nodes = (
(359,0,l),
(359,639,l)
);
},
{
attr = {
strokeWidth = 80;
};
closed = 0;
nodes = (
(242,402,l),
(119,404,o),
(77,318,o),
(77,216,cs),
(77,120,o),
(128,35,o),
(238,35,c)
);
},
{
attr = {
strokeWidth = 80;
};
closed = 0;
nodes = (
(228,35,l),
(287,35,o),
(329,59,o),
(354,98,c)
);
},
{
attr = {
strokeWidth = 80;
};
closed = 0;
nodes = (
(351,348,l),
(325,382,o),
(283,402,o),
(224,402,c)
);
}
);
width = 479;
},
{
layerId = "A45B8B48-B1A0-4768-860A-A9A091AD15CC";
shapes = (
{
attr = {
strokeWidth = 80;
};
closed = 0;
nodes = (
(359,0,l),
(359,639,l)
);
},
{
attr = {
strokeWidth = 80;
};
closed = 0;
nodes = (
(242,402,l),
(119,404,o),
(77,318,o),
(77,216,cs),
(77,120,o),
(128,35,o),
(238,35,c)
);
},
{
attr = {
strokeWidth = 80;
};
closed = 0;
nodes = (
(228,35,l),
(287,35,o),
(329,59,o),
(354,98,c)
);
},
{
attr = {
strokeWidth = 80;
};
closed = 0;
nodes = (
(351,348,l),
(325,382,o),
(283,402,o),
(224,402,c)
);
}
);
width = 479;
}
);
unicode = 100;
},
{
color = 7;
glyphname = f;
layers = (
{
layerId = "7D96EDF2-9291-42EB-8A89-114070E423BA";
associatedMasterId = "A45B8B48-B1A0-4768-860A-A9A091AD15CC";
name = Regular2;
shapes = (
{
attr = {
strokeWidth = 80;
};
closed = 0;
nodes = (
(118,0,l),
(118,209,o),
(118,325,o),
(118,545,cs),
(118,609,o),
(262,637,o),
(262,509,c)
);
},
{
attr = {
strokeWidth = 80;
};
closed = 0;
nodes = (
(9,400,l),
(262,400,l)
);
}
);
width = 241;
},
{
layerId = "A45B8B48-B1A0-4768-860A-A9A091AD15CC";
shapes = (
{
attr = {
strokeWidth = 80;
};
closed = 0;
nodes = (
(118,0,l),
(118,209,o),
(118,325,o),
(118,545,cs),
(118,609,o),
(262,637,o),
(262,509,c)
);
},
{
attr = {
strokeWidth = 80;
};
closed = 0;
nodes = (
(9,400,l),
(262,400,l)
);
}
);
width = 241;
}
);
unicode = 102;
},
{
color = 7;
glyphname = g;
layers = (
{
layerId = "7D96EDF2-9291-42EB-8A89-114070E423BA";
associatedMasterId = "A45B8B48-B1A0-4768-860A-A9A091AD15CC";
name = Regular2;
shapes = (
{
attr = {
strokeWidth = 80;
};
closed = 0;
nodes = (
(250,406,l),
(127,409,o),
(75,325,o),
(75,222,cs),
(75,126,o),
(136,39,o),
(246,39,c)
);
},
{
attr = {
strokeWidth = 80;
};
closed = 0;
nodes = (
(236,39,l),
(295,39,o),
(329,65,o),
(354,103,c)
);
},
{
attr = {
strokeWidth = 80;
};
closed = 0;
nodes = (
(360,354,l),
(334,388,o),
(293,407,o),
(233,406,c)
);
},
{
attr = {
strokeWidth = 80;
};
closed = 0;
nodes = (
(361,440,l),
(361,-134,l)
);
},
{
attr = {
strokeWidth = 80;
};
closed = 0;
nodes = (
(368,-111,l),
(341,-150,o),
(291,-185,o),
(228,-185,cs),
(148,-185,o),
(87,-154,o),
(88,-65,c)
);
}
);
width = 462;
},
{
layerId = "A45B8B48-B1A0-4768-860A-A9A091AD15CC";
shapes = (
{
attr = {
strokeWidth = 80;
};
closed = 0;
nodes = (
(250,406,l),
(127,409,o),
(75,325,o),
(75,222,cs),
(75,126,o),
(136,39,o),
(246,39,c)
);
},
{
attr = {
strokeWidth = 80;
};
closed = 0;
nodes = (
(236,39,l),
(295,39,o),
(329,65,o),
(354,103,c)
);
},
{
attr = {
strokeWidth = 80;
};
closed = 0;
nodes = (
(360,354,l),
(334,388,o),
(293,407,o),
(233,406,c)
);
},
{
attr = {
strokeWidth = 80;
};
closed = 0;
nodes = (
(361,440,l),
(361,-134,l)
);
},
{
attr = {
strokeWidth = 80;
};
closed = 0;
nodes = (
(368,-111,l),
(341,-150,o),
(291,-185,o),
(228,-185,cs),
(148,-185,o),
(87,-154,o),
(88,-65,c)
);
}
);
width = 462;
}
);
unicode = 103;
},
{
color = 7;
glyphname = h;
layers = (
{
layerId = "7D96EDF2-9291-42EB-8A89-114070E423BA";
associatedMasterId = "A45B8B48-B1A0-4768-860A-A9A091AD15CC";
name = Regular2;
shapes = (
{
attr = {
strokeWidth = 80;
};
closed = 0;
nodes = (
(119,640,l),
(119,0,l)
);
},
{
attr = {
strokeWidth = 80;
};
closed = 0;
nodes = (
(379,0,l),
(379,276,l),
(375,380,o),
(309,399,o),
(266,399,cs),
(119,399,o),
(119,210,o),
(119,204,c)
);
}
);
width = 479;
},
{
layerId = "A45B8B48-B1A0-4768-860A-A9A091AD15CC";
shapes = (
{
attr = {
strokeWidth = 80;
};
closed = 0;
nodes = (
(119,640,l),
(119,0,l)
);
},
{
attr = {
strokeWidth = 80;
};
closed = 0;
nodes = (
(379,0,l),
(379,276,l),
(375,380,o),
(309,399,o),
(266,399,cs),
(119,399,o),
(119,210,o),
(119,204,c)
);
}
);
width = 479;
}
);
unicode = 104;
},
{
color = 7;
glyphname = i;
layers = (
{
layerId = "7D96EDF2-9291-42EB-8A89-114070E423BA";
associatedMasterId = "A45B8B48-B1A0-4768-860A-A9A091AD15CC";
name = Regular2;
shapes = (
{
attr = {
strokeWidth = 80;
};
closed = 0;
nodes = (
(118,500,l),
(118,1,l)
);
},
{
attr = {
strokeWidth = 80;
};
closed = 0;
nodes = (
(121,646,l),
(121,557,l)
);
}
);
width = 242;
},
{
layerId = "DDE7F4A0-B0D9-4AD6-8220-DBCA6917D16B";
associatedMasterId = "A45B8B48-B1A0-4768-860A-A9A091AD15CC";
name = 9;
shapes = (
{
attr = {
strokeWidth = 80;
};
closed = 0;
nodes = (
(119,440,l),
(119,0,l)
);
},
{
attr = {
strokeWidth = 80;
};
closed = 0;
nodes = (
(120,521,l),
(120,639,l)
);
}
);
width = 239;
},
{
layerId = "F2BCDAC3-A374-4BD0-9232-052CEDF04930";
associatedMasterId = "A45B8B48-B1A0-4768-860A-A9A091AD15CC";
name = 8;
shapes = (
{
closed = 1;
nodes = (
(160,436,l),
(73,504,l),
(-6,438,l),
(35,393,l),
(62,417,l),
(80,403,l),
(80,108,l),
(49,65,l),
(171,-3,l),
(248,87,l),
(203,121,l),
(181,95,l),
(160,106,l)
);
},
{
attr = {
strokeWidth = 80;
};
closed = 0;
nodes = (
(124,527,l),
(181,589,l)
);
}
);
width = 239;
},
{
layerId = "8E833399-E27E-4565-9018-11E8498362D8";
associatedMasterId = "A45B8B48-B1A0-4768-860A-A9A091AD15CC";
name = 7;
shapes = (
{
attr = {
strokeWidth = 80;
};
closed = 0;
nodes = (
(118,500,l),
(118,1,l)
);
},
{
attr = {
strokeWidth = 80;
};
closed = 0;
nodes = (
(121,646,l),
(121,557,l)
);
}
);
width = 242;
},
{
layerId = "A86A5F41-4E13-46D6-AB5E-800BAD9BA439";
associatedMasterId = "A45B8B48-B1A0-4768-860A-A9A091AD15CC";
name = 6;
shapes = (
{
attr = {
strokeWidth = 80;
};
closed = 0;
nodes = (
(118,500,l),
(118,1,l)
);
},
{
attr = {
strokeWidth = 80;
};
closed = 0;
nodes = (
(121,646,l),
(121,557,l)
);
}
);
width = 242;
},
{
layerId = "E3A3C698-D66E-4613-B276-7CA318EFDABE";
associatedMasterId = "A45B8B48-B1A0-4768-860A-A9A091AD15CC";
name = 5;
shapes = (
{
attr = {
strokeWidth = 80;
};
closed = 0;
nodes = (
(118,500,l),
(118,1,l)
);
},
{
attr = {
strokeWidth = 80;
};
closed = 0;
nodes = (
(121,646,l),
(121,557,l)
);
}
);
width = 242;
},
{
layerId = "29F5C9E9-A199-4B9B-A2BE-AC7A4E61D92F";
associatedMasterId = "A45B8B48-B1A0-4768-860A-A9A091AD15CC";
name = 4;
shapes = (
{
attr = {
strokeWidth = 80;
};
closed = 0;
nodes = (
(118,500,l),
(118,1,l)
);
},
{
attr = {
strokeWidth = 80;
};
closed = 0;
nodes = (
(121,646,l),
(121,557,l)
);
}
);
width = 242;
},
{
layerId = "9488FAD5-5270-4D5C-B0C4-37AD56ECA532";
associatedMasterId = "A45B8B48-B1A0-4768-860A-A9A091AD15CC";
name = 3;
shapes = (
{
attr = {
strokeWidth = 80;
};
closed = 0;
nodes = (
(118,500,l),
(118,1,l)
);
},
{
attr = {
strokeWidth = 80;
};
closed = 0;
nodes = (
(121,646,l),
(121,557,l)
);
}
);
width = 242;
},
{
layerId = "46B6D1F0-F2FD-4146-B2F9-2C121398E696";
associatedMasterId = "A45B8B48-B1A0-4768-860A-A9A091AD15CC";
name = 2;
shapes = (
{
attr = {
strokeWidth = 80;
};
closed = 0;
nodes = (
(118,500,l),
(118,1,l)
);
},
{
attr = {
strokeWidth = 80;
};
closed = 0;
nodes = (
(121,646,l),
(121,557,l)
);
}
);
width = 242;
},
{
layerId = "CDC22417-FBFE-4BDC-835F-026A6F7318A9";
associatedMasterId = "A45B8B48-B1A0-4768-860A-A9A091AD15CC";
name = 11;
shapes = (
{
attr = {
strokeWidth = 80;
};
closed = 0;
nodes = (
(119,500,l),
(119,0,l)
);
},
{
attr = {
strokeWidth = 80;
};
closed = 0;
nodes = (
(120,561,l),
(120,679,l)
);
}
);
width = 239;
},
{
layerId = "47A03E35-C5FD-4511-BFB9-1CF402F7D0F0";
associatedMasterId = "A45B8B48-B1A0-4768-860A-A9A091AD15CC";
name = 10;
shapes = (
{
attr = {
strokeWidth = 80;
};
closed = 0;
nodes = (
(119,440,l),
(119,0,l)
);
},
{
attr = {
strokeWidth = 80;
};
closed = 0;
nodes = (
(120,521,l),
(120,599,l)
);
}
);
width = 239;
},
{
layerId = "A45B8B48-B1A0-4768-860A-A9A091AD15CC";
shapes = (
{
attr = {
strokeWidth = 80;
};
closed = 0;
nodes = (
(118,500,l),
(118,1,l)
);
},
{
attr = {
strokeWidth = 80;
};
closed = 0;
nodes = (
(121,646,l),
(121,557,l)
);
}
);
width = 242;
}
);
unicode = 105;
},
{
color = 7;
glyphname = j;
layers = (
{
layerId = "7D96EDF2-9291-42EB-8A89-114070E423BA";
associatedMasterId = "A45B8B48-B1A0-4768-860A-A9A091AD15CC";
name = Regular2;
shapes = (
{
attr = {
strokeWidth = 80;
};
closed = 0;
nodes = (
(120,400,l),
(120,-140,ls),
(120,-221,o),
(0,-207,o),
(-2,-207,c)
);
},
{
attr = {
strokeWidth = 80;
};
closed = 0;
nodes = (
(120,481,l),
(120,559,l)
);
}
);
width = 240;
},
{
layerId = "A45B8B48-B1A0-4768-860A-A9A091AD15CC";
shapes = (
{
attr = {
strokeWidth = 80;
};
closed = 0;
nodes = (
(120,400,l),
(120,-140,ls),
(120,-221,o),
(0,-207,o),
(-2,-207,c)
);
},
{
attr = {
strokeWidth = 80;
};
closed = 0;
nodes = (
(120,481,l),
(120,559,l)
);
}
);
width = 240;
}
);
unicode = 106;
},
{
color = 7;
glyphname = l;
layers = (
{
layerId = "7D96EDF2-9291-42EB-8A89-114070E423BA";
associatedMasterId = "A45B8B48-B1A0-4768-860A-A9A091AD15CC";
name = Regular2;
shapes = (
{
attr = {
strokeWidth = 80;
};
closed = 0;
nodes = (
(119,640,l),
(119,0,l)
);
}
);
width = 240;
},
{
layerId = "A45B8B48-B1A0-4768-860A-A9A091AD15CC";
shapes = (
{
attr = {
strokeWidth = 80;
};
closed = 0;
nodes = (
(119,640,l),
(119,0,l)
);
}
);
width = 240;
}
);
unicode = 108;
},
{
color = 7;
glyphname = m;
layers = (
{
layerId = "7D96EDF2-9291-42EB-8A89-114070E423BA";
associatedMasterId = "A45B8B48-B1A0-4768-860A-A9A091AD15CC";
name = Regular2;
shapes = (
{
attr = {
strokeWidth = 80;
};
closed = 0;
nodes = (
(119,439,l),
(119,0,l)
);
},
{
attr = {
strokeWidth = 80;
};
closed = 0;
nodes = (
(379,0,l),
(379,276,l),
(375,380,o),
(309,404,o),
(266,404,cs),
(119,404,o),
(119,210,o),
(119,204,c)
);
},
{
attr = {
strokeWidth = 80;
};
closed = 0;
nodes = (
(639,0,l),
(639,276,l),
(635,380,o),
(569,404,o),
(526,404,cs),
(379,404,o),
(379,210,o),
(379,204,c)
);
}
);
width = 763;
},
{
layerId = "A45B8B48-B1A0-4768-860A-A9A091AD15CC";
shapes = (
{
attr = {
strokeWidth = 80;
};
closed = 0;
nodes = (
(119,439,l),
(119,0,l)
);
},
{
attr = {
strokeWidth = 80;
};
closed = 0;
nodes = (
(379,0,l),
(379,276,l),
(375,380,o),
(309,404,o),
(266,404,cs),
(119,404,o),
(119,210,o),
(119,204,c)
);
},
{
attr = {
strokeWidth = 80;
};
closed = 0;
nodes = (
(639,0,l),
(639,276,l),
(635,380,o),
(569,404,o),
(526,404,cs),
(379,404,o),
(379,210,o),
(379,204,c)
);
}
);
width = 763;
}
);
unicode = 109;
},
{
color = 7;
glyphname = n;
layers = (
{
layerId = "7D96EDF2-9291-42EB-8A89-114070E423BA";
associatedMasterId = "A45B8B48-B1A0-4768-860A-A9A091AD15CC";
name = Regular2;
shapes = (
{
attr = {
strokeWidth = 80;
};
closed = 0;
nodes = (
(119,439,l),
(119,0,l)
);
},
{
attr = {
strokeWidth = 80;
};
closed = 0;
nodes = (
(379,0,l),
(379,276,l),
(375,380,o),
(309,404,o),
(266,404,cs),
(119,404,o),
(119,210,o),
(119,204,c)
);
}
);
width = 501;
},
{
layerId = "DDE7F4A0-B0D9-4AD6-8220-DBCA6917D16B";
associatedMasterId = "A45B8B48-B1A0-4768-860A-A9A091AD15CC";
name = 9;
shapes = (
{
attr = {
strokeWidth = 80;
};
closed = 0;
nodes = (
(119,439,l),
(119,0,l)
);
},
{
attr = {
strokeWidth = 80;
};
closed = 0;
nodes = (
(379,0,l),
(379,276,l),
(375,380,o),
(309,404,o),
(266,404,cs),
(119,404,o),
(119,210,o),
(119,204,c)
);
}
);
width = 479;
},
{
layerId = "F2BCDAC3-A374-4BD0-9232-052CEDF04930";
associatedMasterId = "A45B8B48-B1A0-4768-860A-A9A091AD15CC";
name = 8;
shapes = (
{
closed = 1;
nodes = (
(80,108,l),
(49,65,l),
(171,-3,l),
(248,87,l),
(203,121,l),
(181,95,l),
(160,106,l),
(160,333,l),
(300,403,l),
(400,343,l),
(400,108,l),
(368,65,l),
(490,-3,l),
(567,87,l),
(522,121,l),
(500,95,l),
(480,106,l),
(480,353,l),
(500,380,l),
(302,502,l),
(160,426,l),
(77,502,l),
(-6,444,l),
(32,399,l),
(60,421,l),
(80,403,l)
);
}
);
width = 558;
},
{
layerId = "8E833399-E27E-4565-9018-11E8498362D8";
associatedMasterId = "A45B8B48-B1A0-4768-860A-A9A091AD15CC";
name = 7;
shapes = (
{
attr = {
strokeWidth = 80;
};
closed = 0;
nodes = (
(119,501,l),
(119,0,l)
);
},
{
attr = {
strokeWidth = 80;
};
closed = 0;
nodes = (
(118,323,l),
(118,323,o),
(146,490,o),
(325,471,c),
(445,452,o),
(439,317,o),
(439,317,c),
(439,317,o),
(439,0,o),
(439,0,c)
);
}
);
width = 561;
},
{
layerId = "A86A5F41-4E13-46D6-AB5E-800BAD9BA439";
associatedMasterId = "A45B8B48-B1A0-4768-860A-A9A091AD15CC";
name = 6;
shapes = (
{
attr = {
strokeWidth = 80;
};
closed = 0;
nodes = (
(119,501,l),
(119,0,l)
);
},
{
attr = {
strokeWidth = 80;
};
closed = 0;
nodes = (
(118,323,l),
(118,323,o),
(146,490,o),
(325,471,c),
(445,452,o),
(439,317,o),
(439,317,c),
(439,317,o),
(439,0,o),
(439,0,c)
);
}
);
width = 561;
},
{
layerId = "E3A3C698-D66E-4613-B276-7CA318EFDABE";
associatedMasterId = "A45B8B48-B1A0-4768-860A-A9A091AD15CC";
name = 5;
shapes = (
{
attr = {
strokeWidth = 80;
};
closed = 0;
nodes = (
(119,501,l),
(119,0,l)
);
},
{
attr = {
strokeWidth = 80;
};
closed = 0;
nodes = (
(118,323,l),
(118,323,o),
(146,490,o),
(325,471,c),
(445,452,o),
(439,317,o),
(439,317,c),
(439,317,o),
(439,0,o),
(439,0,c)
);
}
);
width = 561;
},
{
layerId = "29F5C9E9-A199-4B9B-A2BE-AC7A4E61D92F";
associatedMasterId = "A45B8B48-B1A0-4768-860A-A9A091AD15CC";
name = 4;
shapes = (
{
attr = {
strokeWidth = 80;
};
closed = 0;
nodes = (
(119,501,l),
(119,0,l)
);
},
{
attr = {
strokeWidth = 80;
};
closed = 0;
nodes = (
(118,323,l),
(118,323,o),
(146,490,o),
(325,471,c),
(445,452,o),
(439,317,o),
(439,317,c),
(439,317,o),
(439,0,o),
(439,0,c)
);
}
);
width = 561;
},
{
layerId = "9488FAD5-5270-4D5C-B0C4-37AD56ECA532";
associatedMasterId = "A45B8B48-B1A0-4768-860A-A9A091AD15CC";
name = 3;
shapes = (
{
attr = {
strokeWidth = 80;
};
closed = 0;
nodes = (
(119,501,l),
(119,0,l)
);
},
{
attr = {
strokeWidth = 80;
};
closed = 0;
nodes = (
(118,323,l),
(118,323,o),
(146,490,o),
(325,471,c),
(445,452,o),
(439,317,o),
(439,317,c),
(439,317,o),
(439,0,o),
(439,0,c)
);
}
);
width = 561;
},
{
layerId = "46B6D1F0-F2FD-4146-B2F9-2C121398E696";
associatedMasterId = "A45B8B48-B1A0-4768-860A-A9A091AD15CC";
name = 2;
shapes = (
{
attr = {
strokeWidth = 80;
};
closed = 0;
nodes = (
(119,501,l),
(119,0,l)
);
},
{
attr = {
strokeWidth = 80;
};
closed = 0;
nodes = (
(118,323,l),
(118,323,o),
(146,490,o),
(325,471,c),
(445,452,o),
(439,317,o),
(439,317,c),
(439,317,o),
(439,0,o),
(439,0,c)
);
}
);
width = 561;
},
{
layerId = "CDC22417-FBFE-4BDC-835F-026A6F7318A9";
associatedMasterId = "A45B8B48-B1A0-4768-860A-A9A091AD15CC";
name = 11;
shapes = (
{
attr = {
strokeWidth = 80;
};
closed = 0;
nodes = (
(119,500,l),
(119,0,l)
);
},
{
attr = {
strokeWidth = 80;
};
closed = 0;
nodes = (
(440,0,l),
(440,328,l),
(436,443,o),
(333,466,o),
(292,464,cs),
(158,459,o),
(119,308,o),
(119,301,c)
);
}
);
width = 560;
},
{
layerId = "47A03E35-C5FD-4511-BFB9-1CF402F7D0F0";
associatedMasterId = "A45B8B48-B1A0-4768-860A-A9A091AD15CC";
name = 10;
shapes = (
{
attr = {
strokeWidth = 80;
};
closed = 0;
nodes = (
(119,439,l),
(119,0,l)
);
},
{
attr = {
strokeWidth = 80;
};
closed = 0;
nodes = (
(379,0,l),
(379,276,l),
(375,380,o),
(309,404,o),
(266,404,cs),
(119,404,o),
(119,210,o),
(119,204,c)
);
}
);
width = 477;
},
{
layerId = "A45B8B48-B1A0-4768-860A-A9A091AD15CC";
shapes = (
{
attr = {
strokeWidth = 80;
};
closed = 0;
nodes = (
(119,439,l),
(119,0,l)
);
},
{
attr = {
strokeWidth = 80;
};
closed = 0;
nodes = (
(379,0,l),
(379,276,l),
(375,380,o),
(309,404,o),
(266,404,cs),
(119,404,o),
(119,210,o),
(119,204,c)
);
}
);
width = 501;
}
);
unicode = 110;
},
{
color = 7;
glyphname = o;
layers = (
{
layerId = "7D96EDF2-9291-42EB-8A89-114070E423BA";
associatedMasterId = "A45B8B48-B1A0-4768-860A-A9A091AD15CC";
name = Regular2;
shapes = (
{
attr = {
strokeWidth = 80;
};
closed = 0;
nodes = (
(253,400,l),
(132,402,o),
(80,317,o),
(80,218,cs),
(80,124,o),
(141,39,o),
(248,39,c)
);
},
{
attr = {
strokeWidth = 80;
};
closed = 0;
nodes = (
(228,39,l),
(346,39,o),
(399,124,o),
(399,218,cs),
(399,312,o),
(358,402,o),
(225,400,c)
);
}
);
width = 480;
},
{
layerId = "DDE7F4A0-B0D9-4AD6-8220-DBCA6917D16B";
associatedMasterId = "A45B8B48-B1A0-4768-860A-A9A091AD15CC";
name = 9;
shapes = (
{
attr = {
strokeWidth = 80;
};
closed = 0;
nodes = (
(253,400,l),
(132,402,o),
(80,317,o),
(80,218,cs),
(80,124,o),
(141,39,o),
(248,39,c)
);
},
{
attr = {
strokeWidth = 80;
};
closed = 0;
nodes = (
(228,39,l),
(346,39,o),
(394,124,o),
(394,218,cs),
(394,312,o),
(358,402,o),
(225,400,c)
);
}
);
width = 478;
},
{
layerId = "F2BCDAC3-A374-4BD0-9232-052CEDF04930";
associatedMasterId = "A45B8B48-B1A0-4768-860A-A9A091AD15CC";
name = 8;
shapes = (
{
closed = 1;
nodes = (
(481,115,l),
(267,0,l),
(49,123,l),
(80,165,l),
(80,401,l),
(292,501,l),
(500,378,l),
(480,351,l)
);
},
{
closed = 1;
nodes = (
(400,165,l),
(400,341,l),
(290,402,l),
(160,342,l),
(160,156,l),
(269,99,l)
);
}
);
width = 564;
},
{
layerId = "8E833399-E27E-4565-9018-11E8498362D8";
associatedMasterId = "A45B8B48-B1A0-4768-860A-A9A091AD15CC";
name = 7;
shapes = (
{
closed = 1;
nodes = (
(56,117,o),
(152,0,o),
(282,0,cs),
(411,0,o),
(507,117,o),
(507,250,cs),
(507,382,o),
(411,499,o),
(282,499,cs),
(153,499,o),
(56,382,o),
(56,250,cs)
);
},
{
closed = 1;
nodes = (
(136,348,o),
(205,419,o),
(282,419,cs),
(357,419,o),
(427,348,o),
(427,250,cs),
(427,151,o),
(357,80,o),
(282,80,cs),
(206,80,o),
(136,151,o),
(136,250,cs)
);
}
);
width = 564;
},
{
layerId = "A86A5F41-4E13-46D6-AB5E-800BAD9BA439";
associatedMasterId = "A45B8B48-B1A0-4768-860A-A9A091AD15CC";
name = 6;
shapes = (
{
closed = 1;
nodes = (
(56,117,o),
(152,0,o),
(282,0,cs),
(411,0,o),
(507,117,o),
(507,250,cs),
(507,382,o),
(411,499,o),
(282,499,cs),
(153,499,o),
(56,382,o),
(56,250,cs)
);
},
{
closed = 1;
nodes = (
(136,348,o),
(205,419,o),
(282,419,cs),
(357,419,o),
(427,348,o),
(427,250,cs),
(427,151,o),
(357,80,o),
(282,80,cs),
(206,80,o),
(136,151,o),
(136,250,cs)
);
}
);
width = 564;
},
{
layerId = "E3A3C698-D66E-4613-B276-7CA318EFDABE";
associatedMasterId = "A45B8B48-B1A0-4768-860A-A9A091AD15CC";
name = 5;
shapes = (
{
closed = 1;
nodes = (
(56,117,o),
(152,0,o),
(282,0,cs),
(411,0,o),
(507,117,o),
(507,250,cs),
(507,382,o),
(411,499,o),
(282,499,cs),
(153,499,o),
(56,382,o),
(56,250,cs)
);
},
{
closed = 1;
nodes = (
(136,348,o),
(205,419,o),
(282,419,cs),
(357,419,o),
(427,348,o),
(427,250,cs),
(427,151,o),
(357,80,o),
(282,80,cs),
(206,80,o),
(136,151,o),
(136,250,cs)
);
}
);
width = 564;
},
{
layerId = "29F5C9E9-A199-4B9B-A2BE-AC7A4E61D92F";
associatedMasterId = "A45B8B48-B1A0-4768-860A-A9A091AD15CC";
name = 4;
shapes = (
{
closed = 1;
nodes = (
(56,117,o),
(152,0,o),
(282,0,cs),
(411,0,o),
(507,117,o),
(507,250,cs),
(507,382,o),
(411,499,o),
(282,499,cs),
(153,499,o),
(56,382,o),
(56,250,cs)
);
},
{
closed = 1;
nodes = (
(136,348,o),
(205,419,o),
(282,419,cs),
(357,419,o),
(427,348,o),
(427,250,cs),
(427,151,o),
(357,80,o),
(282,80,cs),
(206,80,o),
(136,151,o),
(136,250,cs)
);
}
);
width = 564;
},
{
layerId = "9488FAD5-5270-4D5C-B0C4-37AD56ECA532";
associatedMasterId = "A45B8B48-B1A0-4768-860A-A9A091AD15CC";
name = 3;
shapes = (
{
closed = 1;
nodes = (
(56,117,o),
(152,0,o),
(282,0,cs),
(411,0,o),
(507,117,o),
(507,250,cs),
(507,382,o),
(411,499,o),
(282,499,cs),
(153,499,o),
(56,382,o),
(56,250,cs)
);
},
{
closed = 1;
nodes = (
(136,348,o),
(205,419,o),
(282,419,cs),
(357,419,o),
(427,348,o),
(427,250,cs),
(427,151,o),
(357,80,o),
(282,80,cs),
(206,80,o),
(136,151,o),
(136,250,cs)
);
}
);
width = 564;
},
{
layerId = "46B6D1F0-F2FD-4146-B2F9-2C121398E696";
associatedMasterId = "A45B8B48-B1A0-4768-860A-A9A091AD15CC";
name = 2;
shapes = (
{
closed = 1;
nodes = (
(56,117,o),
(152,0,o),
(282,0,cs),
(411,0,o),
(507,117,o),
(507,250,cs),
(507,382,o),
(411,499,o),
(282,499,cs),
(153,499,o),
(56,382,o),
(56,250,cs)
);
},
{
closed = 1;
nodes = (
(136,348,o),
(205,419,o),
(282,419,cs),
(357,419,o),
(427,348,o),
(427,250,cs),
(427,151,o),
(357,80,o),
(282,80,cs),
(206,80,o),
(136,151,o),
(136,250,cs)
);
}
);
width = 564;
},
{
layerId = "CDC22417-FBFE-4BDC-835F-026A6F7318A9";
associatedMasterId = "A45B8B48-B1A0-4768-860A-A9A091AD15CC";
name = 11;
shapes = (
{
attr = {
strokeWidth = 80;
};
closed = 0;
nodes = (
(271,464,l),
(130,467,o),
(80,368,o),
(80,250,cs),
(80,139,o),
(140,39,o),
(267,39,c)
);
},
{
attr = {
strokeWidth = 80;
};
closed = 0;
nodes = (
(255,39,l),
(382,39,o),
(440,139,o),
(440,250,cs),
(440,361,o),
(396,467,o),
(251,464,c)
);
}
);
width = 521;
},
{
layerId = "47A03E35-C5FD-4511-BFB9-1CF402F7D0F0";
associatedMasterId = "A45B8B48-B1A0-4768-860A-A9A091AD15CC";
name = 10;
shapes = (
{
attr = {
strokeWidth = 80;
};
closed = 0;
nodes = (
(243,403,l),
(123,405,o),
(80,320,o),
(80,219,cs),
(80,125,o),
(131,39,o),
(240,39,c)
);
},
{
attr = {
strokeWidth = 80;
};
closed = 0;
nodes = (
(230,39,l),
(338,39,o),
(388,125,o),
(388,219,cs),
(388,314,o),
(350,405,o),
(226,403,c)
);
}
);
width = 480;
},
{
layerId = "A45B8B48-B1A0-4768-860A-A9A091AD15CC";
shapes = (
{
attr = {
strokeWidth = 80;
};
closed = 0;
nodes = (
(253,400,l),
(132,402,o),
(80,317,o),
(80,218,cs),
(80,124,o),
(141,39,o),
(248,39,c)
);
},
{
attr = {
strokeWidth = 80;
};
closed = 0;
nodes = (
(228,39,l),
(346,39,o),
(399,124,o),
(399,218,cs),
(399,312,o),
(358,402,o),
(225,400,c)
);
}
);
width = 480;
}
);
unicode = 111;
},
{
color = 7;
glyphname = p;
layers = (
{
layerId = "7D96EDF2-9291-42EB-8A89-114070E423BA";
associatedMasterId = "A45B8B48-B1A0-4768-860A-A9A091AD15CC";
name = Regular2;
shapes = (
{
attr = {
strokeWidth = 80;
};
closed = 0;
nodes = (
(119,438,l),
(119,-202,l)
);
},
{
attr = {
strokeWidth = 80;
};
closed = 0;
nodes = (
(231,35,l),
(355,33,o),
(397,119,o),
(397,221,cs),
(397,317,o),
(346,403,o),
(235,403,c)
);
},
{
attr = {
strokeWidth = 80;
};
closed = 0;
nodes = (
(246,403,l),
(187,403,o),
(145,379,o),
(119,340,c)
);
},
{
attr = {
strokeWidth = 80;
};
closed = 0;
nodes = (
(123,90,l),
(148,55,o),
(190,35,o),
(250,35,c)
);
}
);
width = 479;
},
{
layerId = "A45B8B48-B1A0-4768-860A-A9A091AD15CC";
shapes = (
{
attr = {
strokeWidth = 80;
};
closed = 0;
nodes = (
(119,438,l),
(119,-202,l)
);
},
{
attr = {
strokeWidth = 80;
};
closed = 0;
nodes = (
(231,35,l),
(355,33,o),
(397,119,o),
(397,221,cs),
(397,317,o),
(346,403,o),
(235,403,c)
);
},
{
attr = {
strokeWidth = 80;
};
closed = 0;
nodes = (
(246,403,l),
(187,403,o),
(145,379,o),
(119,340,c)
);
},
{
attr = {
strokeWidth = 80;
};
closed = 0;
nodes = (
(123,90,l),
(148,55,o),
(190,35,o),
(250,35,c)
);
}
);
width = 479;
}
);
unicode = 112;
},
{
color = 7;
glyphname = q;
layers = (
{
layerId = "7D96EDF2-9291-42EB-8A89-114070E423BA";
associatedMasterId = "A45B8B48-B1A0-4768-860A-A9A091AD15CC";
name = Regular2;
shapes = (
{
attr = {
strokeWidth = 80;
};
closed = 0;
nodes = (
(358,-202,l),
(358,438,l)
);
},
{
attr = {
strokeWidth = 80;
};
closed = 0;
nodes = (
(242,403,l),
(131,403,o),
(80,317,o),
(80,221,cs),
(80,119,o),
(122,33,o),
(246,35,c)
);
},
{
attr = {
strokeWidth = 80;
};
closed = 0;
nodes = (
(358,340,l),
(332,379,o),
(290,403,o),
(231,403,c)
);
},
{
attr = {
strokeWidth = 80;
};
closed = 0;
nodes = (
(227,35,l),
(287,35,o),
(329,55,o),
(354,90,c)
);
}
);
width = 479;
},
{
layerId = "A45B8B48-B1A0-4768-860A-A9A091AD15CC";
shapes = (
{
attr = {
strokeWidth = 80;
};
closed = 0;
nodes = (
(358,-202,l),
(358,438,l)
);
},
{
attr = {
strokeWidth = 80;
};
closed = 0;
nodes = (
(242,403,l),
(131,403,o),
(80,317,o),
(80,221,cs),
(80,119,o),
(122,33,o),
(246,35,c)
);
},
{
attr = {
strokeWidth = 80;
};
closed = 0;
nodes = (
(358,340,l),
(332,379,o),
(290,403,o),
(231,403,c)
);
},
{
attr = {
strokeWidth = 80;
};
closed = 0;
nodes = (
(227,35,l),
(287,35,o),
(329,55,o),
(354,90,c)
);
}
);
width = 479;
}
);
unicode = 113;
},
{
color = 7;
glyphname = r;
layers = (
{
layerId = "7D96EDF2-9291-42EB-8A89-114070E423BA";
associatedMasterId = "A45B8B48-B1A0-4768-860A-A9A091AD15CC";
name = Regular2;
shapes = (
{
attr = {
strokeWidth = 80;
};
closed = 0;
nodes = (
(119,440,l),
(119,0,l)
);
},
{
attr = {
strokeWidth = 80;
};
closed = 0;
nodes = (
(300,401,l),
(197,401,o),
(119,368,o),
(119,250,c)
);
}
);
width = 321;
},
{
layerId = "A45B8B48-B1A0-4768-860A-A9A091AD15CC";
shapes = (
{
attr = {
strokeWidth = 80;
};
closed = 0;
nodes = (
(119,440,l),
(119,0,l)
);
},
{
attr = {
strokeWidth = 80;
};
closed = 0;
nodes = (
(300,401,l),
(197,401,o),
(119,368,o),
(119,250,c)
);
}
);
width = 321;
}
);
unicode = 114;
},
{
color = 7;
glyphname = t;
layers = (
{
layerId = "7D96EDF2-9291-42EB-8A89-114070E423BA";
associatedMasterId = "A45B8B48-B1A0-4768-860A-A9A091AD15CC";
name = Regular2;
shapes = (
{
attr = {
strokeWidth = 80;
};
closed = 0;
nodes = (
(119,581,l),
(119,0,l)
);
},
{
attr = {
strokeWidth = 80;
};
closed = 0;
nodes = (
(19,399,l),
(224,399,l)
);
}
);
width = 241;
},
{
layerId = "A45B8B48-B1A0-4768-860A-A9A091AD15CC";
shapes = (
{
attr = {
strokeWidth = 80;
};
closed = 0;
nodes = (
(119,581,l),
(119,0,l)
);
},
{
attr = {
strokeWidth = 80;
};
closed = 0;
nodes = (
(19,399,l),
(224,399,l)
);
}
);
width = 241;
}
);
unicode = 116;
},
{
color = 7;
glyphname = u;
layers = (
{
layerId = "7D96EDF2-9291-42EB-8A89-114070E423BA";
associatedMasterId = "A45B8B48-B1A0-4768-860A-A9A091AD15CC";
name = Regular2;
shapes = (
{
attr = {
strokeWidth = 80;
};
closed = 0;
nodes = (
(379,0,l),
(379,439,l)
);
},
{
attr = {
strokeWidth = 80;
};
closed = 0;
nodes = (
(119,439,l),
(119,163,l),
(123,59,o),
(189,35,o),
(232,35,cs),
(379,35,o),
(379,229,o),
(379,235,c)
);
}
);
width = 480;
},
{
layerId = "A45B8B48-B1A0-4768-860A-A9A091AD15CC";
shapes = (
{
attr = {
strokeWidth = 80;
};
closed = 0;
nodes = (
(379,0,l),
(379,439,l)
);
},
{
attr = {
strokeWidth = 80;
};
closed = 0;
nodes = (
(119,439,l),
(119,163,l),
(123,59,o),
(189,35,o),
(232,35,cs),
(379,35,o),
(379,229,o),
(379,235,c)
);
}
);
width = 480;
}
);
unicode = 117;
},
{
color = 7;
glyphname = v;
layers = (
{
layerId = "7D96EDF2-9291-42EB-8A89-114070E423BA";
associatedMasterId = "A45B8B48-B1A0-4768-860A-A9A091AD15CC";
name = Regular2;
shapes = (
{
attr = {
strokeWidth = 80;
lineCapEnd = 4;
lineCapStart = 4;
};
closed = 0;
nodes = (
(75,440,l),
(231,0,l)
);
},
{
attr = {
strokeWidth = 80;
lineCapEnd = 4;
lineCapStart = 4;
};
closed = 0;
nodes = (
(230,0,l),
(375,440,l)
);
}
);
width = 439;
},
{
layerId = "A45B8B48-B1A0-4768-860A-A9A091AD15CC";
shapes = (
{
attr = {
strokeWidth = 80;
lineCapEnd = 4;
lineCapStart = 4;
};
closed = 0;
nodes = (
(75,440,l),
(231,0,l)
);
},
{
attr = {
strokeWidth = 80;
lineCapEnd = 4;
lineCapStart = 4;
};
closed = 0;
nodes = (
(230,0,l),
(375,440,l)
);
}
);
width = 439;
}
);
unicode = 118;
},
{
color = 7;
glyphname = w;
layers = (
{
layerId = "7D96EDF2-9291-42EB-8A89-114070E423BA";
associatedMasterId = "A45B8B48-B1A0-4768-860A-A9A091AD15CC";
name = Regular2;
shapes = (
{
attr = {
strokeWidth = 80;
lineCapEnd = 4;
lineCapStart = 4;
};
closed = 0;
nodes = (
(77,441,l),
(231,0,l)
);
},
{
attr = {
strokeWidth = 80;
lineCapEnd = 4;
lineCapStart = 4;
};
closed = 0;
nodes = (
(231,0,l),
(385,441,l)
);
},
{
attr = {
strokeWidth = 80;
lineCapEnd = 4;
lineCapStart = 4;
};
closed = 0;
nodes = (
(389,441,l),
(554,0,l)
);
},
{
attr = {
strokeWidth = 80;
lineCapEnd = 4;
lineCapStart = 4;
};
closed = 0;
nodes = (
(553,0,l),
(688,441,l)
);
}
);
width = 762;
},
{
layerId = "A45B8B48-B1A0-4768-860A-A9A091AD15CC";
shapes = (
{
attr = {
strokeWidth = 80;
lineCapEnd = 4;
lineCapStart = 4;
};
closed = 0;
nodes = (
(77,441,l),
(231,0,l)
);
},
{
attr = {
strokeWidth = 80;
lineCapEnd = 4;
lineCapStart = 4;
};
closed = 0;
nodes = (
(231,0,l),
(385,441,l)
);
},
{
attr = {
strokeWidth = 80;
lineCapEnd = 4;
lineCapStart = 4;
};
closed = 0;
nodes = (
(389,441,l),
(554,0,l)
);
},
{
attr = {
strokeWidth = 80;
lineCapEnd = 4;
lineCapStart = 4;
};
closed = 0;
nodes = (
(553,0,l),
(688,441,l)
);
}
);
width = 762;
}
);
unicode = 119;
},
{
color = 7;
glyphname = x;
layers = (
{
layerId = "7D96EDF2-9291-42EB-8A89-114070E423BA";
associatedMasterId = "A45B8B48-B1A0-4768-860A-A9A091AD15CC";
name = Regular2;
shapes = (
{
attr = {
strokeWidth = 80;
lineCapEnd = 4;
lineCapStart = 4;
};
closed = 0;
nodes = (
(65,441,l),
(355,0,l)
);
},
{
attr = {
strokeWidth = 80;
lineCapEnd = 4;
lineCapStart = 4;
};
closed = 0;
nodes = (
(81,0,l),
(372,441,l)
);
}
);
width = 441;
},
{
layerId = "A45B8B48-B1A0-4768-860A-A9A091AD15CC";
shapes = (
{
attr = {
strokeWidth = 80;
lineCapEnd = 4;
lineCapStart = 4;
};
closed = 0;
nodes = (
(65,441,l),
(355,0,l)
);
},
{
attr = {
strokeWidth = 80;
lineCapEnd = 4;
lineCapStart = 4;
};
closed = 0;
nodes = (
(81,0,l),
(372,441,l)
);
}
);
width = 441;
}
);
unicode = 120;
},
{
color = 7;
glyphname = y;
layers = (
{
layerId = "7D96EDF2-9291-42EB-8A89-114070E423BA";
associatedMasterId = "A45B8B48-B1A0-4768-860A-A9A091AD15CC";
name = Regular2;
shapes = (
{
attr = {
strokeWidth = 80;
lineCapEnd = 4;
lineCapStart = 4;
};
closed = 0;
nodes = (
(66,441,l),
(227,-12,l)
);
},
{
attr = {
strokeWidth = 80;
lineCapEnd = 4;
lineCapStart = 4;
};
closed = 0;
nodes = (
(379,441,l),
(180,-151,ls),
(161,-208,o),
(106,-221,o),
(34,-201,c)
);
}
);
width = 442;
},
{
layerId = "A45B8B48-B1A0-4768-860A-A9A091AD15CC";
shapes = (
{
attr = {
strokeWidth = 80;
lineCapEnd = 4;
lineCapStart = 4;
};
closed = 0;
nodes = (
(66,441,l),
(227,-12,l)
);
},
{
attr = {
strokeWidth = 80;
lineCapEnd = 4;
lineCapStart = 4;
};
closed = 0;
nodes = (
(379,441,l),
(180,-151,ls),
(161,-208,o),
(106,-221,o),
(34,-201,c)
);
}
);
width = 442;
}
);
unicode = 121;
},
{
color = 7;
glyphname = z;
layers = (
{
layerId = "7D96EDF2-9291-42EB-8A89-114070E423BA";
associatedMasterId = "A45B8B48-B1A0-4768-860A-A9A091AD15CC";
name = Regular2;
shapes = (
{
attr = {
strokeWidth = 80;
lineCapEnd = 4;
lineCapStart = 4;
};
closed = 0;
nodes = (
(40,402,l),
(335,401,l)
);
},
{
attr = {
strokeWidth = 80;
lineCapEnd = 4;
lineCapStart = 4;
};
closed = 0;
nodes = (
(351,442,l),
(61,0,l)
);
},
{
attr = {
strokeWidth = 80;
lineCapEnd = 4;
lineCapStart = 4;
};
closed = 0;
nodes = (
(75,40,l),
(407,40,l)
);
}
);
width = 441;
},
{
layerId = "A45B8B48-B1A0-4768-860A-A9A091AD15CC";
shapes = (
{
attr = {
strokeWidth = 80;
lineCapEnd = 4;
lineCapStart = 4;
};
closed = 0;
nodes = (
(40,402,l),
(335,401,l)
);
},
{
attr = {
strokeWidth = 80;
lineCapEnd = 4;
lineCapStart = 4;
};
closed = 0;
nodes = (
(351,442,l),
(61,0,l)
);
},
{
attr = {
strokeWidth = 80;
lineCapEnd = 4;
lineCapStart = 4;
};
closed = 0;
nodes = (
(75,40,l),
(407,40,l)
);
}
);
width = 441;
}
);
unicode = 122;
},
{
color = 7;
glyphname = "candrabindu-deva";
layers = (
{
layerId = "7D96EDF2-9291-42EB-8A89-114070E423BA";
associatedMasterId = "A45B8B48-B1A0-4768-860A-A9A091AD15CC";
name = Regular2;
width = 664;
},
{
anchors = (
{
name = _top;
position = "{-100, 700}";
}
);
layerId = "A45B8B48-B1A0-4768-860A-A9A091AD15CC";
shapes = (
{
closed = 1;
nodes = (
(40,935,l),
(40,821,o),
(-21,760,o),
(-133,760,cs),
(-259,760,o),
(-330,837,o),
(-330,972,c),
(-290,940,l),
(-290,860,o),
(-252,830,o),
(-150,830,cs),
(-52,830,o),
(-30,856,o),
(-30,970,c)
);
},
{
closed = 1;
nodes = (
(-213,945,l),
(-158,1002,l),
(-101,945,l),
(-156,888,l)
);
}
);
width = 0;
}
);
unicode = 2305;
},
{
color = 7;
glyphname = "anusvara-deva";
layers = (
{
layerId = "7D96EDF2-9291-42EB-8A89-114070E423BA";
associatedMasterId = "A45B8B48-B1A0-4768-860A-A9A091AD15CC";
name = Regular2;
width = 664;
},
{
anchors = (
{
name = _top;
position = "{-100, 700}";
}
);
layerId = "BD34DC1A-A074-4063-A364-05792E7A5A9B";
associatedMasterId = "A45B8B48-B1A0-4768-860A-A9A091AD15CC";
name = "15 May 26 at 18:39";
shapes = (
{
closed = 1;
nodes = (
(-100,834,l),
(-45,891,l),
(-102,948,l),
(-157,891,l)
);
}
);
width = 0;
},
{
anchors = (
{
name = _top;
position = "{-140, 700}";
}
);
layerId = "A45B8B48-B1A0-4768-860A-A9A091AD15CC";
shapes = (
{
closed = 1;
nodes = (
(-140,866,l),
(-85,923,l),
(-142,980,l),
(-197,923,l)
);
}
);
width = 0;
}
);
unicode = 2306;
},
{
color = 7;
glyphname = "a-deva";
layers = (
{
layerId = "7D96EDF2-9291-42EB-8A89-114070E423BA";
associatedMasterId = "A45B8B48-B1A0-4768-860A-A9A091AD15CC";
name = Regular2;
shapes = (
{
attr = {
strokeWidth = 80;
};
closed = 0;
nodes = (
(659,667,l),
(659,0,l)
);
},
{
attr = {
strokeWidth = 80;
};
closed = 0;
nodes = (
(160,380,l),
(271,380,o),
(380,405,o),
(380,525,cs),
(380,624,o),
(307,666,o),
(241,666,cs),
(179,666,o),
(120,630,o),
(120,560,c)
);
},
{
attr = {
strokeWidth = 80;
};
closed = 0;
nodes = (
(80,201,l),
(80,102,o),
(161,60,o),
(245,60,cs),
(340,60,o),
(420,113,o),
(420,222,cs),
(420,377,o),
(259,381,o),
(179,380,c)
);
},
{
attr = {
strokeWidth = 76;
};
closed = 0;
nodes = (
(458,660,l),
(834,660,l)
);
},
{
attr = {
strokeWidth = 76;
};
closed = 0;
nodes = (
(347,341,l),
(626,341,l)
);
}
);
width = 800;
},
{
layerId = "A45B8B48-B1A0-4768-860A-A9A091AD15CC";
shapes = (
{
closed = 1;
nodes = (
(387,60,o),
(467,124,o),
(467,227,cs),
(467,327,o),
(413,401,o),
(327,401,c),
(318,380,l),
(370,381,o),
(395,340,o),
(395,258,cs),
(395,176,o),
(360,137,o),
(260,137,cs),
(179,137,o),
(137,166,o),
(137,166,c),
(137,293,l),
(40,293,l),
(40,213,o),
(156,60,o),
(293,60,cs)
);
},
{
closed = 1;
nodes = (
(729,-20,l),
(719,126,l),
(666,166,l),
(601,44,l),
(601,40,l),
(725,-20,l)
);
},
{
closed = 1;
nodes = (
(254,341,l),
(353,341,o),
(431,410,o),
(431,507,cs),
(431,612,o),
(343,700,o),
(226,700,cs),
(173,700,o),
(129,682,o),
(106,651,c),
(176,574,l),
(176,585,o),
(204,632,o),
(269,632,cs),
(335,632,o),
(368,608,o),
(368,535,cs),
(368,477,o),
(335,438,o),
(196,438,c)
);
},
{
closed = 1;
nodes = (
(671,322,l),
(672,413,l),
(369,387,l),
(395,322,l)
);
},
{
closed = 1;
nodes = (
(720,66,l),
(718,352,l),
(726,663,l),
(634,663,l),
(644,381,l),
(640,66,l)
);
},
{
closed = 1;
nodes = (
(890,620,l),
(820,700,l),
(456,700,l),
(526,620,l)
);
}
);
width = 820;
}
);
unicode = 2309;
},
{
color = 7;
glyphname = "aa-deva";
leftMetricsKey = "=a-deva";
rightMetricsKey = "=aasign-deva";
layers = (
{
layerId = "7D96EDF2-9291-42EB-8A89-114070E423BA";
associatedMasterId = "A45B8B48-B1A0-4768-860A-A9A091AD15CC";
name = Regular2;
shapes = (
{
attr = {
strokeWidth = 80;
};
closed = 0;
nodes = (
(919,667,l),
(919,0,l)
);
},
{
attr = {
strokeWidth = 80;
};
closed = 0;
nodes = (
(659,667,l),
(659,0,l)
);
},
{
attr = {
strokeWidth = 80;
};
closed = 0;
nodes = (
(160,380,l),
(271,380,o),
(380,405,o),
(380,525,cs),
(380,624,o),
(307,666,o),
(241,666,cs),
(179,666,o),
(120,630,o),
(120,560,c)
);
},
{
attr = {
strokeWidth = 80;
};
closed = 0;
nodes = (
(80,201,l),
(80,102,o),
(161,60,o),
(245,60,cs),
(340,60,o),
(420,113,o),
(420,222,cs),
(420,377,o),
(259,381,o),
(179,380,c)
);
},
{
attr = {
strokeWidth = 76;
};
closed = 0;
nodes = (
(458,660,l),
(1170,660,l)
);
},
{
attr = {
strokeWidth = 76;
};
closed = 0;
nodes = (
(369,340,l),
(626,340,l)
);
},
{
alignment = -1;
ref = "a-deva";
},
{
alignment = -1;
pos = (390,0);
ref = "aasign-deva";
}
);
width = 1060;
},
{
layerId = "A45B8B48-B1A0-4768-860A-A9A091AD15CC";
shapes = (
{
alignment = -1;
pos = (21,21);
ref = Aa_bowl;
scale = (0.97,0.97);
},
{
alignment = -1;
ref = "a-deva";
},
{
alignment = -1;
pos = (783,0);
ref = "aasign-deva";
}
);
width = 1063;
}
);
unicode = 2310;
},
{
color = 7;
glyphname = "i-deva";
layers = (
{
layerId = "7D96EDF2-9291-42EB-8A89-114070E423BA";
associatedMasterId = "A45B8B48-B1A0-4768-860A-A9A091AD15CC";
name = Regular2;
shapes = (
{
attr = {
strokeWidth = 80;
};
closed = 0;
nodes = (
(80,200,l),
(80,150,o),
(80,-32,o),
(80,-119,c)
);
},
{
attr = {
strokeWidth = 80;
};
closed = 0;
nodes = (
(400,661,l),
(400,480,l),
(220,480,ls),
(145,480,o),
(100,442,o),
(100,380,cs),
(100,318,o),
(145,280,o),
(220,280,cs),
(330,280,ls),
(414,280,o),
(460,240,o),
(460,170,cs),
(460,86,o),
(396,40,o),
(280,40,cs),
(150,40,o),
(80,100,o),
(80,200,c)
);
},
{
attr = {
strokeWidth = 76;
};
closed = 0;
nodes = (
(-16,660,l),
(623,660,l)
);
}
);
width = 540;
},
{
layerId = "4DC423D7-2FBD-47C0-913E-FF57B6DD9D5D";
associatedMasterId = "A45B8B48-B1A0-4768-860A-A9A091AD15CC";
name = "15 May 26 at 18:54";
shapes = (
{
closed = 1;
nodes = (
(401,0,o),
(490,54,o),
(490,159,cs),
(490,249,o),
(421,341,o),
(360,330,cs),
(190,300,l),
(158,300,o),
(130,335,o),
(130,375,cs),
(130,416,o),
(159,440,o),
(211,440,cs),
(440,440,l),
(440,660,l),
(360,660,l),
(360,520,l),
(211,520,ls),
(129,520,o),
(70,478,o),
(70,420,cs),
(70,348,o),
(162,225,o),
(214,225,cs),
(233,225,o),
(313,241,o),
(369,250,c),
(430,259,o),
(430,203,o),
(430,203,c),
(430,120,o),
(375,80,o),
(280,80,cs),
(201,80,o),
(151,90,o),
(140,100,c),
(140,200,l),
(40,200,l),
(40,187,o),
(120,0,o),
(290,0,cs)
);
},
{
closed = 1;
nodes = (
(291,-120,l),
(230,-51,o),
(189,15,o),
(140,100,c),
(82,120,l),
(138,26,o),
(152,-39,o),
(180,-120,c)
);
},
{
closed = 1;
nodes = (
(610,620,l),
(540,700,l),
(-90,700,l),
(-20,620,l)
);
}
);
width = 520;
},
{
layerId = "A45B8B48-B1A0-4768-860A-A9A091AD15CC";
shapes = (
{
closed = 1;
nodes = (
(401,0,o),
(490,54,o),
(490,159,cs),
(490,249,o),
(421,341,o),
(360,330,cs),
(190,300,l),
(158,300,o),
(130,335,o),
(130,375,cs),
(130,416,o),
(159,440,o),
(211,440,cs),
(440,440,l),
(440,660,l),
(360,660,l),
(360,520,l),
(211,520,ls),
(129,520,o),
(70,478,o),
(70,420,cs),
(70,348,o),
(162,225,o),
(214,225,cs),
(233,225,o),
(313,241,o),
(369,250,c),
(430,259,o),
(430,203,o),
(430,203,c),
(430,120,o),
(375,80,o),
(280,80,cs),
(201,80,o),
(151,90,o),
(140,100,c),
(140,200,l),
(40,200,l),
(40,191,o),
(73,116,o),
(140,55,c),
(158,52,l),
(193,22,o),
(237,0,o),
(290,0,cs)
);
},
{
closed = 1;
nodes = (
(310,-120,l),
(130,90,l),
(125,69,l),
(190,-120,l)
);
},
{
closed = 1;
nodes = (
(610,620,l),
(540,700,l),
(-90,700,l),
(-20,620,l)
);
}
);
width = 520;
}
);
unicode = 2311;
},
{
color = 7;
glyphname = "ii-deva";
layers = (
{
layerId = "7D96EDF2-9291-42EB-8A89-114070E423BA";
associatedMasterId = "A45B8B48-B1A0-4768-860A-A9A091AD15CC";
name = Regular2;
shapes = (
{
closed = 0;
nodes = (
(80,200,l),
(80,100,o),
(150,40,o),
(281,40,cs),
(396,40,o),
(460,86,o),
(460,169,cs),
(460,240,o),
(414,280,o),
(330,280,cs),
(220,280,ls),
(145,280,o),
(100,318,o),
(100,380,cs),
(100,442,o),
(145,480,o),
(220,480,cs),
(400,480,l),
(400,661,l)
);
},
{
closed = 0;
nodes = (
(80,200,l),
(80,150,o),
(80,-32,o),
(80,-119,c)
);
},
{
closed = 0;
nodes = (
(437,661,l),
(373,720,o),
(325,750,o),
(325,829,cs),
(325,913,o),
(388,959,o),
(505,959,c)
);
},
{
closed = 1;
nodes = (
(120,200,l),
(120,105,o),
(198,80,o),
(281,80,cs),
(417,80,o),
(420,146,o),
(420,169,cs),
(420,203,o),
(408,240,o),
(330,240,cs),
(220,240,ls),
(120,240,o),
(60,298,o),
(60,380,cs),
(60,462,o),
(120,520,o),
(220,520,cs),
(360,520,l),
(360,661,l),
(440,661,l),
(440,440,l),
(220,440,l),
(180,440,o),
(140,427,o),
(140,380,cs),
(140,333,o),
(178,320,o),
(220,320,cs),
(330,320,ls),
(440,320,o),
(500,259,o),
(500,169,cs),
(500,76,o),
(434,0,o),
(281,0,cs),
(123,0,o),
(40,82,o),
(40,200,c)
);
},
{
closed = 1;
nodes = (
(120,200,l),
(120,-119,l),
(40,-119,l),
(40,200,l)
);
},
{
closed = 1;
nodes = (
(412,634,l),
(359,683,o),
(285,723,o),
(285,829,cs),
(285,946,o),
(379,999,o),
(505,999,c),
(505,919,l),
(397,919,o),
(365,880,o),
(365,829,cs),
(365,772,o),
(415,717,o),
(455,681,c)
);
},
{
attr = {
strokeWidth = 76;
};
closed = 0;
nodes = (
(-16,660,l),
(623,660,l)
);
}
);
width = 541;
},
{
guides = (
{
position = "{0, 5374}";
}
);
layerId = "A45B8B48-B1A0-4768-860A-A9A091AD15CC";
shapes = (
{
closed = 1;
nodes = (
(467,887,o),
(540,823,o),
(540,824,c),
(540,824,o),
(540,971,o),
(540,971,c),
(527,975,o),
(485,980,o),
(459,980,cs),
(367,980,o),
(300,916,o),
(300,827,cs),
(300,711,o),
(429,660,o),
(425,662,c),
(445,662,l),
(426,669,o),
(380,721,o),
(380,825,cs),
(380,875,o),
(403,900,o),
(450,900,c)
);
},
{
alignment = -1;
ref = "i-deva";
}
);
width = 520;
}
);
unicode = 2312;
},
{
color = 7;
glyphname = "u-deva";
layers = (
{
layerId = "7D96EDF2-9291-42EB-8A89-114070E423BA";
associatedMasterId = "A45B8B48-B1A0-4768-860A-A9A091AD15CC";
name = Regular2;
shapes = (
{
closed = 0;
nodes = (
(160,360,l),
(273,360,o),
(384,390,o),
(384,511,cs),
(384,611,o),
(310,658,o),
(243,658,c)
);
},
{
closed = 0;
nodes = (
(80,183,l),
(80,83,o),
(162,41,o),
(247,41,cs),
(343,41,o),
(424,94,o),
(424,205,cs),
(424,361,o),
(261,361,o),
(180,360,c)
);
},
{
closed = 1;
nodes = (
(160,400,l),
(276,400,o),
(344,431,o),
(344,511,cs),
(344,605,o),
(266,622,o),
(243,622,c),
(243,698,l),
(333,698,o),
(424,632,o),
(424,511,cs),
(424,349,o),
(270,320,o),
(160,320,c)
);
},
{
closed = 1;
nodes = (
(120,183,l),
(120,115,o),
(172,81,o),
(247,81,cs),
(328,81,o),
(384,122,o),
(384,205,cs),
(384,301,o),
(306,322,o),
(180,320,c),
(180,400,l),
(252,401,o),
(464,406,o),
(464,205,cs),
(464,66,o),
(358,1,o),
(247,1,cs),
(152,1,o),
(40,51,o),
(40,183,c)
);
},
{
attr = {
strokeWidth = 76;
};
closed = 0;
nodes = (
(-16,660,l),
(544,660,l)
);
}
);
width = 500;
},
{
layerId = "A45B8B48-B1A0-4768-860A-A9A091AD15CC";
shapes = (
{
closed = 1;
nodes = (
(-90,700,l),
(-20,620,l),
(590,620,l),
(520,700,l)
);
},
{
closed = 1;
nodes = (
(140,241,l),
(41,241,l),
(41,155,o),
(171,0,o),
(282,0,cs),
(383,0,o),
(470,69,o),
(470,180,cs),
(470,287,o),
(411,368,o),
(319,368,c),
(309,345,l),
(365,346,o),
(393,302,o),
(393,213,cs),
(393,125,o),
(355,80,o),
(246,80,cs),
(165,80,o),
(140,115,o),
(140,115,c)
);
},
{
closed = 1;
nodes = (
(284,635,l),
(309,635,o),
(363,591,o),
(363,512,cs),
(363,450,o),
(338,395,o),
(187,395,c),
(240,300,l),
(347,300,o),
(428,377,o),
(428,482,cs),
(428,568,o),
(381,607,o),
(347,632,c)
);
}
);
width = 500;
}
);
unicode = 2313;
},
{
color = 7;
glyphname = "uu-deva";
layers = (
{
layerId = "7D96EDF2-9291-42EB-8A89-114070E423BA";
associatedMasterId = "A45B8B48-B1A0-4768-860A-A9A091AD15CC";
name = Regular2;
shapes = (
{
closed = 0;
nodes = (
(378,308,l),
(414,344,o),
(456,359,o),
(495,359,cs),
(586,358,o),
(629,308,o),
(629,234,cs),
(629,181,o),
(582,122,o),
(536,60,c)
);
},
{
closed = 0;
nodes = (
(160,361,l),
(273,361,o),
(384,390,o),
(384,511,cs),
(384,611,o),
(310,658,o),
(243,658,c)
);
},
{
closed = 0;
nodes = (
(80,183,l),
(80,83,o),
(162,41,o),
(247,41,cs),
(343,41,o),
(424,94,o),
(424,205,cs),
(424,361,o),
(261,362,o),
(180,361,c)
);
},
{
closed = 1;
nodes = (
(350,336,l),
(394,380,o),
(446,399,o),
(495,399,cs),
(610,398,o),
(669,328,o),
(669,234,cs),
(669,175,o),
(629,119,o),
(586,60,c),
(486,60,l),
(536,128,o),
(589,191,o),
(589,234,cs),
(589,282,o),
(568,318,o),
(495,319,c),
(461,319,o),
(430,303,o),
(406,280,c)
);
},
{
closed = 1;
nodes = (
(160,401,l),
(276,401,o),
(344,431,o),
(344,511,cs),
(344,588,o),
(290,619,o),
(243,622,c),
(243,698,l),
(333,698,o),
(424,632,o),
(424,511,cs),
(424,433,o),
(385,321,o),
(160,321,c)
);
},
{
closed = 1;
nodes = (
(120,183,l),
(120,115,o),
(172,81,o),
(247,81,cs),
(328,81,o),
(384,122,o),
(384,205,cs),
(384,302,o),
(306,323,o),
(180,321,c),
(180,401,l),
(244,402,o),
(464,407,o),
(464,205,cs),
(464,74,o),
(368,1,o),
(247,1,cs),
(134,1,o),
(40,64,o),
(40,183,c)
);
},
{
attr = {
strokeWidth = 76;
};
closed = 0;
nodes = (
(-16,660,l),
(769,660,l)
);
}
);
width = 680;
},
{
layerId = "A45B8B48-B1A0-4768-860A-A9A091AD15CC";
shapes = (
{
closed = 1;
nodes = (
(-90,700,l),
(-20,620,l),
(750,620,l),
(680,700,l)
);
},
{
closed = 1;
nodes = (
(140,241,l),
(41,241,l),
(41,155,o),
(171,0,o),
(282,0,cs),
(383,0,o),
(470,69,o),
(470,180,cs),
(470,287,o),
(411,368,o),
(319,368,c),
(309,345,l),
(365,346,o),
(393,302,o),
(393,213,cs),
(393,125,o),
(355,80,o),
(246,80,cs),
(165,80,o),
(140,115,o),
(140,115,c)
);
},
{
closed = 1;
nodes = (
(284,635,l),
(309,635,o),
(363,591,o),
(363,512,cs),
(363,450,o),
(338,395,o),
(187,395,c),
(240,300,l),
(347,300,o),
(428,377,o),
(428,482,cs),
(428,568,o),
(381,607,o),
(347,632,c)
);
},
{
closed = 1;
nodes = (
(420,300,l),
(429,316,o),
(466,326,o),
(517,326,cs),
(599,326,o),
(610,296,o),
(610,254,cs),
(610,188,o),
(576,137,o),
(520,118,c),
(620,40,l),
(648,107,o),
(660,160,o),
(660,212,cs),
(660,324,o),
(609,383,o),
(494,383,cs),
(450,383,o),
(411,373,o),
(377,352,c)
);
}
);
width = 680;
}
);
unicode = 2314;
},
{
color = 7;
glyphname = "e-deva";
layers = (
{
layerId = "7D96EDF2-9291-42EB-8A89-114070E423BA";
associatedMasterId = "A45B8B48-B1A0-4768-860A-A9A091AD15CC";
name = Regular2;
width = 485;
},
{
layerId = "A70495CA-A1F3-4BBE-A49E-F7D9FC67BD48";
associatedMasterId = "A45B8B48-B1A0-4768-860A-A9A091AD15CC";
name = "15 May 26 at 17:17";
shapes = (
{
closed = 1;
nodes = (
(-90,700,l),
(540,700,l),
(610,620,l),
(-20,620,l)
);
},
{
closed = 1;
nodes = (
(400,628,l),
(400,392,l),
(400,310,o),
(374,300,o),
(304,300,cs),
(284,300,o),
(260,300,o),
(260,300,c),
(260,300,o),
(280,260,o),
(280,260,c),
(335,244,o),
(345,240,o),
(365,240,cs),
(447,240,o),
(480,296,o),
(480,370,c),
(480,629,l)
);
},
{
closed = 1;
nodes = (
(80,640,l),
(160,640,l),
(160,270,ls),
(160,200,o),
(208,141,o),
(271,100,c),
(410,100,l),
(410,-20,l),
(228,30,o),
(80,173,o),
(80,300,cs)
);
}
);
width = 520;
},
{
layerId = "A45B8B48-B1A0-4768-860A-A9A091AD15CC";
shapes = (
{
closed = 1;
nodes = (
(-90,700,l),
(540,700,l),
(610,620,l),
(-20,620,l)
);
},
{
closed = 1;
nodes = (
(400,628,l),
(480,629,l),
(480,370,l),
(480,296,o),
(447,240,o),
(365,240,cs),
(345,240,o),
(335,244,o),
(280,260,c),
(280,260,o),
(280,300,o),
(280,300,c),
(280,300,o),
(284,300,o),
(304,300,cs),
(374,300,o),
(400,310,o),
(400,392,c)
);
},
{
closed = 1;
nodes = (
(80,640,l),
(160,640,l),
(160,300,ls),
(160,209,o),
(217,133,o),
(291,80,c),
(460,80,l),
(460,-20,l),
(221,12,o),
(80,153,o),
(80,360,cs)
);
}
);
width = 520;
}
);
unicode = 2319;
},
{
color = 7;
glyphname = "ai-deva";
layers = (
{
anchors = (
{
name = _top;
position = "{-148, 660}";
}
);
layerId = "52BC0065-B0DE-4F12-BBAB-219F25598650";
associatedMasterId = "A45B8B48-B1A0-4768-860A-A9A091AD15CC";
name = "15 May 26 at 18:03";
shapes = (
{
alignment = -1;
pos = (293,0);
ref = "esign-deva";
}
);
width = 0;
},
{
layerId = "7D96EDF2-9291-42EB-8A89-114070E423BA";
associatedMasterId = "A45B8B48-B1A0-4768-860A-A9A091AD15CC";
name = Regular2;
shapes = (
{
alignment = -1;
pos = (174,0);
ref = "esign-deva";
}
);
width = 485;
},
{
layerId = "A45B8B48-B1A0-4768-860A-A9A091AD15CC";
shapes = (
{
closed = 1;
nodes = (
(-90,700,l),
(540,700,l),
(610,620,l),
(-20,620,l)
);
},
{
closed = 1;
nodes = (
(400,628,l),
(480,629,l),
(480,370,l),
(480,296,o),
(447,240,o),
(365,240,cs),
(345,240,o),
(335,244,o),
(280,260,c),
(280,260,o),
(280,300,o),
(280,300,c),
(280,300,o),
(284,300,o),
(304,300,cs),
(374,300,o),
(400,310,o),
(400,392,c)
);
},
{
closed = 1;
nodes = (
(80,640,l),
(160,640,l),
(160,300,ls),
(160,209,o),
(217,133,o),
(291,80,c),
(460,80,l),
(460,-20,l),
(221,12,o),
(80,153,o),
(80,360,cs)
);
},
{
alignment = -1;
pos = (585,0);
ref = "esign-deva";
}
);
width = 520;
}
);
unicode = 2320;
},
{
color = 7;
glyphname = "ocandra-deva";
layers = (
{
layerId = "7D96EDF2-9291-42EB-8A89-114070E423BA";
associatedMasterId = "A45B8B48-B1A0-4768-860A-A9A091AD15CC";
name = Regular2;
shapes = (
{
attr = {
strokeWidth = 80;
};
closed = 0;
nodes = (
(640,627,l),
(640,0,l)
);
},
{
attr = {
strokeWidth = 80;
};
closed = 0;
nodes = (
(438,660,l),
(983,660,l)
);
},
{
attr = {
strokeWidth = 80;
};
closed = 0;
nodes = (
(140,382,l),
(191,382,o),
(330,376,o),
(355,503,cs),
(395,700,o),
(103,717,o),
(103,561,c)
);
},
{
attr = {
strokeWidth = 80;
};
closed = 0;
nodes = (
(60,201,l),
(52,28,o),
(390,6,o),
(398,200,cs),
(405,377,o),
(239,384,o),
(157,383,c)
);
},
{
attr = {
strokeWidth = 80;
};
closed = 0;
nodes = (
(369,320,l),
(606,320,l)
);
},
{
attr = {
strokeWidth = 80;
};
closed = 0;
nodes = (
(839,627,l),
(839,0,l)
);
},
{
attr = {
strokeWidth = 80;
};
closed = 0;
nodes = (
(905,977,l),
(921,733,o),
(595,727,o),
(614,992,c)
);
}
);
width = 960;
},
{
layerId = "A45B8B48-B1A0-4768-860A-A9A091AD15CC";
shapes = (
{
closed = 1;
nodes = (
(445,700,l),
(1094,700,l),
(1164,620,l),
(515,620,l)
);
},
{
closed = 1;
nodes = (
(130,150,l),
(130,150,o),
(173,120,o),
(256,120,cs),
(360,120,o),
(396,160,o),
(396,244,cs),
(396,329,o),
(370,371,o),
(316,370,c),
(326,392,l),
(414,392,o),
(470,315,o),
(470,212,cs),
(470,106,o),
(387,40,o),
(290,40,cs),
(149,40,o),
(30,198,o),
(30,280,c),
(130,280,l)
);
},
{
closed = 1;
nodes = (
(199,630,o),
(170,581,o),
(170,570,c),
(98,650,l),
(121,681,o),
(167,700,o),
(221,700,cs),
(342,700,o),
(433,609,o),
(433,501,cs),
(433,401,o),
(352,330,o),
(250,330,c),
(190,430,l),
(334,430,o),
(368,470,o),
(368,530,cs),
(368,605,o),
(334,630,o),
(266,630,cs)
);
},
{
closed = 1;
nodes = (
(681,404,l),
(680,310,l),
(396,310,l),
(369,377,l)
);
},
{
closed = 1;
nodes = (
(619,66,l),
(623,381,l),
(613,663,l),
(705,663,l),
(697,352,l),
(699,66,l)
);
},
{
closed = 1;
nodes = (
(644,166,l),
(697,126,l),
(707,-20,l),
(703,-20,l),
(579,40,l),
(579,44,l)
);
},
{
closed = 1;
nodes = (
(861,66,l),
(865,381,l),
(855,663,l),
(947,663,l),
(939,352,l),
(941,66,l)
);
},
{
closed = 1;
nodes = (
(886,166,l),
(939,126,l),
(949,-20,l),
(945,-20,l),
(821,40,l),
(821,44,l)
);
},
{
closed = 1;
nodes = (
(970,945,l),
(970,831,o),
(909,770,o),
(797,770,cs),
(671,770,o),
(600,847,o),
(600,982,c),
(640,950,l),
(640,870,o),
(678,840,o),
(780,840,cs),
(878,840,o),
(900,866,o),
(900,980,c)
);
}
);
width = 960;
}
);
unicode = 2321;
},
{
color = 7;
glyphname = "o-deva";
leftMetricsKey = "=a-deva";
rightMetricsKey = "=osign-deva";
layers = (
{
layerId = "7D96EDF2-9291-42EB-8A89-114070E423BA";
associatedMasterId = "A45B8B48-B1A0-4768-860A-A9A091AD15CC";
name = Regular2;
shapes = (
{
closed = 0;
nodes = (
(919,0,l),
(919,667,l)
);
},
{
closed = 0;
nodes = (
(659,667,l),
(659,0,l)
);
},
{
closed = 0;
nodes = (
(160,380,l),
(271,380,o),
(380,405,o),
(380,525,cs),
(380,624,o),
(307,666,o),
(241,666,cs),
(179,666,o),
(120,630,o),
(120,560,c)
);
},
{
closed = 0;
nodes = (
(80,201,l),
(80,102,o),
(161,60,o),
(245,60,cs),
(340,60,o),
(420,113,o),
(420,222,cs),
(420,377,o),
(259,381,o),
(179,380,c)
);
},
{
closed = 0;
nodes = (
(919,647,l),
(919,778,o),
(837,920,o),
(699,920,c)
);
},
{
closed = 1;
nodes = (
(959,0,l),
(879,0,l),
(879,667,l),
(959,667,l)
);
},
{
closed = 1;
nodes = (
(619,667,l),
(699,667,l),
(699,0,l),
(619,0,l)
);
},
{
closed = 1;
nodes = (
(160,420,l),
(275,420,o),
(340,446,o),
(340,525,cs),
(340,597,o),
(291,626,o),
(241,626,cs),
(192,626,o),
(160,600,o),
(160,560,c),
(80,560,l),
(80,660,o),
(166,706,o),
(241,706,cs),
(323,706,o),
(420,651,o),
(420,525,cs),
(420,364,o),
(267,340,o),
(160,340,c)
);
},
{
closed = 1;
nodes = (
(120,201,l),
(120,134,o),
(171,100,o),
(245,100,cs),
(325,100,o),
(380,141,o),
(380,222,cs),
(380,301,o),
(331,342,o),
(180,340,c),
(179,420,l),
(237,421,o),
(460,426,o),
(460,222,cs),
(460,85,o),
(355,20,o),
(245,20,cs),
(151,20,o),
(40,70,o),
(40,201,c)
);
},
{
closed = 1;
nodes = (
(884,647,l),
(884,739,o),
(826,880,o),
(699,880,c),
(699,960,l),
(832,960,o),
(950,833,o),
(950,647,c)
);
},
{
attr = {
strokeWidth = 76;
};
closed = 0;
nodes = (
(500,660,l),
(1096,660,l)
);
},
{
attr = {
strokeWidth = 76;
};
closed = 0;
nodes = (
(347,341,l),
(626,341,l)
);
},
{
alignment = -1;
ref = "a-deva";
},
{
alignment = -1;
pos = (391,0);
ref = "osign-deva";
}
);
width = 1079;
},
{
layerId = "A45B8B48-B1A0-4768-860A-A9A091AD15CC";
shapes = (
{
alignment = -1;
pos = (21,21);
ref = Aa_bowl;
scale = (0.97,0.97);
},
{
alignment = -1;
ref = "a-deva";
},
{
alignment = -1;
pos = (781,0);
ref = "osign-deva";
}
);
width = 1081;
}
);
unicode = 2323;
},
{
color = 7;
glyphname = "au-deva";
leftMetricsKey = "=a-deva";
rightMetricsKey = "=aasign-deva";
layers = (
{
layerId = "7D96EDF2-9291-42EB-8A89-114070E423BA";
associatedMasterId = "A45B8B48-B1A0-4768-860A-A9A091AD15CC";
name = Regular2;
shapes = (
{
closed = 0;
nodes = (
(938,647,l),
(938,778,o),
(871,962,o),
(710,962,c)
);
},
{
closed = 0;
nodes = (
(931,672,l),
(886,751,o),
(762,830,o),
(668,830,c)
);
},
{
closed = 1;
nodes = (
(917,647,l),
(917,687,o),
(886,922,o),
(710,922,c),
(710,1002,l),
(880,1002,o),
(949,820,o),
(949,647,c)
);
},
{
closed = 1;
nodes = (
(911,661,l),
(893,693,o),
(791,790,o),
(668,790,c),
(668,870,l),
(774,870,o),
(894,766,o),
(943,679,c)
);
},
{
closed = 1;
nodes = (
(412,300,l),
(371,360,l),
(657,382,l),
(671,300,l)
);
},
{
closed = 1;
nodes = (
(445,700,l),
(1094,700,l),
(1164,620,l),
(515,620,l)
);
},
{
alignment = -1;
ref = "a-deva";
},
{
alignment = -1;
pos = (442,0);
ref = "ausign-deva";
}
);
width = 1081;
},
{
layerId = "A45B8B48-B1A0-4768-860A-A9A091AD15CC";
shapes = (
{
alignment = -1;
pos = (-13,0);
ref = stemserif;
},
{
alignment = -1;
pos = (227,0);
ref = stemserif;
},
{
alignment = -1;
pos = (-571,21);
ref = Aa_bowl;
scale = (0.97,0.97);
},
{
alignment = -1;
ref = "a-deva";
},
{
alignment = -1;
pos = (757,0);
ref = "ausign-deva";
}
);
width = 1057;
}
);
unicode = 2324;
},
{
color = 7;
glyphname = "ka-deva";
layers = (
{
layerId = "0F3680E8-5F59-4F32-9A2F-C60246F9E8CA";
associatedMasterId = "A45B8B48-B1A0-4768-860A-A9A091AD15CC";
name = "smallCounter-Test";
shapes = (
{
attr = {
strokeWidth = 80;
};
closed = 0;
nodes = (
(420,627,l),
(420,0,l)
);
},
{
attr = {
strokeWidth = 80;
};
closed = 0;
nodes = (
(-20,660,l),
(840,660,l)
);
},
{
attr = {
strokeWidth = 80;
strokeHeight = 76;
};
closed = 0;
nodes = (
(420,207,l),
(420,207,o),
(357,150,o),
(270,150,cs),
(157,150,o),
(100,224,o),
(100,310,cs),
(100,414,o),
(167,470,o),
(270,470,cs),
(325,470,o),
(385,448,o),
(420,394,c),
(446,442,o),
(506,470,o),
(570,470,cs),
(669,470,o),
(730,409,o),
(730,310,cs),
(730,211,o),
(669,150,o),
(570,150,cs),
(558,150,o),
(547,150,o),
(533,150,c)
);
}
);
width = 820;
},
{
guides = (
{
position = "{0, 310}";
}
);
layerId = "7D96EDF2-9291-42EB-8A89-114070E423BA";
associatedMasterId = "A45B8B48-B1A0-4768-860A-A9A091AD15CC";
name = Regular2;
shapes = (
{
attr = {
strokeWidth = 80;
};
closed = 0;
nodes = (
(420,660,l),
(420,0,l)
);
},
{
attr = {
strokeWidth = 80;
strokeHeight = 76;
};
closed = 0;
nodes = (
(-31,660,l),
(849,660,l)
);
},
{
attr = {
strokeWidth = 80;
strokeHeight = 76;
};
closed = 0;
nodes = (
(419,201,l),
(419,201,o),
(353,140,o),
(260,140,cs),
(148,140,o),
(80,204,o),
(80,310,cs),
(80,416,o),
(148,482,o),
(260,482,cs),
(319,482,o),
(381,458,o),
(419,401,c),
(453,458,o),
(512,480,o),
(580,480,cs),
(679,480,o),
(740,416,o),
(740,310,cs),
(740,204,o),
(679,140,o),
(580,140,cs),
(568,140,o),
(554,141,o),
(539,141,c)
);
}
);
width = 820;
},
{
anchors = (
{
name = right;
position = "{777, 325}";
},
{
name = top;
position = "{141, -1523}";
}
);
guides = (
{
position = "{0, 310}";
},
{
position = "{0, 660}";
}
);
layerId = "93637C23-AE38-4AE5-A30A-AF031EC9B104";
associatedMasterId = "A45B8B48-B1A0-4768-860A-A9A091AD15CC";
name = "15 May 26 at 18:24";
shapes = (
{
closed = 1;
nodes = (
(570,90,l),
(671,109,o),
(730,176,o),
(730,268,cs),
(730,379,o),
(645,480,o),
(538,480,cs),
(439,480,o),
(355,393,o),
(353,286,c),
(427,284,l),
(429,354,o),
(493,410,o),
(566,410,cs),
(639,410,o),
(680,353,o),
(680,301,cs),
(680,257,o),
(650,221,o),
(620,207,cs),
(592,193,o),
(524,180,o),
(511,180,c),
(511,180,o),
(517,180,o),
(510,180,c),
(510,178,l)
);
},
{
closed = 1;
nodes = (
(437,-20,l),
(427,126,l),
(374,166,l),
(309,44,l),
(309,40,l),
(433,-20,l)
);
},
{
closed = 1;
nodes = (
(378,130,o),
(427,230,o),
(427,308,c),
(357,308,l),
(357,247,o),
(297,200,o),
(220,200,cs),
(150,200,o),
(110,236,o),
(110,300,cs),
(110,384,o),
(166,434,o),
(259,434,cs),
(312,434,o),
(358,417,o),
(358,417,c),
(361,421,l),
(322,467,o),
(253,500,o),
(192,500,cs),
(115,500,o),
(40,444,o),
(40,330,cs),
(40,215,o),
(170,130,o),
(260,130,cs)
);
},
{
closed = 1;
nodes = (
(429,66,l),
(427,352,l),
(435,663,l),
(343,663,l),
(353,381,l),
(349,66,l)
);
},
{
closed = 1;
nodes = (
(860,620,l),
(790,700,l),
(-80,700,l),
(-10,620,l)
);
}
);
width = 770;
},
{
anchors = (
{
name = bottom;
position = "{460, 0}";
},
{
name = right;
position = "{777, 325}";
},
{
name = top;
position = "{141, -1523}";
},
{
name = left;
position = "{282, 1566}";
},
{
name = a5;
position = "{385, -2488}";
}
);
guides = (
{
position = "{0, 310}";
},
{
position = "{0, 660}";
},
{
position = "{0, -5676}";
}
);
layerId = "A45B8B48-B1A0-4768-860A-A9A091AD15CC";
shapes = (
{
closed = 1;
nodes = (
(570,90,l),
(671,109,o),
(730,176,o),
(730,268,cs),
(730,379,o),
(645,480,o),
(538,480,cs),
(439,480,o),
(355,393,o),
(353,286,c),
(427,284,l),
(429,354,o),
(493,410,o),
(566,410,cs),
(639,410,o),
(680,353,o),
(680,301,cs),
(680,257,o),
(650,221,o),
(620,207,cs),
(592,193,o),
(523,180,o),
(510,180,c),
(510,178,l)
);
},
{
closed = 1;
nodes = (
(437,-20,l),
(427,126,l),
(374,166,l),
(309,44,l),
(309,40,l),
(433,-20,l)
);
},
{
closed = 1;
nodes = (
(377,130,o),
(425,230,o),
(425,308,c),
(357,308,l),
(357,247,o),
(297,200,o),
(220,200,cs),
(150,200,o),
(110,236,o),
(110,300,cs),
(110,384,o),
(166,434,o),
(259,434,cs),
(308,434,o),
(349,421,o),
(358,417,c),
(361,421,l),
(322,467,o),
(253,500,o),
(192,500,cs),
(115,500,o),
(40,444,o),
(40,330,cs),
(40,215,o),
(170,130,o),
(260,130,cs)
);
},
{
closed = 1;
nodes = (
(429,66,l),
(427,352,l),
(435,663,l),
(343,663,l),
(353,381,l),
(349,66,l)
);
},
{
closed = 1;
nodes = (
(860,620,l),
(790,700,l),
(-90,700,l),
(-20,620,l)
);
}
);
width = 770;
}
);
unicode = 2325;
},
{
color = 7;
glyphname = "kha-deva";
layers = (
{
layerId = "7D96EDF2-9291-42EB-8A89-114070E423BA";
associatedMasterId = "A45B8B48-B1A0-4768-860A-A9A091AD15CC";
name = Regular2;
shapes = (
{
attr = {
strokeWidth = 80;
};
closed = 0;
nodes = (
(640,660,l),
(640,0,l)
);
},
{
attr = {
strokeWidth = 80;
strokeHeight = 76;
};
closed = 0;
nodes = (
(-29,660,l),
(214,660,o),
(558,660,o),
(801,660,c)
);
},
{
attr = {
strokeWidth = 80;
strokeHeight = 76;
};
closed = 0;
nodes = (
(640,320,l),
(623,270,o),
(570,230,o),
(512,230,cs),
(440,230,o),
(370,284,o),
(370,370,c),
(370,449,o),
(430,510,o),
(509,510,cs),
(570,510,o),
(622,470,o),
(640,420,c)
);
},
{
attr = {
strokeWidth = 80;
strokeHeight = 76;
};
closed = 0;
nodes = (
(80,420,l),
(80,220,o),
(190,80,o),
(380,80,cs),
(505,80,o),
(605,141,o),
(642,240,c)
);
},
{
attr = {
strokeWidth = 80;
strokeHeight = 76;
};
closed = 0;
nodes = (
(80,660,l),
(192,660,o),
(260,603,o),
(260,510,cs),
(260,417,o),
(192,360,o),
(80,360,c)
);
}
);
width = 780;
},
{
anchors = (
{
name = top;
position = "{622, 700}";
},
{
name = bottom;
position = "{680, 0}";
}
);
layerId = "A45B8B48-B1A0-4768-860A-A9A091AD15CC";
shapes = (
{
closed = 1;
nodes = (
(585,60,o),
(661,217,o),
(661,326,c),
(587,329,l),
(587,250,o),
(521,140,o),
(349,140,cs),
(204,140,o),
(118,250,o),
(118,355,c),
(40,382,l),
(40,368,l),
(73,196,o),
(226,60,o),
(389,60,cs)
);
},
{
closed = 1;
nodes = (
(600,190,o),
(649,231,o),
(649,299,c),
(589,299,l),
(589,261,o),
(567,230,o),
(539,230,cs),
(461,230,o),
(399,284,o),
(399,350,cs),
(399,405,o),
(434,430,o),
(504,430,cs),
(555,430,o),
(590,419,o),
(590,419,c),
(592,424,l),
(565,466,o),
(503,500,o),
(449,500,cs),
(365,500,o),
(319,441,o),
(319,367,cs),
(319,270,o),
(423,190,o),
(534,190,cs)
);
},
{
closed = 1;
nodes = (
(-20,620,l),
(850,620,l),
(780,700,l),
(-90,700,l)
);
},
{
closed = 1;
nodes = (
(663,66,l),
(661,352,l),
(669,663,l),
(577,663,l),
(587,381,l),
(583,66,l)
);
},
{
closed = 1;
nodes = (
(543,44,l),
(543,40,l),
(667,-20,l),
(671,-20,l),
(661,126,l),
(608,166,l)
);
},
{
closed = 1;
nodes = (
(123,650,l),
(188,618,o),
(216,558,o),
(216,490,cs),
(216,421,o),
(186,380,o),
(117,380,cs),
(92,380,o),
(50,381,o),
(37,382,c),
(48,335,l),
(65,320,o),
(104,307,o),
(138,307,cs),
(225,307,o),
(296,360,o),
(296,449,cs),
(296,529,o),
(248,604,o),
(150,650,c)
);
}
);
width = 770;
}
);
unicode = 2326;
},
{
color = 7;
glyphname = "ga-deva";
layers = (
{
layerId = "7D96EDF2-9291-42EB-8A89-114070E423BA";
associatedMasterId = "A45B8B48-B1A0-4768-860A-A9A091AD15CC";
name = Regular2;
shapes = (
{
attr = {
strokeWidth = 80;
};
closed = 0;
nodes = (
(440,660,l),
(440,0,l)
);
},
{
attr = {
strokeWidth = 80;
strokeHeight = 76;
};
closed = 0;
nodes = (
(-20,660,l),
(600,660,l)
);
},
{
attr = {
strokeWidth = 80;
strokeHeight = 76;
};
closed = 0;
nodes = (
(160,660,l),
(160,340,ls),
(160,260,o),
(120,240,o),
(40,240,c)
);
}
);
width = 580;
},
{
anchors = (
{
name = top;
position = "{478, 700}";
},
{
name = bottom;
position = "{520, 0}";
}
);
layerId = "A45B8B48-B1A0-4768-860A-A9A091AD15CC";
shapes = (
{
closed = 1;
nodes = (
(220,664,l),
(220,140,l),
(216,140,l),
(30,316,l),
(30,320,l),
(140,320,l),
(140,664,l)
);
},
{
closed = 1;
nodes = (
(-90,700,l),
(640,700,l),
(710,620,l),
(-20,620,l)
);
},
{
closed = 1;
nodes = (
(440,66,l),
(444,381,l),
(434,663,l),
(526,663,l),
(518,352,l),
(520,66,l)
);
},
{
closed = 1;
nodes = (
(465,166,l),
(518,126,l),
(528,-20,l),
(524,-20,l),
(400,40,l),
(400,44,l)
);
}
);
width = 620;
}
);
unicode = 2327;
},
{
color = 7;
glyphname = "gha-deva";
layers = (
{
layerId = "7D96EDF2-9291-42EB-8A89-114070E423BA";
associatedMasterId = "A45B8B48-B1A0-4768-860A-A9A091AD15CC";
name = Regular2;
shapes = (
{
attr = {
strokeWidth = 80;
strokeHeight = 76;
};
closed = 0;
nodes = (
(-20,660,l),
(710,660,l)
);
},
{
attr = {
strokeWidth = 80;
};
closed = 0;
nodes = (
(540,660,l),
(540,0,l)
);
},
{
attr = {
strokeWidth = 80;
strokeHeight = 76;
};
closed = 0;
nodes = (
(310,420,l),
(296,420,o),
(252,420,o),
(240,420,cs),
(139,420,o),
(80,465,o),
(80,540,cs),
(80,615,o),
(133,660,o),
(220,660,c)
);
},
{
attr = {
strokeWidth = 80;
strokeHeight = 76;
};
closed = 0;
nodes = (
(540,360,l),
(540,230,o),
(457,160,o),
(320,160,cs),
(208,160,o),
(140,213,o),
(140,300,cs),
(140,375,o),
(193,420,o),
(280,420,cs),
(293,420,o),
(317,420,o),
(320,420,c)
);
}
);
width = 680;
},
{
anchors = (
{
name = top;
position = "{543, 700}";
},
{
name = bottom;
position = "{580, 0}";
}
);
layerId = "A45B8B48-B1A0-4768-860A-A9A091AD15CC";
shapes = (
{
closed = 1;
nodes = (
(589,-20,l),
(579,126,l),
(526,166,l),
(461,44,l),
(461,40,l),
(585,-20,l)
);
},
{
closed = 1;
nodes = (
(173,427,l),
(145,437,o),
(120,488,o),
(120,535,cs),
(120,590,o),
(157,622,o),
(220,622,c),
(220,698,l),
(114,698,o),
(40,640,o),
(40,557,cs),
(40,445,o),
(177,418,o),
(173,420,c)
);
},
{
closed = 1;
nodes = (
(581,66,l),
(579,352,l),
(587,663,l),
(495,663,l),
(505,381,l),
(501,66,l)
);
},
{
closed = 1;
nodes = (
(770,620,l),
(700,700,l),
(-90,700,l),
(-20,620,l)
);
},
{
closed = 1;
nodes = (
(505,370,l),
(505,261,o),
(433,190,o),
(311,190,cs),
(232,190,o),
(170,220,o),
(170,288,cs),
(170,342,o),
(208,380,o),
(268,380,cs),
(340,380,l),
(280,480,l),
(168,463,o),
(100,401,o),
(100,318,cs),
(100,207,o),
(222,120,o),
(353,120,cs),
(494,120,o),
(579,220,o),
(579,370,c)
);
}
);
width = 680;
}
);
unicode = 2328;
},
{
color = 7;
glyphname = "nga-deva";
layers = (
{
layerId = "7D96EDF2-9291-42EB-8A89-114070E423BA";
associatedMasterId = "A45B8B48-B1A0-4768-860A-A9A091AD15CC";
name = Regular2;
shapes = (
{
attr = {
strokeWidth = 80;
};
closed = 0;
nodes = (
(540,280,l),
(620,280,l)
);
},
{
attr = {
strokeWidth = 80;
};
closed = 0;
nodes = (
(420,661,l),
(420,480,l),
(240,480,ls),
(165,480,o),
(120,442,o),
(120,380,cs),
(120,318,o),
(165,280,o),
(240,280,cs),
(350,280,ls),
(434,280,o),
(480,240,o),
(480,170,cs),
(480,86,o),
(416,40,o),
(300,40,cs),
(170,40,o),
(100,100,o),
(100,200,c)
);
},
{
attr = {
strokeWidth = 76;
};
closed = 0;
nodes = (
(-20,660,l),
(640,660,l)
);
}
);
width = 620;
},
{
anchors = (
{
name = top;
position = "{395, 700}";
}
);
guides = (
{
position = "{0, 553}";
}
);
layerId = "A45B8B48-B1A0-4768-860A-A9A091AD15CC";
shapes = (
{
closed = 1;
nodes = (
(400,0,o),
(489,54,o),
(489,159,cs),
(489,249,o),
(420,341,o),
(359,330,cs),
(189,300,l),
(157,300,o),
(129,335,o),
(129,375,cs),
(129,416,o),
(158,440,o),
(210,440,cs),
(439,440,l),
(439,660,l),
(359,660,l),
(359,520,l),
(210,520,ls),
(128,520,o),
(69,478,o),
(69,420,cs),
(69,348,o),
(161,225,o),
(213,225,cs),
(232,225,o),
(312,241,o),
(368,250,c),
(429,259,o),
(429,203,o),
(429,203,c),
(429,120,o),
(374,80,o),
(279,80,cs),
(200,80,o),
(150,90,o),
(139,100,c),
(139,200,l),
(39,200,l),
(39,187,o),
(119,0,o),
(289,0,cs)
);
},
{
closed = 1;
nodes = (
(600,280,l),
(543,337,l),
(488,280,l),
(545,223,l)
);
},
{
closed = 1;
nodes = (
(690,620,l),
(620,700,l),
(-90,700,l),
(-20,620,l)
);
}
);
width = 600;
}
);
unicode = 2329;
},
{
color = 7;
glyphname = "ca-deva";
layers = (
{
layerId = "7D96EDF2-9291-42EB-8A89-114070E423BA";
associatedMasterId = "A45B8B48-B1A0-4768-860A-A9A091AD15CC";
name = Regular2;
shapes = (
{
attr = {
strokeWidth = 80;
};
closed = 0;
nodes = (
(520,661,l),
(520,0,l)
);
},
{
attr = {
strokeWidth = 80;
};
closed = 0;
nodes = (
(520,360,l),
(520,230,o),
(456,160,o),
(330,160,cs),
(204,160,o),
(160,231,o),
(160,300,cs),
(160,377,o),
(212,420,o),
(300,420,c)
);
},
{
attr = {
strokeWidth = 76;
};
closed = 0;
nodes = (
(-60,660,l),
(699,660,l)
);
},
{
attr = {
strokeWidth = 76;
};
closed = 0;
nodes = (
(20,420,l),
(340,420,l)
);
}
);
width = 660;
},
{
anchors = (
{
name = top;
position = "{521, 700}";
},
{
name = bottom;
position = "{560, 0}";
}
);
layerId = "A45B8B48-B1A0-4768-860A-A9A091AD15CC";
shapes = (
{
closed = 1;
nodes = (
(483,339,l),
(483,245,o),
(420,190,o),
(310,190,cs),
(232,190,o),
(196,218,o),
(196,279,cs),
(196,343,o),
(235,383,o),
(298,383,c),
(209,448,l),
(209,448,o),
(126,417,o),
(126,321,cs),
(126,211,o),
(230,120,o),
(363,120,cs),
(486,120,o),
(558,201,o),
(558,340,c)
);
},
{
closed = 1;
nodes = (
(68,380,l),
(370,380,l),
(330,450,l),
(27,450,l)
);
},
{
closed = 1;
nodes = (
(-20,620,l),
(750,620,l),
(680,700,l),
(-90,700,l)
);
},
{
closed = 1;
nodes = (
(560,66,l),
(558,352,l),
(566,663,l),
(474,663,l),
(484,381,l),
(480,66,l)
);
},
{
closed = 1;
nodes = (
(440,44,l),
(440,40,l),
(564,-20,l),
(568,-20,l),
(558,126,l),
(505,166,l)
);
}
);
width = 660;
}
);
unicode = 2330;
},
{
color = 7;
glyphname = "cha-deva";
layers = (
{
layerId = "7D96EDF2-9291-42EB-8A89-114070E423BA";
associatedMasterId = "A45B8B48-B1A0-4768-860A-A9A091AD15CC";
name = Regular2;
shapes = (
{
attr = {
strokeWidth = 80;
};
closed = 0;
nodes = (
(550,415,l),
(550,660,l)
);
},
{
attr = {
strokeWidth = 80;
};
closed = 0;
nodes = (
(300,380,l),
(264,380,ls),
(150,380,o),
(79,424,o),
(80,520,cs),
(81,607,o),
(140,660,o),
(240,660,c)
);
},
{
attr = {
strokeWidth = 80;
};
closed = 0;
nodes = (
(299,380,l),
(215,380,o),
(140,324,o),
(140,221,cs),
(140,107,o),
(233,40,o),
(378,40,cs),
(553,40,o),
(663,137,o),
(663,300,c),
(663,392,o),
(619,440,o),
(545,440,cs),
(469,440,o),
(430,390,o),
(430,324,cs),
(430,256,o),
(470,200,o),
(550,200,c),
(620,200,o),
(663,240,o),
(663,324,c)
);
},
{
attr = {
strokeWidth = 76;
};
closed = 0;
nodes = (
(-20,660,l),
(756,660,l)
);
}
);
width = 741;
},
{
anchors = (
{
name = bottom;
position = "{500, 0}";
},
{
name = left;
position = "{-222, 350}";
},
{
name = right;
position = "{700, 325}";
},
{
name = top;
position = "{529, 700}";
}
);
layerId = "A45B8B48-B1A0-4768-860A-A9A091AD15CC";
shapes = (
{
closed = 1;
nodes = (
(-90,700,l),
(-20,620,l),
(792,620,l),
(722,700,l)
);
},
{
closed = 1;
nodes = (
(226,380,l),
(170,388,o),
(120,455,o),
(120,520,cs),
(120,583,o),
(166,622,o),
(240,622,c),
(160,687,l),
(96,687,o),
(40,617,o),
(40,537,cs),
(40,440,o),
(115,373,o),
(225,373,cs),
(226,373,l)
);
},
{
closed = 1;
nodes = (
(558,256,l),
(504,273,o),
(450,282,o),
(450,353,cs),
(450,408,o),
(473,439,o),
(515,439,cs),
(568,439,o),
(600,390,o),
(600,309,cs),
(600,203,o),
(513,80,o),
(343,80,cs),
(230,80,o),
(170,128,o),
(170,220,cs),
(170,285,o),
(226,320,o),
(320,320,c),
(260,420,l),
(170,412,o),
(90,347,o),
(90,256,cs),
(90,118,o),
(244,0,o),
(386,0,cs),
(565,0,o),
(670,129,o),
(670,270,cs),
(670,387,o),
(606,480,o),
(505,480,cs),
(431,480,o),
(380,436,o),
(380,371,cs),
(380,282,o),
(488,240,o),
(559,217,c)
);
},
{
closed = 1;
nodes = (
(576,660,l),
(488,660,l),
(492,463,l),
(572,463,l)
);
}
);
width = 700;
}
);
unicode = 2331;
},
{
color = 7;
glyphname = "ja-deva";
layers = (
{
layerId = "7D96EDF2-9291-42EB-8A89-114070E423BA";
associatedMasterId = "A45B8B48-B1A0-4768-860A-A9A091AD15CC";
name = Regular2;
shapes = (
{
attr = {
strokeWidth = 80;
};
closed = 0;
nodes = (
(640,661,l),
(640,1,l)
);
},
{
attr = {
strokeWidth = 80;
};
closed = 0;
nodes = (
(80,400,l),
(80,300,o),
(123,140,o),
(280,140,cs),
(366,140,o),
(430,195,o),
(430,290,cs),
(430,362,o),
(396,420,o),
(280,420,c)
);
},
{
attr = {
strokeWidth = 76;
};
closed = 0;
nodes = (
(-60,660,l),
(-60,660,o),
(799,660,o),
(799,660,c)
);
},
{
attr = {
strokeWidth = 76;
};
closed = 0;
nodes = (
(280,421,l),
(620,420,l)
);
}
);
width = 780;
},
{
layerId = "4DC423D7-2FBD-47C0-913E-FF57B6DD9D5D";
associatedMasterId = "A45B8B48-B1A0-4768-860A-A9A091AD15CC";
name = "15 May 26 at 18:54";
shapes = (
{
closed = 1;
nodes = (
(501,66,l),
(505,381,l),
(495,663,l),
(587,663,l),
(579,352,l),
(581,66,l)
);
},
{
closed = 1;
nodes = (
(526,166,l),
(579,126,l),
(589,-20,l),
(585,-20,l),
(461,40,l),
(461,44,l)
);
},
{
closed = 1;
nodes = (
(-131,700,l),
(753,700,l),
(823,620,l),
(-61,620,l)
);
},
{
closed = 1;
nodes = (
(248,380,l),
(201,450,l),
(523,450,l),
(579,380,l)
);
},
{
closed = 1;
nodes = (
(112,120,o),
(41,233,o),
(41,450,c),
(45,450,l),
(141,364,l),
(141,360,l),
(88,290,l),
(88,236,o),
(145,200,o),
(230,200,cs),
(310,200,o),
(344,231,o),
(344,303,cs),
(344,354,o),
(328,372,o),
(318,387,c),
(329,388,l),
(376,363,o),
(404,315,o),
(404,259,cs),
(404,175,o),
(341,120,o),
(247,120,cs)
);
}
);
width = 680;
},
{
layerId = "3467A2E0-BC7C-419A-8F2A-826657A07894";
associatedMasterId = "A45B8B48-B1A0-4768-860A-A9A091AD15CC";
name = "15 May 26 at 17:22";
shapes = (
{
closed = 1;
nodes = (
(501,66,l),
(505,381,l),
(495,663,l),
(587,663,l),
(579,352,l),
(581,66,l)
);
},
{
closed = 1;
nodes = (
(526,166,l),
(579,126,l),
(589,-20,l),
(585,-20,l),
(461,40,l),
(461,44,l)
);
},
{
closed = 1;
nodes = (
(-131,700,l),
(753,700,l),
(823,620,l),
(-61,620,l)
);
},
{
closed = 1;
nodes = (
(248,380,l),
(201,450,l),
(523,450,l),
(579,380,l)
);
},
{
closed = 1;
nodes = (
(132,120,o),
(61,216,o),
(1,400,c),
(5,400,l),
(125,400,l),
(125,396,l),
(125,230,l),
(143,212,o),
(182,200,o),
(230,200,cs),
(310,200,o),
(344,231,o),
(344,303,cs),
(344,354,o),
(328,372,o),
(318,387,c),
(329,388,l),
(376,363,o),
(404,315,o),
(404,259,cs),
(404,175,o),
(341,120,o),
(247,120,cs)
);
},
{
closed = 1;
nodes = (
(501,66,l),
(505,381,l),
(495,663,l),
(587,663,l),
(579,352,l),
(581,66,l)
);
},
{
closed = 1;
nodes = (
(526,166,l),
(579,126,l),
(589,-20,l),
(585,-20,l),
(461,40,l),
(461,44,l)
);
},
{
closed = 1;
nodes = (
(-131,700,l),
(753,700,l),
(823,620,l),
(-61,620,l)
);
},
{
closed = 1;
nodes = (
(248,380,l),
(201,450,l),
(523,450,l),
(579,380,l)
);
},
{
closed = 1;
nodes = (
(132,120,o),
(61,216,o),
(1,400,c),
(5,400,l),
(125,400,l),
(125,396,l),
(125,230,l),
(143,212,o),
(182,200,o),
(230,200,cs),
(310,200,o),
(344,231,o),
(344,303,cs),
(344,354,o),
(328,372,o),
(318,387,c),
(329,388,l),
(376,363,o),
(404,315,o),
(404,259,cs),
(404,175,o),
(341,120,o),
(247,120,cs)
);
},
{
closed = 1;
nodes = (
(501,66,l),
(505,381,l),
(495,663,l),
(587,663,l),
(579,352,l),
(581,66,l)
);
},
{
closed = 1;
nodes = (
(526,166,l),
(579,126,l),
(589,-20,l),
(585,-20,l),
(461,40,l),
(461,44,l)
);
},
{
closed = 1;
nodes = (
(-131,700,l),
(753,700,l),
(823,620,l),
(-61,620,l)
);
},
{
closed = 1;
nodes = (
(248,380,l),
(201,450,l),
(523,450,l),
(579,380,l)
);
},
{
closed = 1;
nodes = (
(132,120,o),
(61,216,o),
(1,400,c),
(5,400,l),
(125,400,l),
(125,396,l),
(125,230,l),
(143,212,o),
(182,200,o),
(230,200,cs),
(310,200,o),
(344,231,o),
(344,303,cs),
(344,354,o),
(328,372,o),
(318,387,c),
(329,388,l),
(376,363,o),
(404,315,o),
(404,259,cs),
(404,175,o),
(341,120,o),
(247,120,cs)
);
}
);
width = 680;
},
{
layerId = "7FE75DB8-631D-4216-BB6D-FF619B6A06CF";
associatedMasterId = "A45B8B48-B1A0-4768-860A-A9A091AD15CC";
name = "15 May 26 at 17:19";
shapes = (
{
closed = 1;
nodes = (
(501,66,l),
(505,381,l),
(495,663,l),
(587,663,l),
(579,352,l),
(581,66,l)
);
},
{
closed = 1;
nodes = (
(526,166,l),
(579,126,l),
(589,-20,l),
(585,-20,l),
(461,40,l),
(461,44,l)
);
},
{
closed = 1;
nodes = (
(-131,700,l),
(753,700,l),
(823,620,l),
(-61,620,l)
);
},
{
closed = 1;
nodes = (
(248,380,l),
(201,450,l),
(523,450,l),
(579,380,l)
);
},
{
closed = 1;
nodes = (
(112,120,o),
(41,233,o),
(1,450,c),
(5,450,l),
(105,450,l),
(105,446,l),
(105,260,l),
(126,222,o),
(172,200,o),
(230,200,cs),
(310,200,o),
(344,231,o),
(344,303,cs),
(344,354,o),
(328,372,o),
(318,387,c),
(329,388,l),
(376,363,o),
(404,315,o),
(404,259,cs),
(404,175,o),
(341,120,o),
(247,120,cs)
);
}
);
width = 680;
},
{
layerId = "30043BD2-BFA1-4A87-9985-99CA7B3DDE19";
associatedMasterId = "A45B8B48-B1A0-4768-860A-A9A091AD15CC";
name = 1;
shapes = (
{
closed = 1;
nodes = (
(501,66,l),
(505,381,l),
(495,663,l),
(587,663,l),
(579,352,l),
(581,66,l)
);
},
{
closed = 1;
nodes = (
(526,166,l),
(579,126,l),
(589,-20,l),
(585,-20,l),
(461,40,l),
(461,44,l)
);
},
{
closed = 1;
nodes = (
(-131,700,l),
(753,700,l),
(823,620,l),
(-61,620,l)
);
},
{
closed = 1;
nodes = (
(248,380,l),
(201,450,l),
(523,450,l),
(579,380,l)
);
},
{
closed = 1;
nodes = (
(122,120,o),
(51,233,o),
(10,450,c),
(14,450,l),
(151,364,l),
(151,360,l),
(96,280,l),
(115,232,o),
(169,200,o),
(230,200,cs),
(310,200,o),
(344,231,o),
(344,303,cs),
(344,354,o),
(328,372,o),
(318,387,c),
(329,388,l),
(376,363,o),
(404,315,o),
(404,259,cs),
(404,175,o),
(345,120,o),
(257,120,cs)
);
}
);
width = 680;
},
{
anchors = (
{
name = top;
position = "{542, 700}";
},
{
name = bottom;
position = "{578, 0}";
}
);
layerId = "A45B8B48-B1A0-4768-860A-A9A091AD15CC";
shapes = (
{
closed = 1;
nodes = (
(501,66,l),
(505,381,l),
(495,663,l),
(587,663,l),
(579,352,l),
(581,66,l)
);
},
{
closed = 1;
nodes = (
(526,166,l),
(579,126,l),
(589,-20,l),
(585,-20,l),
(461,40,l),
(461,44,l)
);
},
{
closed = 1;
nodes = (
(-131,700,l),
(753,700,l),
(823,620,l),
(-61,620,l)
);
},
{
closed = 1;
nodes = (
(248,380,l),
(201,450,l),
(523,450,l),
(579,380,l)
);
},
{
closed = 1;
nodes = (
(122,120,o),
(51,233,o),
(10,450,c),
(14,450,l),
(151,364,l),
(151,360,l),
(96,280,l),
(115,232,o),
(169,200,o),
(230,200,cs),
(310,200,o),
(344,231,o),
(344,303,cs),
(344,354,o),
(328,372,o),
(318,387,c),
(329,388,l),
(376,363,o),
(404,315,o),
(404,259,cs),
(404,175,o),
(345,120,o),
(257,120,cs)
);
}
);
width = 680;
}
);
unicode = 2332;
},
{
color = 7;
glyphname = "jha-deva";
layers = (
{
guides = (
{
angle = 90;
position = "{479, 0}";
}
);
layerId = "7D96EDF2-9291-42EB-8A89-114070E423BA";
associatedMasterId = "A45B8B48-B1A0-4768-860A-A9A091AD15CC";
name = Regular2;
shapes = (
{
attr = {
strokeWidth = 80;
};
closed = 0;
nodes = (
(640,641,l),
(640,0,l)
);
},
{
attr = {
strokeWidth = 80;
};
closed = 0;
nodes = (
(619,300,l),
(340,300,l)
);
},
{
attr = {
strokeWidth = 80;
};
closed = 0;
nodes = (
(80,221,l),
(80,175,o),
(80,21,o),
(80,-60,c)
);
},
{
attr = {
strokeWidth = 80;
};
closed = 0;
nodes = (
(380,661,l),
(380,499,l),
(211,499,ls),
(141,499,o),
(99,456,o),
(99,398,cs),
(99,340,o),
(141,301,o),
(211,301,cs),
(314,301,ls),
(393,301,o),
(439,267,o),
(439,201,cs),
(439,123,o),
(376,80,o),
(267,80,cs),
(146,80,o),
(80,136,o),
(80,229,c)
);
},
{
attr = {
strokeWidth = 76;
};
closed = 0;
nodes = (
(-20,660,l),
(766,660,l)
);
}
);
width = 780;
},
{
anchors = (
{
name = top;
position = "{658, 700}";
},
{
name = bottom;
position = "{678, 0}";
}
);
guides = (
{
angle = 90;
position = "{462, 0}";
}
);
layerId = "A45B8B48-B1A0-4768-860A-A9A091AD15CC";
shapes = (
{
closed = 1;
nodes = (
(-90,700,l),
(820,700,l),
(890,620,l),
(-20,620,l)
);
},
{
closed = 1;
nodes = (
(362,339,l),
(660,363,l),
(618,279,l),
(362,279,l)
);
},
{
closed = 1;
nodes = (
(600,67,l),
(604,382,l),
(594,664,l),
(686,664,l),
(678,353,l),
(680,67,l)
);
},
{
closed = 1;
nodes = (
(625,167,l),
(678,127,l),
(688,-19,l),
(684,-19,l),
(560,41,l),
(560,45,l)
);
},
{
closed = 1;
nodes = (
(230,60,o),
(190,80,o),
(158,108,c),
(141,110,l),
(81,166,o),
(41,234,o),
(41,242,c),
(141,242,l),
(141,151,l),
(151,142,o),
(197,140,o),
(269,140,cs),
(355,140,o),
(405,169,o),
(405,245,c),
(405,245,o),
(405,283,o),
(349,275,c),
(299,266,o),
(226,252,o),
(209,252,cs),
(161,252,o),
(78,377,o),
(78,442,cs),
(78,495,o),
(131,540,o),
(206,540,cs),
(340,540,l),
(340,660,l),
(420,660,l),
(420,460,l),
(206,460,ls),
(159,460,o),
(132,438,o),
(132,401,cs),
(132,365,o),
(158,326,o),
(187,326,c),
(341,353,ls),
(397,363,o),
(459,287,o),
(459,205,cs),
(459,110,o),
(405,60,o),
(278,60,cs)
);
},
{
closed = 1;
nodes = (
(296,-49,l),
(187,-49,l),
(128,123,l),
(132,142,l)
);
}
);
width = 800;
}
);
unicode = 2333;
},
{
color = 7;
glyphname = "nya-deva";
layers = (
{
layerId = "7D96EDF2-9291-42EB-8A89-114070E423BA";
associatedMasterId = "A45B8B48-B1A0-4768-860A-A9A091AD15CC";
name = Regular2;
shapes = (
{
closed = 0;
nodes = (
(600,660,l),
(600,0,l)
);
},
{
closed = 0;
nodes = (
(590,300,l),
(399,300,l)
);
},
{
closed = 0;
nodes = (
(137,416,l),
(168,440,o),
(195,450,o),
(234,450,cs),
(330,450,o),
(400,394,o),
(400,298,cs),
(400,202,o),
(339,130,o),
(240,130,cs),
(127,130,o),
(59,193,o),
(59,330,c)
);
},
{
closed = 1;
nodes = (
(560,660,l),
(640,660,l),
(640,0,l),
(560,0,l)
);
},
{
closed = 1;
nodes = (
(590,340,l),
(590,260,l),
(399,260,l),
(399,340,l)
);
},
{
closed = 1;
nodes = (
(137,464,l),
(166,482,o),
(196,490,o),
(234,490,cs),
(354,490,o),
(440,415,o),
(440,298,cs),
(440,179,o),
(360,90,o),
(240,90,cs),
(108,90,o),
(19,168,o),
(19,330,c),
(99,330,l),
(99,213,o),
(151,170,o),
(240,170,cs),
(314,170,o),
(360,221,o),
(360,298,cs),
(360,367,o),
(313,410,o),
(234,410,cs),
(202,410,o),
(176,406,o),
(137,381,c)
);
},
{
attr = {
strokeWidth = 76;
};
closed = 0;
nodes = (
(-20,660,l),
(766,660,l)
);
}
);
width = 740;
},
{
layerId = "30043BD2-BFA1-4A87-9985-99CA7B3DDE19";
associatedMasterId = "A45B8B48-B1A0-4768-860A-A9A091AD15CC";
name = 1;
shapes = (
{
closed = 1;
nodes = (
(-90,700,l),
(-20,620,l),
(790,620,l),
(720,700,l)
);
},
{
closed = 1;
nodes = (
(379,281,l),
(585,281,l),
(542,363,l),
(344,337,l)
);
},
{
closed = 1;
nodes = (
(44,377,l),
(40,377,l),
(40,228,o),
(125,120,o),
(245,120,cs),
(341,120,o),
(411,191,o),
(410,286,cs),
(409,394,o),
(315,480,o),
(201,480,cs),
(168,480,o),
(132,473,o),
(112,463,c),
(112,459,l),
(169,387,l),
(169,387,o),
(174,387,o),
(174,387,c),
(194,409,o),
(217,418,o),
(250,418,cs),
(310,418,o),
(340,386,o),
(340,322,cs),
(340,237,o),
(290,182,o),
(213,182,cs),
(153,182,o),
(115,215,o),
(115,265,cs),
(115,299,o),
(132,322,o),
(132,322,c),
(132,322,o),
(132,325,o),
(132,326,c)
);
},
{
closed = 1;
nodes = (
(598,66,l),
(596,352,l),
(604,663,l),
(512,663,l),
(522,381,l),
(518,66,l)
);
},
{
closed = 1;
nodes = (
(478,44,l),
(478,40,l),
(602,-20,l),
(606,-20,l),
(596,126,l),
(543,166,l)
);
}
);
width = 700;
},
{
anchors = (
{
name = top;
position = "{559, 700}";
},
{
name = bottom;
position = "{585, 0}";
}
);
layerId = "A45B8B48-B1A0-4768-860A-A9A091AD15CC";
shapes = (
{
closed = 1;
nodes = (
(-90,700,l),
(-20,620,l),
(790,620,l),
(720,700,l)
);
},
{
closed = 1;
nodes = (
(379,281,l),
(585,281,l),
(542,363,l),
(344,337,l)
);
},
{
closed = 1;
nodes = (
(598,66,l),
(596,352,l),
(604,663,l),
(512,663,l),
(522,381,l),
(518,66,l)
);
},
{
closed = 1;
nodes = (
(478,44,l),
(478,40,l),
(602,-20,l),
(606,-20,l),
(596,126,l),
(543,166,l)
);
},
{
closed = 1;
nodes = (
(31,410,l),
(71,210,o),
(142,120,o),
(260,120,cs),
(333,120,o),
(404,174,o),
(404,264,cs),
(404,383,o),
(312,480,o),
(200,480,c),
(200,380,l),
(302,380,o),
(314,380,o),
(334,380,c),
(338,362,o),
(340,337,o),
(340,318,cs),
(340,238,o),
(299,193,o),
(229,193,cs),
(179,193,o),
(139,216,o),
(119,250,c),
(162,330,l),
(162,334,l),
(35,410,l)
);
}
);
width = 700;
}
);
unicode = 2334;
},
{
color = 7;
glyphname = "tta-deva";
layers = (
{
layerId = "7D96EDF2-9291-42EB-8A89-114070E423BA";
associatedMasterId = "A45B8B48-B1A0-4768-860A-A9A091AD15CC";
name = Regular2;
shapes = (
{
attr = {
strokeWidth = 80;
};
closed = 0;
nodes = (
(420,660,l),
(420,460,l),
(280,460,ls),
(151,460,o),
(80,372,o),
(80,260,cs),
(80,125,o),
(185,40,o),
(310,40,cs),
(397,40,o),
(480,83,o),
(480,200,c)
);
},
{
attr = {
strokeWidth = 76;
};
closed = 0;
nodes = (
(-60,660,l),
(655,660,l)
);
}
);
width = 560;
},
{
anchors = (
{
name = bottom;
position = "{445, 0}";
},
{
name = right;
position = "{600, 325}";
},
{
name = top;
position = "{415, 700}";
}
);
layerId = "A45B8B48-B1A0-4768-860A-A9A091AD15CC";
shapes = (
{
closed = 1;
nodes = (
(380,660,l),
(460,660,l),
(460,420,l),
(267,420,ls),
(154,420,o),
(120,368,o),
(120,256,cs),
(120,132,o),
(181,70,o),
(300,70,cs),
(388,70,o),
(448,126,o),
(470,201,c),
(550,110,l),
(550,110,o),
(510,0,o),
(339,0,cs),
(183,0,o),
(40,127,o),
(40,284,cs),
(40,413,o),
(108,500,o),
(267,500,cs),
(380,500,l)
);
},
{
closed = 1;
nodes = (
(-92,700,l),
(600,700,l),
(660,620,l),
(-22,620,l)
);
}
);
width = 580;
}
);
unicode = 2335;
},
{
color = 7;
glyphname = "ttha-deva";
layers = (
{
layerId = "7D96EDF2-9291-42EB-8A89-114070E423BA";
associatedMasterId = "A45B8B48-B1A0-4768-860A-A9A091AD15CC";
name = Regular2;
shapes = (
{
attr = {
strokeWidth = 80;
};
closed = 0;
nodes = (
(391,460,l),
(529,444,o),
(560,321,o),
(560,260,cs),
(560,108,o),
(452,40,o),
(320,40,cs),
(175,40,o),
(80,134,o),
(80,260,cs),
(80,385,o),
(163,460,o),
(280,460,cs),
(380,460,l),
(380,661,l)
);
},
{
attr = {
strokeWidth = 76;
};
closed = 0;
nodes = (
(-60,660,l),
(655,660,l)
);
}
);
width = 640;
},
{
anchors = (
{
name = bottom;
position = "{481, 0}";
},
{
name = right;
position = "{650, 325}";
},
{
name = top;
position = "{433, 700}";
}
);
layerId = "A45B8B48-B1A0-4768-860A-A9A091AD15CC";
shapes = (
{
closed = 1;
nodes = (
(520,268,o),
(536,431,o),
(401,431,c),
(401,464,l),
(516,464,o),
(600,370,o),
(600,240,cs),
(600,86,o),
(495,0,o),
(340,0,cs),
(174,0,o),
(40,120,o),
(40,280,cs),
(40,393,o),
(110,500,o),
(268,500,cs),
(380,500,l),
(380,660,l),
(460,660,l),
(460,420,l),
(268,420,ls),
(166,420,o),
(120,361,o),
(120,250,cs),
(120,116,o),
(184,70,o),
(310,70,cs),
(430,70,o),
(519,138,o),
(520,240,cs)
);
},
{
closed = 1;
nodes = (
(-90,700,l),
(660,700,l),
(720,620,l),
(-20,620,l)
);
}
);
width = 640;
}
);
unicode = 2336;
},
{
color = 7;
glyphname = "dda-deva";
layers = (
{
layerId = "7D96EDF2-9291-42EB-8A89-114070E423BA";
associatedMasterId = "A45B8B48-B1A0-4768-860A-A9A091AD15CC";
name = Regular2;
shapes = (
{
attr = {
strokeWidth = 76;
};
closed = 0;
nodes = (
(-20,660,l),
(586,660,l)
);
},
{
attr = {
strokeWidth = 80;
};
closed = 0;
nodes = (
(420,661,l),
(420,480,l),
(240,480,ls),
(165,480,o),
(120,442,o),
(120,380,cs),
(120,318,o),
(165,280,o),
(240,280,cs),
(350,280,ls),
(434,280,o),
(480,240,o),
(480,170,cs),
(480,86,o),
(416,40,o),
(300,40,cs),
(170,40,o),
(100,100,o),
(100,200,c)
);
}
);
width = 540;
},
{
anchors = (
{
name = top;
position = "{397, 700}";
},
{
name = bottom;
position = "{380, 0}";
}
);
layerId = "A45B8B48-B1A0-4768-860A-A9A091AD15CC";
shapes = (
{
closed = 1;
nodes = (
(401,0,o),
(490,54,o),
(490,159,cs),
(490,249,o),
(421,341,o),
(360,330,cs),
(190,300,l),
(158,300,o),
(130,335,o),
(130,375,cs),
(130,416,o),
(159,440,o),
(211,440,cs),
(440,440,l),
(440,660,l),
(360,660,l),
(360,520,l),
(211,520,ls),
(129,520,o),
(70,478,o),
(70,420,cs),
(70,348,o),
(162,225,o),
(214,225,cs),
(233,225,o),
(313,241,o),
(369,250,c),
(430,259,o),
(430,203,o),
(430,203,c),
(430,120,o),
(375,80,o),
(280,80,cs),
(201,80,o),
(151,90,o),
(140,100,c),
(140,200,l),
(40,200,l),
(40,187,o),
(120,0,o),
(290,0,cs)
);
},
{
closed = 1;
nodes = (
(630,620,l),
(560,700,l),
(-91,700,l),
(-21,620,l)
);
}
);
width = 540;
}
);
unicode = 2337;
},
{
color = 7;
glyphname = "ddha-deva";
layers = (
{
layerId = "7D96EDF2-9291-42EB-8A89-114070E423BA";
associatedMasterId = "A45B8B48-B1A0-4768-860A-A9A091AD15CC";
name = Regular2;
shapes = (
{
attr = {
strokeWidth = 80;
};
closed = 0;
nodes = (
(340,160,l),
(340,227,o),
(368,260,o),
(422,260,cs),
(486,260,o),
(510,213,o),
(510,166,cs),
(510,82,o),
(433,40,o),
(330,40,cs),
(179,40,o),
(80,129,o),
(80,261,cs),
(80,372,o),
(150,460,o),
(280,460,cs),
(420,460,l),
(420,660,l)
);
},
{
attr = {
strokeWidth = 76;
};
closed = 0;
nodes = (
(-20,660,l),
(600,660,l)
);
}
);
width = 580;
},
{
anchors = (
{
name = bottom;
position = "{466, 0}";
},
{
name = right;
position = "{563, 325}";
},
{
name = top;
position = "{420, 700}";
}
);
layerId = "A45B8B48-B1A0-4768-860A-A9A091AD15CC";
shapes = (
{
closed = 1;
nodes = (
(-90,700,l),
(600,700,l),
(660,620,l),
(-20,620,l)
);
},
{
closed = 1;
nodes = (
(480,240,o),
(447,274,o),
(418,274,cs),
(381,274,o),
(360,244,o),
(360,192,cs),
(360,137,o),
(385,105,o),
(430,105,cs),
(455,105,o),
(465,117,o),
(465,117,c),
(466,74,l),
(380,52,o),
(280,119,o),
(280,214,cs),
(280,282,o),
(327,310,o),
(386,310,cs),
(493,310,o),
(550,235,o),
(550,149,cs),
(550,63,o),
(467,0,o),
(350,0,cs),
(179,0,o),
(40,127,o),
(40,282,cs),
(40,414,o),
(130,500,o),
(267,500,cs),
(380,500,l),
(380,660,l),
(460,660,l),
(460,420,l),
(267,420,ls),
(170,420,o),
(120,362,o),
(120,252,cs),
(120,134,o),
(176,70,o),
(308,70,cs),
(423,70,o),
(480,112,o),
(480,192,cs)
);
}
);
width = 580;
}
);
unicode = 2338;
},
{
color = 7;
glyphname = "nna-deva";
layers = (
{
layerId = "7D96EDF2-9291-42EB-8A89-114070E423BA";
associatedMasterId = "A45B8B48-B1A0-4768-860A-A9A091AD15CC";
name = Regular2;
shapes = (
{
attr = {
strokeWidth = 80;
};
closed = 0;
nodes = (
(400,660,l),
(400,380,l),
(400,290,o),
(350,240,o),
(260,240,cs),
(170,240,o),
(120,290,o),
(120,380,cs),
(120,661,l)
);
},
{
attr = {
strokeWidth = 80;
};
closed = 0;
nodes = (
(640,661,l),
(640,0,l)
);
},
{
attr = {
strokeWidth = 76;
};
closed = 0;
nodes = (
(-20,660,l),
(800,660,l)
);
}
);
width = 780;
},
{
anchors = (
{
name = top;
position = "{634, 700}";
},
{
name = bottom;
position = "{669, 0}";
}
);
layerId = "A45B8B48-B1A0-4768-860A-A9A091AD15CC";
shapes = (
{
closed = 1;
nodes = (
(599,66,l),
(603,381,l),
(593,663,l),
(685,663,l),
(677,352,l),
(679,66,l)
);
},
{
closed = 1;
nodes = (
(624,166,l),
(677,126,l),
(687,-20,l),
(683,-20,l),
(559,40,l),
(559,44,l)
);
},
{
closed = 1;
nodes = (
(-90,700,l),
(800,700,l),
(870,620,l),
(-20,620,l)
);
},
{
closed = 1;
nodes = (
(360,660,l),
(440,660,l),
(440,412,ls),
(440,275,o),
(409,200,o),
(269,200,cs),
(171,200,o),
(80,277,o),
(80,382,cs),
(80,660,l),
(160,660,l),
(160,362,ls),
(160,279,o),
(184,250,o),
(252,250,cs),
(329,250,o),
(360,310,o),
(360,392,cs)
);
}
);
width = 780;
}
);
unicode = 2339;
},
{
color = 7;
glyphname = "ta-deva";
layers = (
{
layerId = "7D96EDF2-9291-42EB-8A89-114070E423BA";
associatedMasterId = "A45B8B48-B1A0-4768-860A-A9A091AD15CC";
name = Regular2;
shapes = (
{
attr = {
strokeWidth = 80;
lineCapEnd = 4;
};
closed = 0;
nodes = (
(460,660,l),
(460,0,l)
);
},
{
attr = {
strokeWidth = 80;
lineCapEnd = 4;
};
closed = 0;
nodes = (
(460,400,l),
(230,400,ls),
(135,400,o),
(80,352,o),
(80,270,cs),
(80,192,o),
(130,96,o),
(210,0,c)
);
},
{
attr = {
strokeWidth = 76;
};
closed = 0;
nodes = (
(-20,660,l),
(620,660,l)
);
}
);
width = 600;
},
{
anchors = (
{
name = top;
position = "{482, 700}";
},
{
name = bottom;
position = "{519, 0}";
}
);
layerId = "A45B8B48-B1A0-4768-860A-A9A091AD15CC";
shapes = (
{
closed = 1;
nodes = (
(280,20,l),
(239,20,o),
(120,104,o),
(120,250,cs),
(120,345,o),
(173,370,o),
(230,370,cs),
(450,370,l),
(450,450,l),
(230,450,ls),
(108,450,o),
(40,390,o),
(40,280,cs),
(40,140,o),
(213,14,o),
(280,-20,c)
);
},
{
closed = 1;
nodes = (
(280,100,l),
(143,100,l),
(188,47,l),
(280,-19,l)
);
},
{
closed = 1;
nodes = (
(508,-20,l),
(498,126,l),
(445,166,l),
(380,44,l),
(380,40,l),
(504,-20,l)
);
},
{
closed = 1;
nodes = (
(500,66,l),
(498,352,l),
(506,663,l),
(414,663,l),
(424,381,l),
(420,66,l)
);
},
{
closed = 1;
nodes = (
(690,620,l),
(620,700,l),
(-90,700,l),
(-20,620,l)
);
}
);
width = 600;
}
);
unicode = 2340;
},
{
color = 7;
glyphname = "tha-deva";
layers = (
{
layerId = "7D96EDF2-9291-42EB-8A89-114070E423BA";
associatedMasterId = "A45B8B48-B1A0-4768-860A-A9A091AD15CC";
name = Regular2;
shapes = (
{
attr = {
strokeWidth = 80;
};
closed = 0;
nodes = (
(80,540,l),
(80,588,o),
(100,662,o),
(187,662,cs),
(254,662,o),
(290,617,o),
(290,533,cs),
(290,428,o),
(233,380,o),
(80,380,c)
);
},
{
attr = {
strokeWidth = 80;
};
closed = 0;
nodes = (
(480,660,l),
(480,0,l)
);
},
{
attr = {
strokeWidth = 80;
};
closed = 0;
nodes = (
(80,420,l),
(80,272,o),
(139,160,o),
(290,160,cs),
(429,160,o),
(480,254,o),
(480,320,c)
);
},
{
attr = {
strokeWidth = 76;
};
closed = 0;
nodes = (
(380,660,l),
(660,660,l)
);
}
);
width = 620;
},
{
guides = (
{
angle = 90;
position = "{62, 0}";
}
);
layerId = "30043BD2-BFA1-4A87-9985-99CA7B3DDE19";
associatedMasterId = "A45B8B48-B1A0-4768-860A-A9A091AD15CC";
name = 1;
shapes = (
{
closed = 1;
nodes = (
(111,404,l),
(111,301,o),
(186,220,o),
(296,220,cs),
(375,220,o),
(463,254,o),
(463,340,c),
(533,340,l),
(533,220,o),
(452,140,o),
(316,140,cs),
(182,140,o),
(60,301,o),
(60,381,c),
(60,381,o),
(60,406,o),
(60,421,c)
);
},
{
closed = 1;
nodes = (
(240,624,o),
(217,660,o),
(170,660,cs),
(133,660,o),
(115,641,o),
(115,589,cs),
(115,552,o),
(145,529,o),
(186,529,c),
(187,509,l),
(143,509,o),
(51,539,o),
(51,604,cs),
(51,660,o),
(78,700,o),
(137,700,cs),
(248,700,o),
(300,615,o),
(300,529,cs),
(300,402,o),
(229,354,o),
(146,354,cs),
(113,354,o),
(76,365,o),
(60,382,c),
(60,421,l),
(69,420,o),
(94,420,o),
(111,420,cs),
(201,420,o),
(240,465,o),
(240,545,cs)
);
},
{
closed = 1;
nodes = (
(357,700,l),
(641,700,l),
(711,620,l),
(427,620,l)
);
}
);
width = 640;
},
{
anchors = (
{
name = top;
position = "{527, 700}";
},
{
name = bottom;
position = "{586, 0}";
}
);
guides = (
{
angle = 90;
position = "{103, 0}";
}
);
layerId = "A45B8B48-B1A0-4768-860A-A9A091AD15CC";
shapes = (
{
closed = 1;
nodes = (
(217,140,o),
(109,254,o),
(81,398,c),
(81,410,l),
(147,387,l),
(147,327,o),
(206,217,o),
(329,217,cs),
(454,217,o),
(490,299,o),
(490,366,c),
(558,363,l),
(558,271,o),
(519,140,o),
(354,140,cs)
);
},
{
closed = 1;
nodes = (
(281,627,o),
(260,657,o),
(210,657,cs),
(182,657,o),
(150,645,o),
(150,596,cs),
(150,541,o),
(194,528,o),
(230,512,c),
(230,482,l),
(171,497,o),
(72,542,o),
(72,614,cs),
(72,668,o),
(120,700,o),
(177,700,cs),
(286,700,o),
(359,610,o),
(359,496,cs),
(359,394,o),
(287,337,o),
(184,337,cs),
(160,337,o),
(111,353,o),
(89,371,c),
(81,410,l),
(88,409,o),
(115,408,o),
(134,408,cs),
(239,408,o),
(281,440,o),
(281,544,cs)
);
},
{
closed = 1;
nodes = (
(487,66,l),
(491,381,l),
(481,663,l),
(573,663,l),
(565,352,l),
(567,66,l)
);
},
{
closed = 1;
nodes = (
(512,166,l),
(565,126,l),
(575,-20,l),
(571,-20,l),
(447,40,l),
(447,44,l)
);
},
{
closed = 1;
nodes = (
(358,700,l),
(682,700,l),
(752,620,l),
(428,620,l)
);
}
);
width = 671;
}
);
unicode = 2341;
},
{
color = 7;
glyphname = "da-deva";
layers = (
{
layerId = "7D96EDF2-9291-42EB-8A89-114070E423BA";
associatedMasterId = "A45B8B48-B1A0-4768-860A-A9A091AD15CC";
name = Regular2;
shapes = (
{
attr = {
strokeWidth = 80;
};
closed = 0;
nodes = (
(440,255,l),
(440,176,o),
(374,120,o),
(280,120,c),
(155,120,o),
(80,191,o),
(80,305,cs),
(80,419,o),
(156,480,o),
(290,480,cs),
(400,480,l),
(400,658,l)
);
},
{
attr = {
strokeWidth = 80;
};
closed = 0;
nodes = (
(440,280,l),
(440,0,l)
);
},
{
attr = {
strokeWidth = 76;
};
closed = 0;
nodes = (
(-20,660,l),
(-20,660,o),
(578,660,o),
(578,660,c)
);
}
);
width = 520;
},
{
anchors = (
{
name = anutop;
position = "{400, 980}";
},
{
name = bottom;
position = "{334, -33}";
},
{
name = top;
position = "{400, 680}";
}
);
layerId = "30043BD2-BFA1-4A87-9985-99CA7B3DDE19";
associatedMasterId = "A45B8B48-B1A0-4768-860A-A9A091AD15CC";
name = 1;
shapes = (
{
closed = 1;
nodes = (
(-90,700,l),
(618,700,l),
(678,620,l),
(-20,620,l)
);
},
{
closed = 1;
nodes = (
(162,69,o),
(40,183,o),
(40,321,cs),
(40,443,o),
(133,520,o),
(283,520,cs),
(360,520,l),
(360,680,l),
(440,680,l),
(440,440,l),
(283,440,ls),
(169,440,o),
(120,395,o),
(120,290,cs),
(120,188,o),
(166,140,o),
(265,140,cs),
(327,140,o),
(373,159,o),
(400,190,c),
(400,300,l),
(410,291,o),
(520,224,o),
(520,220,c),
(482,117,o),
(419,71,o),
(318,70,cs)
);
},
{
closed = 0;
nodes = (
(618,700,l),
(-166,700,l)
);
},
{
closed = 1;
nodes = (
(467,169,l),
(516,84,o),
(557,28,o),
(618,-41,c),
(507,-41,l),
(479,40,o),
(457,95,o),
(401,189,c)
);
}
);
width = 520;
},
{
anchors = (
{
name = bottom;
position = "{398, 0}";
},
{
name = right;
position = "{552, 325}";
},
{
name = top;
position = "{400, 700}";
}
);
layerId = "A45B8B48-B1A0-4768-860A-A9A091AD15CC";
shapes = (
{
closed = 1;
nodes = (
(-90,700,l),
(578,700,l),
(638,620,l),
(-20,620,l)
);
},
{
closed = 1;
nodes = (
(162,69,o),
(40,183,o),
(40,321,cs),
(40,443,o),
(133,520,o),
(283,520,cs),
(360,520,l),
(360,680,l),
(440,680,l),
(440,440,l),
(283,440,ls),
(169,440,o),
(120,395,o),
(120,290,cs),
(120,188,o),
(166,140,o),
(265,140,cs),
(327,140,o),
(380,159,o),
(407,190,c),
(400,300,l),
(410,291,o),
(520,224,o),
(520,220,c),
(482,117,o),
(419,71,o),
(318,70,cs)
);
},
{
closed = 1;
nodes = (
(477,30,l),
(414,30,l),
(408,190,l),
(477,170,l)
);
},
{
closed = 1;
nodes = (
(445,115,l),
(475,75,l),
(492,-71,l),
(488,-71,l),
(360,-11,l),
(360,-7,l)
);
}
);
width = 560;
}
);
unicode = 2342;
},
{
color = 7;
glyphname = "dha-deva";
layers = (
{
layerId = "7D96EDF2-9291-42EB-8A89-114070E423BA";
associatedMasterId = "A45B8B48-B1A0-4768-860A-A9A091AD15CC";
name = Regular2;
shapes = (
{
attr = {
strokeWidth = 80;
};
closed = 0;
nodes = (
(540,661,l),
(540,0,l)
);
},
{
attr = {
strokeWidth = 80;
};
closed = 0;
nodes = (
(310,420,l),
(296,420,o),
(252,420,o),
(252,420,c),
(139,420,o),
(80,465,o),
(80,544,cs),
(80,612,o),
(123,660,o),
(198,660,cs),
(277,660,o),
(300,608,o),
(300,560,c)
);
},
{
attr = {
strokeWidth = 80;
};
closed = 0;
nodes = (
(540,360,l),
(540,230,o),
(457,160,o),
(324,160,cs),
(208,160,o),
(140,213,o),
(140,299,cs),
(140,375,o),
(193,420,o),
(280,420,cs),
(293,420,o),
(317,420,o),
(320,420,c)
);
},
{
attr = {
strokeWidth = 76;
};
closed = 0;
nodes = (
(419,660,l),
(715,660,l)
);
}
);
width = 680;
},
{
layerId = "30043BD2-BFA1-4A87-9985-99CA7B3DDE19";
associatedMasterId = "A45B8B48-B1A0-4768-860A-A9A091AD15CC";
name = 1;
shapes = (
{
closed = 1;
nodes = (
(505,370,l),
(505,261,o),
(433,190,o),
(304,190,cs),
(213,190,o),
(170,220,o),
(170,283,cs),
(170,342,o),
(208,380,o),
(268,380,cs),
(340,380,l),
(280,480,l),
(168,463,o),
(100,401,o),
(100,316,cs),
(100,207,o),
(212,120,o),
(352,120,cs),
(494,120,o),
(579,220,o),
(579,370,c)
);
},
{
closed = 1;
nodes = (
(310,578,l),
(310,645,o),
(247,700,o),
(187,700,cs),
(101,700,o),
(40,639,o),
(40,555,cs),
(40,427,o),
(177,418,o),
(173,420,c),
(173,427,l),
(142,438,o),
(120,485,o),
(120,538,cs),
(120,607,o),
(140,640,o),
(220,640,cs),
(246,640,o),
(271,615,o),
(271,578,c)
);
},
{
closed = 1;
nodes = (
(367,700,l),
(437,620,l),
(731,620,l),
(661,700,l)
);
}
);
width = 680;
},
{
anchors = (
{
name = top;
position = "{543, 700}";
},
{
name = bottom;
position = "{600, 0}";
}
);
layerId = "A45B8B48-B1A0-4768-860A-A9A091AD15CC";
shapes = (
{
closed = 1;
nodes = (
(265,560,l),
(265,573,o),
(261,640,o),
(210,640,cs),
(148,640,o),
(120,602,o),
(120,537,cs),
(120,486,o),
(143,438,o),
(173,427,c),
(173,420,l),
(177,418,o),
(40,447,o),
(40,555,cs),
(40,639,o),
(100,700,o),
(182,700,cs),
(260,700,o),
(309,646,o),
(309,560,c)
);
},
{
closed = 1;
nodes = (
(579,370,l),
(579,220,o),
(494,120,o),
(353,120,cs),
(222,120,o),
(100,207,o),
(100,318,cs),
(100,401,o),
(168,463,o),
(280,480,c),
(340,380,l),
(268,380,ls),
(208,380,o),
(170,342,o),
(170,288,cs),
(170,220,o),
(232,190,o),
(311,190,cs),
(433,190,o),
(505,261,o),
(505,370,c)
);
},
{
closed = 1;
nodes = (
(367,700,l),
(661,700,l),
(731,620,l),
(437,620,l)
);
},
{
closed = 1;
nodes = (
(500,66,l),
(504,381,l),
(494,663,l),
(586,663,l),
(578,352,l),
(580,66,l)
);
},
{
closed = 1;
nodes = (
(525,166,l),
(578,126,l),
(588,-20,l),
(584,-20,l),
(460,40,l),
(460,44,l)
);
},
{
alignment = -1;
pos = (461,0);
ref = stemserif;
}
);
width = 680;
}
);
unicode = 2343;
},
{
color = 7;
glyphname = "na-deva";
layers = (
{
layerId = "7D96EDF2-9291-42EB-8A89-114070E423BA";
associatedMasterId = "A45B8B48-B1A0-4768-860A-A9A091AD15CC";
name = Regular2;
shapes = (
{
attr = {
strokeWidth = 80;
};
closed = 0;
nodes = (
(440,628,l),
(440,1,l)
);
},
{
attr = {
strokeWidth = 80;
};
closed = 0;
nodes = (
(141,333,l),
(141,240,ls),
(141,201,o),
(21,360,o),
(121,360,cs),
(439,360,l)
);
},
{
attr = {
strokeWidth = 76;
};
closed = 0;
nodes = (
(-20,660,l),
(603,660,l)
);
}
);
width = 580;
},
{
anchors = (
{
name = top;
position = "{478, 700}";
},
{
name = bottom;
position = "{519, 0}";
}
);
layerId = "A45B8B48-B1A0-4768-860A-A9A091AD15CC";
shapes = (
{
closed = 1;
nodes = (
(421,66,l),
(425,381,l),
(415,663,l),
(507,663,l),
(499,352,l),
(501,66,l)
);
},
{
closed = 1;
nodes = (
(446,166,l),
(499,126,l),
(509,-20,l),
(505,-20,l),
(381,40,l),
(381,44,l)
);
},
{
closed = 1;
nodes = (
(-90,700,l),
(620,700,l),
(690,620,l),
(-20,620,l)
);
},
{
closed = 1;
nodes = (
(455,400,l),
(455,320,l),
(201,320,l),
(201,160,l),
(197,160,l),
(21,396,l),
(21,400,l)
);
}
);
width = 600;
}
);
unicode = 2344;
},
{
color = 7;
glyphname = "pa-deva";
layers = (
{
layerId = "7D96EDF2-9291-42EB-8A89-114070E423BA";
associatedMasterId = "A45B8B48-B1A0-4768-860A-A9A091AD15CC";
name = Regular2;
shapes = (
{
attr = {
strokeWidth = 80;
};
closed = 0;
nodes = (
(440,660,l),
(440,0,l)
);
},
{
attr = {
strokeWidth = 80;
};
closed = 0;
nodes = (
(120,660,l),
(120,380,ls),
(120,310,o),
(183,240,o),
(280,240,cs),
(350,240,o),
(440,277,o),
(440,380,c)
);
},
{
attr = {
strokeWidth = 76;
};
closed = 0;
nodes = (
(-20,660,l),
(622,660,l)
);
}
);
width = 580;
},
{
anchors = (
{
name = bottom;
position = "{480, 0}";
},
{
name = top;
position = "{440, 700}";
}
);
hints = (
{
place = (82,87);
type = Stem;
},
{
place = (402,78);
type = Stem;
},
{
place = (406,82);
type = Stem;
},
{
horizontal = 1;
place = (220,50);
type = Stem;
},
{
horizontal = 1;
origin = (2,3);
target = (2,2);
type = Stem;
},
{
horizontal = 1;
place = (-20,21);
target = up;
type = BottomGhost;
}
);
layerId = "A45B8B48-B1A0-4768-860A-A9A091AD15CC";
shapes = (
{
closed = 1;
nodes = (
(490,-20,l),
(480,126,l),
(427,166,l),
(362,44,l),
(362,40,l),
(486,-20,l)
);
},
{
closed = 1;
nodes = (
(480,66,l),
(478,352,l),
(486,663,l),
(394,663,l),
(404,381,l),
(400,66,l)
);
},
{
closed = 1;
nodes = (
(670,620,l),
(600,700,l),
(-142,700,l,{name = ._.2046329635952;}),
(-72,620,l,{name = ._.2046329634112;})
);
},
{
closed = 1;
nodes = (
(341,220,o),
(398,247,o),
(440,299,c),
(404,400,l),
(376,322,o),
(321,270,o),
(258,270,cs),
(194,270,o),
(160,314,o),
(160,400,cs),
(160,660,l),
(80,660,l),
(80,420,ls),
(80,294,o),
(149,220,o),
(266,220,cs)
);
}
);
width = 580;
}
);
unicode = 2346;
},
{
color = 7;
glyphname = "pha-deva";
layers = (
{
layerId = "7D96EDF2-9291-42EB-8A89-114070E423BA";
associatedMasterId = "A45B8B48-B1A0-4768-860A-A9A091AD15CC";
name = Regular2;
shapes = (
{
attr = {
strokeWidth = 80;
};
closed = 0;
nodes = (
(440,660,l),
(440,0,l)
);
},
{
attr = {
strokeWidth = 80;
};
closed = 0;
nodes = (
(120,660,l),
(120,380,ls),
(120,303,o),
(192,240,o),
(280,240,cs),
(370,240,o),
(440,292,o),
(440,360,c)
);
},
{
attr = {
strokeWidth = 80;
};
closed = 0;
nodes = (
(440,380,l),
(440,439,o),
(498,480,o),
(582,480,cs),
(683,480,o),
(740,418,o),
(740,310,cs),
(740,196,o),
(676,120,o),
(580,120,c)
);
},
{
attr = {
strokeWidth = 76;
};
closed = 0;
nodes = (
(-20,660,l),
(826,660,l)
);
}
);
width = 820;
},
{
anchors = (
{
name = top;
position = "{440, 700}";
},
{
name = bottom;
position = "{504, 0}";
}
);
layerId = "A45B8B48-B1A0-4768-860A-A9A091AD15CC";
shapes = (
{
closed = 1;
nodes = (
(-90,700,l),
(820,700,l),
(890,620,l),
(-20,620,l)
);
},
{
closed = 1;
nodes = (
(540,158,l),
(540,160,l),
(547,160,o),
(541,160,o),
(541,160,c),
(567,160,o),
(596,171,o),
(618,178,cs),
(670,194,o),
(711,239,o),
(711,309,cs),
(711,381,o),
(668,430,o),
(601,430,cs),
(529,430,o),
(497,388,o),
(457,309,c),
(407,391,l),
(408,388,o),
(472,500,o),
(570,500,cs),
(682,500,o),
(771,397,o),
(771,277,cs),
(771,176,o),
(708,114,o),
(618,81,c)
);
},
{
closed = 1;
nodes = (
(400,66,l),
(404,381,l),
(394,663,l),
(486,663,l),
(478,352,l),
(480,66,l)
);
},
{
closed = 1;
nodes = (
(425,166,l),
(478,126,l),
(488,-20,l),
(484,-20,l),
(360,40,l),
(360,44,l)
);
},
{
closed = 1;
nodes = (
(149,220,o),
(80,294,o),
(80,420,cs),
(80,660,l),
(160,660,l),
(160,400,ls),
(160,314,o),
(194,270,o),
(258,270,cs),
(321,270,o),
(376,322,o),
(404,400,c),
(440,299,l),
(398,247,o),
(341,220,o),
(266,220,cs)
);
}
);
width = 820;
}
);
unicode = 2347;
},
{
color = 7;
glyphname = "ba-deva";
layers = (
{
layerId = "7D96EDF2-9291-42EB-8A89-114070E423BA";
associatedMasterId = "A45B8B48-B1A0-4768-860A-A9A091AD15CC";
name = Regular2;
shapes = (
{
attr = {
strokeWidth = 76;
};
closed = 0;
nodes = (
(-20,660,l),
(580,660,l)
);
},
{
attr = {
strokeWidth = 76;
};
closed = 0;
nodes = (
(137,438,l),
(137,435,o),
(394,178,o),
(394,178,c)
);
},
{
attr = {
strokeWidth = 80;
};
closed = 0;
nodes = (
(420,659,l),
(420,0,l)
);
},
{
attr = {
strokeWidth = 80;
};
closed = 0;
nodes = (
(423,236,l),
(402,174,o),
(336,140,o),
(266,140,cs),
(175,140,o),
(80,197,o),
(80,310,cs),
(80,412,o),
(156,480,o),
(261,480,cs),
(335,480,o),
(402,446,o),
(423,384,c)
);
}
);
width = 560;
},
{
anchors = (
{
name = top;
position = "{424, 700}";
},
{
name = bottom;
position = "{478, 0}";
}
);
layerId = "A45B8B48-B1A0-4768-860A-A9A091AD15CC";
shapes = (
{
closed = 1;
nodes = (
(400,120,o),
(456,229,o),
(456,314,c),
(382,314,l),
(382,247,o),
(316,190,o),
(234,190,cs),
(158,190,o),
(110,237,o),
(110,304,cs),
(110,395,o),
(159,449,o),
(271,449,cs),
(328,449,o),
(387,427,o),
(387,427,c),
(390,431,l),
(348,481,o),
(270,520,o),
(205,520,cs),
(133,520,o),
(40,460,o),
(40,337,cs),
(40,213,o),
(177,120,o),
(274,120,cs)
);
},
{
closed = 1;
nodes = (
(467,-20,l),
(457,126,l),
(404,166,l),
(339,44,l),
(339,40,l),
(463,-20,l)
);
},
{
closed = 1;
nodes = (
(407,210,l),
(406,211,o),
(166,451,o),
(152,468,c),
(110,447,l),
(110,439,o),
(107,438,o),
(373,173,c)
);
},
{
closed = 1;
nodes = (
(459,66,l),
(457,352,l),
(465,663,l),
(373,663,l),
(383,381,l),
(379,66,l)
);
},
{
closed = 1;
nodes = (
(630,620,l),
(560,700,l),
(-90,700,l),
(-20,620,l)
);
}
);
width = 560;
}
);
unicode = 2348;
},
{
color = 7;
glyphname = "bha-deva";
layers = (
{
layerId = "7D96EDF2-9291-42EB-8A89-114070E423BA";
associatedMasterId = "A45B8B48-B1A0-4768-860A-A9A091AD15CC";
name = Regular2;
shapes = (
{
attr = {
strokeWidth = 80;
};
closed = 0;
nodes = (
(500,659,l),
(500,0,l)
);
},
{
attr = {
strokeWidth = 80;
};
closed = 0;
nodes = (
(499,280,l),
(150,280,ls),
(41,280,o),
(180,121,o),
(180,210,cs),
(180,538,l),
(180,600,o),
(184,660,o),
(120,660,c),
(95,660,o),
(54,660,o),
(30,660,c)
);
},
{
attr = {
strokeWidth = 76;
};
closed = 0;
nodes = (
(299,660,l),
(688,660,l)
);
}
);
width = 640;
},
{
layerId = "46B6D1F0-F2FD-4146-B2F9-2C121398E696";
associatedMasterId = "A45B8B48-B1A0-4768-860A-A9A091AD15CC";
name = 2;
shapes = (
{
closed = 1;
nodes = (
(232,504,l),
(142,481,o),
(30,545,o),
(30,624,cs),
(30,672,o),
(67,701,o),
(114,701,cs),
(190,701,o),
(260,596,o),
(260,524,cs),
(260,252,l),
(180,252,l),
(180,373,o),
(180,430,o),
(180,430,c),
(180,553,o),
(186,644,o),
(148,644,cs),
(135,644,o),
(95,646,o),
(95,615,cs),
(95,555,o),
(152,520,o),
(230,520,c)
);
},
{
closed = 1;
nodes = (
(553,320,l),
(553,240,l),
(260,240,l),
(260,120,l),
(255,120,l),
(79,316,l),
(79,320,l)
);
},
{
closed = 1;
nodes = (
(307,700,l),
(592,700,l),
(662,620,l),
(377,620,l)
);
}
);
width = 680;
},
{
anchors = (
{
name = top;
position = "{483, 700}";
},
{
name = bottom;
position = "{541, 0}";
}
);
guides = (
{
position = "{0, 5895}";
}
);
layerId = "A45B8B48-B1A0-4768-860A-A9A091AD15CC";
shapes = (
{
closed = 1;
nodes = (
(440,66,l),
(444,381,l),
(434,663,l),
(526,663,l),
(518,352,l),
(520,66,l)
);
},
{
closed = 1;
nodes = (
(465,166,l),
(518,126,l),
(528,-20,l),
(524,-20,l),
(400,40,l),
(400,44,l)
);
},
{
closed = 1;
nodes = (
(200,252,l),
(120,252,l),
(120,558,l),
(120,626,o),
(143,620,o),
(-49,620,c),
(-49,620,o),
(-102,700,o),
(-102,700,c),
(-102,700,o),
(-11,700,o),
(60,700,cs),
(116,700,o),
(200,597,o),
(200,560,c)
);
},
{
closed = 1;
nodes = (
(494,320,l),
(494,240,l),
(200,240,l),
(200,120,l),
(195,120,l),
(20,316,l),
(20,320,l)
);
},
{
closed = 1;
nodes = (
(248,700,l),
(640,700,l),
(710,620,l),
(318,620,l)
);
}
);
width = 620;
}
);
unicode = 2349;
},
{
color = 7;
glyphname = "ma-deva";
layers = (
{
layerId = "7D96EDF2-9291-42EB-8A89-114070E423BA";
associatedMasterId = "A45B8B48-B1A0-4768-860A-A9A091AD15CC";
name = Regular2;
shapes = (
{
attr = {
strokeWidth = 76;
};
closed = 0;
nodes = (
(-60,660,l),
(651,660,l)
);
},
{
attr = {
strokeWidth = 80;
};
closed = 0;
nodes = (
(480,659,l),
(480,0,l)
);
},
{
attr = {
strokeWidth = 80;
};
closed = 0;
nodes = (
(160,656,l),
(160,210,ls),
(160,121,o),
(21,280,o),
(130,280,cs),
(479,280,l)
);
}
);
width = 620;
},
{
anchors = (
{
name = top;
position = "{485, 700}";
},
{
name = bottom;
position = "{522, 0}";
}
);
layerId = "A45B8B48-B1A0-4768-860A-A9A091AD15CC";
shapes = (
{
closed = 1;
nodes = (
(420,66,l),
(424,381,l),
(414,663,l),
(506,663,l),
(498,352,l),
(500,66,l)
);
},
{
closed = 1;
nodes = (
(445,166,l),
(498,126,l),
(508,-20,l),
(504,-20,l),
(380,40,l),
(380,44,l)
);
},
{
closed = 1;
nodes = (
(600,700,l),
(690,620,l),
(-40,620,l),
(-110,700,l)
);
},
{
closed = 1;
nodes = (
(100,252,l),
(100,640,l),
(180,640,l),
(180,252,l)
);
},
{
closed = 1;
nodes = (
(474,240,l),
(180,240,l),
(180,120,l),
(176,120,l),
(0,316,l),
(0,320,l),
(474,320,l)
);
}
);
width = 600;
}
);
unicode = 2350;
},
{
color = 7;
glyphname = "ya-deva";
layers = (
{
layerId = "7D96EDF2-9291-42EB-8A89-114070E423BA";
associatedMasterId = "A45B8B48-B1A0-4768-860A-A9A091AD15CC";
name = Regular2;
shapes = (
{
attr = {
strokeWidth = 80;
};
closed = 0;
nodes = (
(80,660,l),
(189,660,o),
(260,600,o),
(260,510,cs),
(260,422,o),
(190,380,o),
(80,380,c)
);
},
{
attr = {
strokeWidth = 80;
};
closed = 0;
nodes = (
(480,660,l),
(480,0,l)
);
},
{
attr = {
strokeWidth = 80;
};
closed = 0;
nodes = (
(80,420,l),
(80,272,o),
(139,160,o),
(290,160,cs),
(429,160,o),
(480,254,o),
(480,320,c)
);
},
{
attr = {
strokeWidth = 76;
};
closed = 0;
nodes = (
(-20,660,l),
(643,660,l)
);
}
);
width = 620;
},
{
anchors = (
{
name = top;
position = "{480, 700}";
},
{
name = bottom;
position = "{541, 0}";
}
);
layerId = "A45B8B48-B1A0-4768-860A-A9A091AD15CC";
shapes = (
{
closed = 1;
nodes = (
(-90,700,l),
(640,700,l),
(700,620,l),
(-20,620,l)
);
},
{
closed = 1;
nodes = (
(176,140,o),
(68,254,o),
(40,398,c),
(40,410,l),
(106,387,l),
(106,327,o),
(165,217,o),
(288,217,cs),
(413,217,o),
(449,299,o),
(449,366,c),
(517,363,l),
(517,271,o),
(478,140,o),
(313,140,cs)
);
},
{
closed = 1;
nodes = (
(440,66,l),
(444,381,l),
(434,663,l),
(526,663,l),
(518,352,l),
(520,66,l)
);
},
{
closed = 1;
nodes = (
(465,166,l),
(518,126,l),
(528,-20,l),
(524,-20,l),
(400,40,l),
(400,44,l)
);
},
{
closed = 1;
nodes = (
(138,650,l),
(225,609,o),
(268,542,o),
(268,471,cs),
(268,392,o),
(204,345,o),
(127,345,cs),
(97,345,o),
(62,356,o),
(47,370,c),
(37,411,l),
(49,410,o),
(86,410,o),
(108,410,cs),
(170,410,o),
(196,446,o),
(196,508,cs),
(196,568,o),
(171,622,o),
(114,650,c)
);
}
);
width = 620;
}
);
unicode = 2351;
},
{
color = 7;
glyphname = "ra-deva";
layers = (
{
layerId = "7D96EDF2-9291-42EB-8A89-114070E423BA";
associatedMasterId = "A45B8B48-B1A0-4768-860A-A9A091AD15CC";
name = Regular2;
shapes = (
{
attr = {
strokeWidth = 80;
lineCapStart = 4;
};
closed = 0;
nodes = (
(300,0,l),
(272,42,o),
(92,360,o),
(75,393,c)
);
},
{
attr = {
strokeWidth = 80;
lineCapStart = 4;
};
closed = 0;
nodes = (
(140,660,l),
(272,660,o),
(320,593,o),
(320,499,cs),
(320,407,o),
(274,340,o),
(119,340,c)
);
},
{
attr = {
strokeWidth = 76;
};
closed = 0;
nodes = (
(-20,660,l),
(443,660,l)
);
}
);
width = 400;
},
{
anchors = (
{
name = anutop;
position = "{160, 982}";
},
{
name = bottom;
position = "{420, 440}";
},
{
name = right;
position = "{328, 325}";
},
{
name = top;
position = "{166, 660}";
}
);
layerId = "46B6D1F0-F2FD-4146-B2F9-2C121398E696";
associatedMasterId = "A45B8B48-B1A0-4768-860A-A9A091AD15CC";
name = 2;
shapes = (
{
closed = 1;
nodes = (
(149,355,l),
(149,275,o),
(190,161,o),
(240,100,c),
(340,100,l),
(340,-20,l),
(338,-20,l),
(94,126,o),
(51,336,o),
(51,367,cs),
(51,373,o),
(51,382,o),
(51,382,c)
);
},
{
closed = 1;
nodes = (
(232,617,o),
(290,525,o),
(290,449,cs),
(290,360,o),
(239,307,o),
(152,307,cs),
(118,307,o),
(78,321,o),
(61,336,c),
(51,382,l),
(61,381,o),
(92,380,o),
(111,380,cs),
(195,380,o),
(210,425,o),
(210,507,cs),
(210,577,o),
(179,645,o),
(150,670,c),
(169,670,o),
(145,670,o),
(164,670,c)
);
},
{
closed = 1;
nodes = (
(-122,700,l),
(482,700,l),
(552,620,l),
(-52,620,l)
);
},
{
closed = 1;
nodes = (
(-122,700,l),
(482,700,l),
(552,620,l),
(-52,620,l)
);
}
);
width = 370;
},
{
anchors = (
{
name = anutop;
position = "{160, 982}";
},
{
name = bottom;
position = "{420, 440}";
},
{
name = right;
position = "{328, 325}";
},
{
name = top;
position = "{166, 660}";
}
);
layerId = "30043BD2-BFA1-4A87-9985-99CA7B3DDE19";
associatedMasterId = "A45B8B48-B1A0-4768-860A-A9A091AD15CC";
name = 1;
shapes = (
{
closed = 1;
nodes = (
(149,355,l),
(149,275,o),
(190,161,o),
(240,100,c),
(340,100,l),
(340,-20,l),
(338,-20,l),
(179,65,o),
(61,248,o),
(51,367,c),
(51,373,o),
(51,382,o),
(51,382,c)
);
},
{
closed = 1;
nodes = (
(232,617,o),
(290,525,o),
(290,449,cs),
(290,360,o),
(239,307,o),
(152,307,cs),
(118,307,o),
(78,321,o),
(61,336,c),
(51,382,l),
(61,381,o),
(92,380,o),
(111,380,cs),
(195,380,o),
(210,425,o),
(210,507,cs),
(210,577,o),
(179,645,o),
(150,670,c),
(169,670,o),
(145,670,o),
(164,670,c)
);
},
{
closed = 1;
nodes = (
(-122,700,l),
(482,700,l),
(552,620,l),
(-52,620,l)
);
},
{
closed = 1;
nodes = (
(-122,700,l),
(482,700,l),
(552,620,l),
(-52,620,l)
);
}
);
width = 370;
},
{
anchors = (
{
name = bottom;
position = "{410, 440}";
},
{
name = right;
position = "{318, 325}";
},
{
name = top;
position = "{169, 700}";
}
);
layerId = "9488FAD5-5270-4D5C-B0C4-37AD56ECA532";
associatedMasterId = "A45B8B48-B1A0-4768-860A-A9A091AD15CC";
name = 3;
shapes = (
{
closed = 1;
nodes = (
(139,355,l),
(139,275,o),
(180,161,o),
(230,100,c),
(330,100,l),
(330,-20,l),
(328,-20,l),
(84,126,o),
(41,347,o),
(41,367,cs),
(41,373,o),
(41,382,o),
(41,382,c)
);
},
{
closed = 1;
nodes = (
(154,670,l),
(222,617,o),
(280,525,o),
(280,449,cs),
(280,360,o),
(229,307,o),
(142,307,cs),
(108,307,o),
(68,321,o),
(51,336,c),
(41,382,l),
(51,381,o),
(82,380,o),
(101,380,cs),
(185,380,o),
(200,425,o),
(200,507,cs),
(200,577,o),
(158,645,o),
(127,670,c)
);
},
{
closed = 1;
nodes = (
(-90,700,l),
(380,700,l),
(450,620,l),
(-20,620,l)
);
}
);
width = 360;
},
{
anchors = (
{
name = bottom;
position = "{410, 440}";
},
{
name = top;
position = "{169, 700}";
}
);
layerId = "A45B8B48-B1A0-4768-860A-A9A091AD15CC";
shapes = (
{
closed = 1;
nodes = (
(139,355,l),
(139,275,o),
(180,161,o),
(230,100,c),
(330,100,l),
(330,-20,l),
(328,-20,l),
(84,126,o),
(41,347,o),
(41,367,cs),
(41,373,o),
(41,382,o),
(41,382,c)
);
},
{
closed = 1;
nodes = (
(154,650,l),
(252,604,o),
(310,529,o),
(310,449,cs),
(310,360,o),
(248,307,o),
(142,307,cs),
(108,307,o),
(68,321,o),
(51,336,c),
(41,382,l),
(54,381,o),
(96,380,o),
(121,380,cs),
(190,380,o),
(230,421,o),
(230,490,cs),
(230,558,o),
(192,618,o),
(127,650,c)
);
},
{
closed = 1;
nodes = (
(-90,700,l),
(380,700,l),
(450,620,l),
(-20,620,l)
);
}
);
width = 360;
}
);
unicode = 2352;
},
{
color = 7;
glyphname = "la-deva";
layers = (
{
layerId = "7D96EDF2-9291-42EB-8A89-114070E423BA";
associatedMasterId = "A45B8B48-B1A0-4768-860A-A9A091AD15CC";
name = Regular2;
shapes = (
{
attr = {
strokeWidth = 80;
lineCapEnd = 4;
lineCapStart = 4;
};
closed = 0;
nodes = (
(560,661,l),
(560,0,l)
);
},
{
attr = {
strokeWidth = 80;
lineCapEnd = 4;
lineCapStart = 4;
};
closed = 0;
nodes = (
(560,420,l),
(550,420,o),
(535,420,o),
(535,420,c),
(442,420,o),
(338,403,o),
(338,255,cs),
(338,239,o),
(338,218,o),
(340,200,c)
);
},
{
attr = {
strokeWidth = 80;
lineCapEnd = 4;
lineCapStart = 4;
};
closed = 0;
nodes = (
(210,0,l),
(130,96,o),
(80,175,o),
(80,280,cs),
(80,371,o),
(142,420,o),
(220,420,cs),
(272,420,o),
(344,397,o),
(354,328,c)
);
},
{
attr = {
strokeWidth = 76;
};
closed = 0;
nodes = (
(-20,660,l),
(717,660,l)
);
}
);
width = 700;
},
{
anchors = (
{
name = top;
position = "{553, 700}";
},
{
name = bottom;
position = "{619, -20}";
}
);
layerId = "A45B8B48-B1A0-4768-860A-A9A091AD15CC";
shapes = (
{
closed = 1;
nodes = (
(300,20,l),
(228,20,o),
(120,175,o),
(120,277,cs),
(120,349,o),
(149,380,o),
(216,380,cs),
(258,380,o),
(296,367,o),
(296,352,c),
(298,352,l),
(298,417,o),
(253,460,o),
(185,460,cs),
(100,460,o),
(40,396,o),
(40,307,cs),
(40,202,o),
(161,51,o),
(300,-20,c)
);
},
{
closed = 1;
nodes = (
(300,101,l),
(163,101,l),
(208,47,l),
(300,-19,l)
);
},
{
closed = 1;
nodes = (
(608,-20,l),
(598,126,l),
(545,166,l),
(480,44,l),
(480,40,l),
(604,-20,l)
);
},
{
closed = 1;
nodes = (
(380,233,l),
(380,293,o),
(381,316,o),
(381,325,cs),
(381,391,o),
(437,409,o),
(531,372,c),
(531,379,l),
(528,379,o),
(501,460,o),
(410,460,cs),
(326,460,o),
(280,387,o),
(280,270,c)
);
},
{
closed = 1;
nodes = (
(600,66,l),
(598,352,l),
(606,663,l),
(514,663,l),
(524,381,l),
(520,66,l)
);
},
{
closed = 1;
nodes = (
(790,620,l),
(720,700,l),
(-90,700,l),
(-20,620,l)
);
}
);
width = 700;
}
);
unicode = 2354;
},
{
color = 7;
glyphname = "va-deva";
layers = (
{
layerId = "7D96EDF2-9291-42EB-8A89-114070E423BA";
associatedMasterId = "A45B8B48-B1A0-4768-860A-A9A091AD15CC";
name = Regular2;
shapes = (
{
attr = {
strokeWidth = 76;
};
closed = 0;
nodes = (
(-21,660,l),
(579,660,l)
);
},
{
attr = {
strokeWidth = 80;
};
closed = 0;
nodes = (
(420,659,l),
(420,0,l)
);
},
{
attr = {
strokeWidth = 80;
};
closed = 0;
nodes = (
(423,236,l),
(402,174,o),
(336,140,o),
(266,140,cs),
(175,140,o),
(80,197,o),
(80,310,cs),
(80,412,o),
(156,480,o),
(261,480,cs),
(335,480,o),
(402,446,o),
(423,384,c)
);
}
);
width = 560;
},
{
anchors = (
{
name = bottom;
position = "{460, 0}";
},
{
name = top;
position = "{415, 700}";
}
);
layerId = "A45B8B48-B1A0-4768-860A-A9A091AD15CC";
shapes = (
{
closed = 1;
nodes = (
(399,120,o),
(451,229,o),
(451,314,c),
(376,314,l),
(376,247,o),
(316,190,o),
(234,190,cs),
(158,190,o),
(110,237,o),
(110,304,cs),
(110,395,o),
(159,449,o),
(271,449,cs),
(328,449,o),
(387,427,o),
(387,427,c),
(390,431,l),
(348,481,o),
(270,520,o),
(205,520,cs),
(133,520,o),
(40,460,o),
(40,337,cs),
(40,213,o),
(177,120,o),
(274,120,cs)
);
},
{
closed = 1;
nodes = (
(461,-20,l),
(451,126,l),
(398,166,l),
(333,44,l),
(333,40,l),
(457,-20,l)
);
},
{
closed = 1;
nodes = (
(453,66,l),
(451,352,l),
(459,663,l),
(367,663,l),
(377,381,l),
(373,66,l)
);
},
{
closed = 1;
nodes = (
(640,620,l),
(580,700,l),
(-90,700,l),
(-20,620,l)
);
}
);
width = 560;
}
);
unicode = 2357;
},
{
color = 7;
glyphname = "sha-deva";
layers = (
{
layerId = "7D96EDF2-9291-42EB-8A89-114070E423BA";
associatedMasterId = "A45B8B48-B1A0-4768-860A-A9A091AD15CC";
name = Regular2;
shapes = (
{
attr = {
strokeWidth = 80;
};
closed = 0;
nodes = (
(600,627,l),
(600,0,l)
);
},
{
attr = {
strokeWidth = 80;
};
closed = 0;
nodes = (
(295,3,l),
(267,45,o),
(97,338,o),
(80,371,c)
);
},
{
attr = {
strokeWidth = 80;
};
closed = 0;
nodes = (
(220,472,l),
(169,472,o),
(140,510,o),
(140,558,cs),
(140,623,o),
(193,664,o),
(264,664,cs),
(412,664,o),
(410,508,o),
(410,483,cs),
(410,259,o),
(169,301,o),
(104,301,c)
);
},
{
attr = {
strokeWidth = 76;
};
closed = 0;
nodes = (
(478,660,l),
(761,660,l)
);
}
);
width = 740;
},
{
layerId = "30043BD2-BFA1-4A87-9985-99CA7B3DDE19";
associatedMasterId = "A45B8B48-B1A0-4768-860A-A9A091AD15CC";
name = 1;
shapes = (
{
closed = 1;
nodes = (
(418,700,l),
(702,700,l),
(772,620,l),
(480,620,l)
);
},
{
closed = 1;
nodes = (
(140,360,l),
(140,300,o),
(179,196,o),
(250,100,c),
(380,100,l),
(380,-20,l),
(245,-20,o),
(80,189,o),
(80,363,c)
);
},
{
closed = 1;
nodes = (
(346,608,o),
(317,651,o),
(260,651,cs),
(214,651,o),
(193,628,o),
(193,564,cs),
(193,520,o),
(229,491,o),
(279,491,c),
(281,467,l),
(227,467,o),
(114,503,o),
(114,583,cs),
(114,651,o),
(148,700,o),
(220,700,cs),
(355,700,o),
(419,596,o),
(419,491,cs),
(419,336,o),
(303,279,o),
(201,279,cs),
(161,279,o),
(116,293,o),
(96,314,c),
(96,362,l),
(108,360,o),
(138,360,o),
(158,360,cs),
(300,360,o),
(346,413,o),
(346,510,cs)
);
}
);
width = 740;
},
{
anchors = (
{
name = top;
position = "{594, 700}";
},
{
name = bottom;
position = "{654, 0}";
}
);
layerId = "A45B8B48-B1A0-4768-860A-A9A091AD15CC";
shapes = (
{
closed = 1;
nodes = (
(418,700,l),
(760,700,l),
(830,620,l),
(480,620,l)
);
},
{
closed = 1;
nodes = (
(558,66,l),
(562,381,l),
(552,663,l),
(644,663,l),
(636,352,l),
(638,66,l)
);
},
{
closed = 1;
nodes = (
(583,166,l),
(636,126,l),
(646,-20,l),
(642,-20,l),
(518,40,l),
(518,44,l)
);
},
{
closed = 1;
nodes = (
(349,616,o),
(285,651,o),
(246,651,cs),
(211,651,o),
(178,636,o),
(178,579,cs),
(178,514,o),
(256,500,o),
(299,489,c),
(299,450,l),
(227,468,o),
(98,516,o),
(98,600,cs),
(98,663,o),
(141,701,o),
(208,701,cs),
(318,701,o),
(429,595,o),
(429,461,cs),
(429,341,o),
(360,274,o),
(240,274,cs),
(201,274,o),
(136,289,o),
(105,314,c),
(95,360,l),
(103,359,o),
(135,357,o),
(157,357,cs),
(308,357,o),
(349,380,o),
(349,518,cs)
);
},
{
closed = 1;
nodes = (
(193,333,l),
(193,253,o),
(233,161,o),
(283,100,c),
(381,100,l),
(381,-20,l),
(137,126,o),
(95,325,o),
(95,345,cs),
(95,351,o),
(95,360,o),
(95,360,c)
);
}
);
width = 740;
}
);
unicode = 2358;
},
{
color = 7;
glyphname = "ssa-deva";
layers = (
{
layerId = "7D96EDF2-9291-42EB-8A89-114070E423BA";
associatedMasterId = "A45B8B48-B1A0-4768-860A-A9A091AD15CC";
name = Regular2;
shapes = (
{
attr = {
strokeWidth = 80;
};
closed = 0;
nodes = (
(440,306,l),
(440,306,o),
(120,626,o),
(120,629,c)
);
},
{
attr = {
strokeWidth = 80;
};
closed = 0;
nodes = (
(440,660,l),
(440,0,l)
);
},
{
attr = {
strokeWidth = 80;
};
closed = 0;
nodes = (
(120,660,l),
(120,380,ls),
(120,310,o),
(183,240,o),
(280,240,cs),
(350,240,o),
(440,277,o),
(440,380,c)
);
},
{
attr = {
strokeWidth = 76;
};
closed = 0;
nodes = (
(-21,660,l),
(633,660,l)
);
}
);
width = 580;
},
{
anchors = (
{
name = top;
position = "{438, 700}";
},
{
name = bottom;
position = "{499, 0}";
}
);
layerId = "A45B8B48-B1A0-4768-860A-A9A091AD15CC";
shapes = (
{
closed = 1;
nodes = (
(158,607,l),
(172,590,o),
(412,350,o),
(413,349,c),
(379,312,l),
(113,577,o),
(116,578,o),
(116,586,c)
);
},
{
closed = 1;
nodes = (
(-90,700,l),
(600,700,l),
(670,620,l),
(-20,620,l)
);
},
{
closed = 1;
nodes = (
(400,66,l),
(404,381,l),
(394,663,l),
(486,663,l),
(478,352,l),
(480,66,l)
);
},
{
closed = 1;
nodes = (
(425,166,l),
(478,126,l),
(488,-20,l),
(484,-20,l),
(360,40,l),
(360,44,l)
);
},
{
closed = 1;
nodes = (
(149,220,o),
(80,294,o),
(80,420,cs),
(80,660,l),
(160,660,l),
(160,400,ls),
(160,314,o),
(194,270,o),
(258,270,cs),
(321,270,o),
(376,322,o),
(404,400,c),
(440,299,l),
(398,247,o),
(341,220,o),
(266,220,cs)
);
}
);
width = 580;
}
);
unicode = 2359;
},
{
color = 7;
glyphname = "sa-deva";
layers = (
{
layerId = "7D96EDF2-9291-42EB-8A89-114070E423BA";
associatedMasterId = "A45B8B48-B1A0-4768-860A-A9A091AD15CC";
name = Regular2;
shapes = (
{
attr = {
strokeWidth = 80;
lineCapStart = 4;
};
closed = 0;
nodes = (
(560,676,l),
(560,0,l)
);
},
{
attr = {
strokeWidth = 80;
lineCapStart = 4;
};
closed = 0;
nodes = (
(549,320,l),
(116,320,l)
);
},
{
attr = {
strokeWidth = 80;
lineCapStart = 4;
};
closed = 0;
nodes = (
(301,3,l),
(273,45,o),
(92,360,o),
(75,393,c)
);
},
{
attr = {
strokeWidth = 80;
lineCapStart = 4;
};
closed = 0;
nodes = (
(120,660,l),
(252,660,o),
(300,593,o),
(300,499,cs),
(300,407,o),
(254,340,o),
(99,340,c)
);
},
{
attr = {
strokeWidth = 76;
};
closed = 0;
nodes = (
(-21,660,l),
(749,660,l)
);
}
);
width = 700;
},
{
anchors = (
{
name = top;
position = "{554, 700}";
},
{
name = bottom;
position = "{620, 0}";
}
);
layerId = "A45B8B48-B1A0-4768-860A-A9A091AD15CC";
shapes = (
{
closed = 1;
nodes = (
(509,66,l),
(513,381,l),
(503,663,l),
(595,663,l),
(587,352,l),
(589,66,l)
);
},
{
closed = 1;
nodes = (
(534,166,l),
(587,126,l),
(597,-20,l),
(593,-20,l),
(469,40,l),
(469,44,l)
);
},
{
closed = 1;
nodes = (
(-90,700,l),
(720,700,l),
(790,620,l),
(-20,620,l)
);
},
{
closed = 1;
nodes = (
(538,291,l),
(77,290,l),
(77,350,l),
(538,373,l)
);
},
{
closed = 1;
nodes = (
(154,650,l),
(252,604,o),
(310,529,o),
(310,449,cs),
(310,360,o),
(248,307,o),
(142,307,cs),
(108,307,o),
(68,321,o),
(51,336,c),
(41,382,l),
(54,381,o),
(96,380,o),
(121,380,cs),
(190,380,o),
(230,421,o),
(230,490,cs),
(230,558,o),
(192,618,o),
(127,650,c)
);
},
{
closed = 1;
nodes = (
(139,355,l),
(139,275,o),
(180,161,o),
(230,100,c),
(330,100,l),
(330,-20,l),
(328,-20,l),
(84,126,o),
(41,347,o),
(41,367,cs),
(41,373,o),
(41,382,o),
(41,382,c)
);
}
);
width = 700;
}
);
unicode = 2360;
},
{
color = 7;
glyphname = "ha-deva";
layers = (
{
layerId = "7D96EDF2-9291-42EB-8A89-114070E423BA";
associatedMasterId = "A45B8B48-B1A0-4768-860A-A9A091AD15CC";
name = Regular2;
shapes = (
{
attr = {
strokeWidth = 80;
};
closed = 0;
nodes = (
(359,643,l),
(359,480,l),
(180,480,ls),
(112,480,o),
(80,434,o),
(80,380,cs),
(80,337,o),
(100,289,o),
(164,254,c)
);
},
{
attr = {
strokeWidth = 80;
};
closed = 0;
nodes = (
(430,130,l),
(437,232,o),
(373,300,o),
(270,300,cs),
(160,300,o),
(100,221,o),
(100,134,cs),
(100,57,o),
(148,-42,o),
(293,-42,cs),
(390,-42,o),
(427,4,o),
(431,6,c)
);
},
{
attr = {
strokeWidth = 76;
};
closed = 0;
nodes = (
(-21,660,l),
(519,660,l)
);
}
);
width = 500;
},
{
anchors = (
{
name = bottom;
position = "{332, -40}";
},
{
name = right;
position = "{480, 327}";
},
{
name = top;
position = "{360, 700}";
}
);
layerId = "A45B8B48-B1A0-4768-860A-A9A091AD15CC";
shapes = (
{
closed = 1;
nodes = (
(320,660,l),
(400,660,l),
(400,440,l),
(180,440,ls),
(136,440,o),
(110,413,o),
(110,370,cs),
(110,326,o),
(124,282,o),
(156,267,c),
(154,261,l),
(82,278,o),
(40,334,o),
(40,400,cs),
(40,480,o),
(100,520,o),
(180,520,cs),
(320,520,l)
);
},
{
closed = 1;
nodes = (
(320,140,l),
(348,172,o),
(398,229,o),
(401,238,c),
(401,238,o),
(369,260,o),
(300,260,cs),
(166,260,o),
(140,231,o),
(140,150,cs),
(140,93,o),
(178,40,o),
(190,40,cs),
(210,40,o),
(240,40,o),
(360,40,c),
(360,-60,l),
(273,-60,o),
(60,42,o),
(60,180,cs),
(60,274,o),
(133,340,o),
(270,340,cs),
(423,340,o),
(477,213,o),
(420,100,c)
);
},
{
closed = 1;
nodes = (
(-90,700,l),
(500,700,l),
(570,620,l),
(-20,620,l)
);
},
{
closed = 1;
nodes = (
(400,252,o),
(406,258,o),
(415,258,cs),
(423,258,o),
(429,252,o),
(429,244,cs),
(429,235,o),
(423,229,o),
(415,229,cs),
(406,229,o),
(400,235,o),
(400,244,cs)
);
},
{
closed = 1;
nodes = (
(164,37,o),
(170,43,o),
(179,43,cs),
(187,43,o),
(193,37,o),
(193,29,cs),
(193,20,o),
(187,14,o),
(179,14,cs),
(170,14,o),
(164,20,o),
(164,29,cs)
);
}
);
width = 480;
}
);
unicode = 2361;
},
{
color = 7;
glyphname = "aasign-deva";
layers = (
{
layerId = "7D96EDF2-9291-42EB-8A89-114070E423BA";
associatedMasterId = "A45B8B48-B1A0-4768-860A-A9A091AD15CC";
name = Regular2;
shapes = (
{
attr = {
strokeWidth = 80;
};
closed = 0;
nodes = (
(140,660,l),
(140,660,o),
(140,0,o),
(140,0,c)
);
},
{
attr = {
strokeWidth = 80;
strokeHeight = 76;
};
closed = 0;
nodes = (
(-20,660,l),
(300,660,l)
);
}
);
width = 280;
},
{
layerId = "A45B8B48-B1A0-4768-860A-A9A091AD15CC";
shapes = (
{
closed = 1;
nodes = (
(99,66,l),
(103,381,l),
(93,663,l),
(185,663,l),
(177,352,l),
(179,66,l)
);
},
{
closed = 1;
nodes = (
(124,166,l),
(177,126,l),
(187,-20,l),
(183,-20,l),
(59,40,l),
(59,44,l)
);
},
{
closed = 1;
nodes = (
(-87,700,l),
(299,700,l),
(369,620,l),
(-25,620,l)
);
}
);
width = 280;
}
);
unicode = 2366;
},
{
color = 7;
glyphname = "isign-deva";
layers = (
{
layerId = "835C12BC-0A27-407E-B47B-64FB36D9F8D6";
associatedMasterId = "A45B8B48-B1A0-4768-860A-A9A091AD15CC";
name = "Wide_15 May 26 at 18:19";
shapes = (
{
closed = 1;
nodes = (
(193,-20,l),
(183,126,l),
(130,166,l),
(65,44,l),
(65,40,l),
(189,-20,l)
);
},
{
closed = 1;
nodes = (
(185,66,l),
(183,352,l),
(191,663,l),
(99,663,l),
(109,381,l),
(105,66,l)
);
},
{
closed = 1;
nodes = (
(397,620,l),
(327,700,l),
(-137,700,l),
(-75,620,l)
);
},
{
closed = 1;
nodes = (
(689,734,l),
(572,896,o),
(407,989,o),
(237,989,cs),
(107,989,o),
(30,931,o),
(30,833,cs),
(30,753,o),
(112,669,o),
(214,643,c),
(168,700,l),
(132,724,o),
(110,762,o),
(110,805,cs),
(110,874,o),
(171,914,o),
(275,914,cs),
(418,914,o),
(559,843,o),
(661,720,c)
);
}
);
width = 300;
},
{
layerId = "7D96EDF2-9291-42EB-8A89-114070E423BA";
associatedMasterId = "A45B8B48-B1A0-4768-860A-A9A091AD15CC";
name = Regular2;
shapes = (
{
attr = {
strokeWidth = 80;
};
closed = 0;
nodes = (
(160,0,l),
(160,231,o),
(160,-20,o),
(160,680,c),
(112,738,o),
(70,829,o),
(130,889,cs),
(197,956,o),
(302,922,o),
(352,879,cs),
(471,776,o),
(501,660,o),
(625,660,c)
);
},
{
attr = {
strokeWidth = 80;
};
closed = 0;
nodes = (
(-20,660,l),
(655,660,l)
);
}
);
width = 359;
},
{
layerId = "21ADEF33-6B7F-4644-9132-BD278B475EB4";
associatedMasterId = "A45B8B48-B1A0-4768-860A-A9A091AD15CC";
name = "15 May 26 at 18:18";
shapes = (
{
closed = 1;
nodes = (
(193,-20,l),
(183,126,l),
(130,166,l),
(65,44,l),
(65,40,l),
(189,-20,l)
);
},
{
closed = 1;
nodes = (
(185,66,l),
(183,352,l),
(191,663,l),
(99,663,l),
(109,381,l),
(105,66,l)
);
},
{
closed = 1;
nodes = (
(397,620,l),
(327,700,l),
(-137,700,l),
(-75,620,l)
);
},
{
closed = 1;
nodes = (
(469,734,l),
(388,896,o),
(274,989,o),
(157,989,cs),
(65,989,o),
(10,938,o),
(10,853,cs),
(10,765,o),
(101,672,o),
(214,643,c),
(168,700,l),
(120,728,o),
(90,774,o),
(90,825,cs),
(90,881,o),
(129,914,o),
(195,914,cs),
(286,914,o),
(376,843,o),
(441,720,c)
);
}
);
width = 300;
},
{
layerId = "A45B8B48-B1A0-4768-860A-A9A091AD15CC";
shapes = (
{
closed = 1;
nodes = (
(193,-20,l),
(183,126,l),
(130,166,l),
(65,44,l),
(65,40,l),
(189,-20,l)
);
},
{
closed = 1;
nodes = (
(447,743,l),
(350,870,o),
(274,979,o),
(157,979,cs),
(65,979,o),
(10,938,o),
(10,853,cs),
(10,765,o),
(133,687,o),
(140,682,c),
(158,698,l),
(114,741,o),
(90,774,o),
(90,825,cs),
(90,881,o),
(129,904,o),
(195,904,cs),
(286,904,o),
(329,840,o),
(419,729,c)
);
},
{
closed = 1;
nodes = (
(193,-20,l),
(183,126,l),
(130,166,l),
(65,44,l),
(65,40,l),
(189,-20,l)
);
},
{
closed = 1;
nodes = (
(185,66,l),
(183,352,l),
(191,663,l),
(99,663,l),
(109,381,l),
(105,66,l)
);
},
{
closed = 1;
nodes = (
(397,620,l),
(327,700,l),
(-137,700,l),
(-75,620,l)
);
}
);
width = 280;
}
);
unicode = 2367;
},
{
color = 7;
glyphname = "iisign-deva";
layers = (
{
layerId = "5F607E9C-FA1B-4DD8-AF5C-BDDF25597A06";
associatedMasterId = "A45B8B48-B1A0-4768-860A-A9A091AD15CC";
name = "Wide_15 May 26 at 18:13";
shapes = (
{
closed = 1;
nodes = (
(-362,700,l),
(-398,723,o),
(-420,762,o),
(-420,805,cs),
(-420,874,o),
(-362,914,o),
(-265,914,cs),
(-126,914,o),
(10,851,o),
(102,744,c),
(102,735,o),
(102,699,o),
(102,658,c),
(190,689,l),
(70,878,o),
(-113,989,o),
(-303,989,cs),
(-427,989,o),
(-500,931,o),
(-500,833,cs),
(-500,754,o),
(-418,669,o),
(-316,643,c)
);
},
{
closed = 1;
nodes = (
(193,-20,l),
(183,126,l),
(130,166,l),
(65,44,l),
(65,40,l),
(189,-20,l)
);
},
{
closed = 1;
nodes = (
(185,66,l),
(183,352,l),
(191,663,l),
(99,663,l),
(109,381,l),
(105,66,l)
);
},
{
closed = 1;
nodes = (
(397,620,l),
(327,700,l),
(-347,700,l),
(-285,620,l)
);
}
);
width = 300;
},
{
layerId = "7D96EDF2-9291-42EB-8A89-114070E423BA";
associatedMasterId = "A45B8B48-B1A0-4768-860A-A9A091AD15CC";
name = Regular2;
shapes = (
{
attr = {
strokeWidth = 80;
};
closed = 0;
nodes = (
(-144,652,l),
(-248,717,o),
(-278,819,o),
(-223,889,cs),
(-174,953,o),
(-59,936,o),
(-6,885,cs),
(45,836,o),
(123,686,o),
(255,658,c)
);
},
{
attr = {
strokeWidth = 80;
};
closed = 0;
nodes = (
(-357,660,l),
(409,660,l)
);
},
{
attr = {
strokeWidth = 80;
};
closed = 0;
nodes = (
(200,680,l),
(200,-20,o),
(200,231,o),
(200,0,c)
);
}
);
width = 380;
},
{
layerId = "39A54AF2-6A23-4E3B-AF2B-2DAF41F033F0";
associatedMasterId = "A45B8B48-B1A0-4768-860A-A9A091AD15CC";
name = "15 May 26 at 18:13";
shapes = (
{
closed = 1;
nodes = (
(193,-20,l),
(183,126,l),
(130,166,l),
(65,44,l),
(65,40,l),
(189,-20,l)
);
},
{
closed = 1;
nodes = (
(185,66,l),
(183,352,l),
(191,663,l),
(99,663,l),
(109,381,l),
(105,66,l)
);
},
{
closed = 1;
nodes = (
(397,620,l),
(327,700,l),
(-137,700,l),
(-75,620,l)
);
}
);
width = 300;
},
{
layerId = "A45B8B48-B1A0-4768-860A-A9A091AD15CC";
shapes = (
{
closed = 1;
nodes = (
(193,-20,l),
(183,126,l),
(130,166,l),
(65,44,l),
(65,40,l),
(189,-20,l)
);
},
{
closed = 1;
nodes = (
(185,66,l),
(183,352,l),
(191,663,l),
(99,663,l),
(109,381,l),
(105,66,l)
);
},
{
closed = 1;
nodes = (
(397,620,l),
(327,700,l),
(-137,700,l),
(-75,620,l)
);
},
{
closed = 1;
nodes = (
(170,687,l),
(48,885,o),
(-58,980,o),
(-158,980,cs),
(-222,980,o),
(-266,940,o),
(-266,882,cs),
(-266,805,o),
(-190,748,o),
(-170,730,c),
(-146,743,l),
(-151,748,o),
(-190,788,o),
(-190,839,cs),
(-190,882,o),
(-164,907,o),
(-118,907,cs),
(-13,907,o),
(54,780,o),
(123,686,c)
);
}
);
width = 300;
}
);
unicode = 2368;
},
{
color = 7;
glyphname = "usign-deva";
layers = (
{
layerId = "7D96EDF2-9291-42EB-8A89-114070E423BA";
associatedMasterId = "A45B8B48-B1A0-4768-860A-A9A091AD15CC";
name = Regular2;
shapes = (
{
attr = {
strokeWidth = 80;
};
closed = 0;
nodes = (
(310,-73,l),
(353,7,o),
(465,-49,o),
(447,-130,cs),
(421,-249,o),
(108,-265,o),
(85,-39,c)
);
}
);
width = 521;
},
{
layerId = "46B6D1F0-F2FD-4146-B2F9-2C121398E696";
associatedMasterId = "A45B8B48-B1A0-4768-860A-A9A091AD15CC";
name = 2;
shapes = (
{
closed = 1;
nodes = (
(460,-93,o),
(430,0,o),
(309,0,cs),
(289,0,o),
(250,-4,o),
(240,-7,c),
(240,-7,o),
(240,-137,o),
(240,-137,c),
(240,-138,o),
(321,-60,o),
(342,-60,c),
(392,-60,o),
(400,-66,o),
(400,-94,cs),
(400,-148,o),
(350,-190,o),
(286,-190,cs),
(191,-190,o),
(151,-170,o),
(140,-159,c),
(140,-159,o),
(140,-86,o),
(140,-40,c),
(40,-40,l),
(40,-141,o),
(182,-260,o),
(303,-260,cs),
(390,-260,o),
(460,-198,o),
(460,-121,cs)
);
}
);
width = 521;
},
{
anchors = (
{
name = _bottom;
position = "{-242, 0}";
}
);
layerId = "25316F04-995D-4B30-9665-185E49B609EB";
associatedMasterId = "A45B8B48-B1A0-4768-860A-A9A091AD15CC";
name = "15 May 26 at 17:49";
shapes = (
{
closed = 1;
nodes = (
(-70,-66,o),
(-150,0,o),
(-242,0,cs),
(-287,0,o),
(-327,-19,o),
(-350,-50,c),
(-350,-50,o),
(-270,-126,o),
(-270,-126,c),
(-270,-127,o),
(-266,-109,o),
(-254,-90,cs),
(-237,-65,o),
(-218,-57,o),
(-193,-57,cs),
(-156,-57,o),
(-140,-74,o),
(-140,-116,cs),
(-140,-176,o),
(-164,-205,o),
(-255,-205,cs),
(-316,-205,o),
(-370,-189,o),
(-390,-169,c),
(-390,-169,o),
(-390,-96,o),
(-390,-50,c),
(-480,-50,l),
(-480,-137,o),
(-363,-270,o),
(-227,-270,cs),
(-137,-270,o),
(-70,-216,o),
(-70,-144,cs)
);
}
);
width = 0;
},
{
anchors = (
{
name = _bottom;
position = "{-100, 0}";
}
);
layerId = "A45B8B48-B1A0-4768-860A-A9A091AD15CC";
shapes = (
{
closed = 1;
nodes = (
(-59,-82,o),
(-123,-20,o),
(-214,-20,cs),
(-256,-20,o),
(-295,-41,o),
(-317,-78,c),
(-241,-141,l),
(-231,-100,o),
(-214,-75,o),
(-180,-75,cs),
(-146,-75,o),
(-116,-96,o),
(-116,-131,cs),
(-116,-185,o),
(-167,-213,o),
(-236,-213,cs),
(-295,-213,o),
(-352,-198,o),
(-371,-173,c),
(-371,-164,o),
(-371,-108,o),
(-371,-68,c),
(-481,-68,l),
(-413,-201,o),
(-308,-281,o),
(-200,-281,cs),
(-119,-281,o),
(-59,-228,o),
(-59,-158,cs)
);
}
);
width = 0;
}
);
unicode = 2369;
},
{
color = 7;
glyphname = "uusign-deva";
layers = (
{
layerId = "7D96EDF2-9291-42EB-8A89-114070E423BA";
associatedMasterId = "A45B8B48-B1A0-4768-860A-A9A091AD15CC";
name = Regular2;
shapes = (
{
attr = {
strokeWidth = 80;
};
closed = 0;
nodes = (
(203,-183,l),
(137,-245,o),
(54,-158,o),
(91,-85,cs),
(153,37,o),
(463,-68,o),
(460,-250,c)
);
}
);
width = 540;
},
{
anchors = (
{
name = _bottom;
position = "{-100, 0}";
}
);
layerId = "93E5E8C6-1194-4C1E-868E-441EA5551FEE";
associatedMasterId = "A45B8B48-B1A0-4768-860A-A9A091AD15CC";
name = "15 May 26 at 17:54";
shapes = (
{
closed = 1;
nodes = (
(-200,-194,o),
(-120,-260,o),
(-28,-260,cs),
(15,-260,o),
(44,-246,o),
(80,-210,c),
(80,-210,o),
(0,-144,o),
(0,-144,c),
(0,-143,o),
(-2,-162,o),
(-16,-180,cs),
(-34,-203,o),
(-58,-203,o),
(-74,-203,cs),
(-107,-203,o),
(-130,-188,o),
(-130,-136,cs),
(-130,-84,o),
(-106,-55,o),
(-43,-55,cs),
(51,-55,o),
(110,-121,o),
(130,-141,c),
(130,-141,o),
(130,-214,o),
(130,-260,c),
(220,-260,l),
(220,-203,o),
(110,10,o),
(-65,10,cs),
(-145,10,o),
(-200,-44,o),
(-200,-112,cs)
);
}
);
width = 0;
},
{
anchors = (
{
name = _bottom;
position = "{220, -20}";
}
);
layerId = "30043BD2-BFA1-4A87-9985-99CA7B3DDE19";
associatedMasterId = "A45B8B48-B1A0-4768-860A-A9A091AD15CC";
name = 1;
shapes = (
{
closed = 1;
nodes = (
(20,-194,o),
(100,-260,o),
(192,-260,cs),
(235,-260,o),
(264,-246,o),
(300,-210,c),
(300,-210,o),
(220,-134,o),
(220,-134,c),
(220,-133,o),
(216,-151,o),
(204,-170,cs),
(187,-195,o),
(168,-203,o),
(143,-203,cs),
(119,-203,o),
(90,-186,o),
(90,-144,cs),
(90,-84,o),
(114,-55,o),
(205,-55,cs),
(271,-55,o),
(330,-121,o),
(350,-141,c),
(350,-141,o),
(350,-214,o),
(350,-260,c),
(440,-260,l),
(440,-203,o),
(313,10,o),
(177,10,cs),
(75,10,o),
(20,-44,o),
(20,-116,cs)
);
}
);
width = 540;
},
{
anchors = (
{
name = _bottom;
position = "{-100, 0}";
}
);
layerId = "A45B8B48-B1A0-4768-860A-A9A091AD15CC";
shapes = (
{
closed = 1;
nodes = (
(-381,-219,o),
(-317,-280,o),
(-233,-280,cs),
(-184,-280,o),
(-145,-260,o),
(-123,-223,c),
(-199,-160,l),
(-209,-201,o),
(-226,-226,o),
(-261,-226,cs),
(-294,-226,o),
(-324,-205,o),
(-324,-166,cs),
(-324,-116,o),
(-273,-88,o),
(-221,-88,cs),
(-145,-88,o),
(-70,-149,o),
(-51,-174,c),
(-51,-183,o),
(-51,-240,o),
(-51,-280,c),
(59,-280,l),
(2,-158,o),
(-132,-20,o),
(-234,-20,cs),
(-321,-20,o),
(-381,-73,o),
(-381,-145,cs)
);
}
);
width = 0;
}
);
unicode = 2370;
},
{
color = 7;
glyphname = "esigncandra-deva";
layers = (
{
layerId = "7D96EDF2-9291-42EB-8A89-114070E423BA";
associatedMasterId = "A45B8B48-B1A0-4768-860A-A9A091AD15CC";
name = Regular2;
shapes = (
{
alignment = -1;
pos = (332,0);
ref = "candrabindu-deva";
}
);
width = 664;
},
{
anchors = (
{
name = _top;
position = "{323, 700}";
}
);
layerId = "A45B8B48-B1A0-4768-860A-A9A091AD15CC";
shapes = (
{
closed = 1;
nodes = (
(459,935,l),
(459,821,o),
(398,760,o),
(286,760,cs),
(160,760,o),
(89,837,o),
(89,972,c),
(129,940,l),
(129,860,o),
(167,830,o),
(269,830,cs),
(367,830,o),
(389,856,o),
(389,970,c)
);
}
);
width = 0;
}
);
unicode = 2373;
},
{
color = 7;
glyphname = "esign-deva";
layers = (
{
layerId = "7D96EDF2-9291-42EB-8A89-114070E423BA";
associatedMasterId = "A45B8B48-B1A0-4768-860A-A9A091AD15CC";
name = Regular2;
shapes = (
{
attr = {
strokeWidth = 80;
};
closed = 0;
nodes = (
(160,639,l),
(157,756,o),
(124,980,o),
(-51,920,c)
);
}
);
width = 260;
},
{
anchors = (
{
name = _top;
position = "{-148, 660}";
}
);
layerId = "52BC0065-B0DE-4F12-BBAB-219F25598650";
associatedMasterId = "A45B8B48-B1A0-4768-860A-A9A091AD15CC";
name = "15 May 26 at 18:03";
shapes = (
{
closed = 1;
nodes = (
(-176,651,l),
(-176,800,o),
(-318,880,o),
(-330,880,cs),
(-350,880,o),
(-350,880,o),
(-470,880,c),
(-470,980,l),
(-470,980,o),
(-375,990,o),
(-299,943,cs),
(-219,893,o),
(-115,790,o),
(-115,652,c)
);
}
);
width = 0;
},
{
anchors = (
{
name = _top;
position = "{-140, 700}";
}
);
layerId = "A45B8B48-B1A0-4768-860A-A9A091AD15CC";
shapes = (
{
closed = 1;
nodes = (
(-185,661,l),
(-185,761,o),
(-240,842,o),
(-280,880,c),
(-460,880,l),
(-460,980,l),
(-297,980,o),
(-108,796,o),
(-108,661,c)
);
}
);
width = 0;
}
);
unicode = 2375;
},
{
color = 7;
glyphname = "aisign-deva";
layers = (
{
anchors = (
{
name = _top;
position = "{-148, 660}";
}
);
layerId = "52BC0065-B0DE-4F12-BBAB-219F25598650";
associatedMasterId = "A45B8B48-B1A0-4768-860A-A9A091AD15CC";
name = "15 May 26 at 18:03";
shapes = (
{
alignment = -1;
pos = (293,0);
ref = "esign-deva";
}
);
width = 0;
},
{
layerId = "7D96EDF2-9291-42EB-8A89-114070E423BA";
associatedMasterId = "A45B8B48-B1A0-4768-860A-A9A091AD15CC";
name = Regular2;
shapes = (
{
attr = {
strokeWidth = 80;
};
closed = 0;
nodes = (
(125,638,l),
(102,707,o),
(37,824,o),
(-77,824,c)
);
},
{
attr = {
strokeWidth = 80;
};
closed = 0;
nodes = (
(160,645,l),
(157,762,o),
(156,938,o),
(11,955,c)
);
},
{
alignment = -1;
pos = (62,0);
ref = "esign-deva";
}
);
width = 260;
},
{
anchors = (
{
name = _top;
position = "{340, 700}";
}
);
layerId = "A45B8B48-B1A0-4768-860A-A9A091AD15CC";
shapes = (
{
closed = 1;
nodes = (
(316,660,l),
(321,757,o),
(196,770,o),
(200,770,c),
(20,770,l),
(20,855,l),
(143,855,o),
(364,765,o),
(390,660,c)
);
},
{
closed = 1;
nodes = (
(316,660,l),
(311,750,o),
(290,882,o),
(250,920,c),
(100,920,l),
(100,1020,l),
(304,1020,o),
(390,777,o),
(390,660,c)
);
}
);
width = 0;
}
);
unicode = 2376;
},
{
color = 7;
glyphname = "osign-deva";
layers = (
{
anchors = (
{
name = _top;
position = "{-148, 660}";
}
);
layerId = "52BC0065-B0DE-4F12-BBAB-219F25598650";
associatedMasterId = "A45B8B48-B1A0-4768-860A-A9A091AD15CC";
name = "15 May 26 at 18:03";
shapes = (
{
alignment = -1;
pos = (293,0);
ref = "esign-deva";
}
);
width = 0;
},
{
layerId = "7D96EDF2-9291-42EB-8A89-114070E423BA";
associatedMasterId = "A45B8B48-B1A0-4768-860A-A9A091AD15CC";
name = Regular2;
shapes = (
{
attr = {
strokeWidth = 80;
};
closed = 0;
nodes = (
(160,700,l),
(160,0,o),
(160,231,o),
(160,0,c)
);
},
{
attr = {
strokeWidth = 80;
};
closed = 0;
nodes = (
(-41,660,l),
(360,660,l)
);
},
{
attr = {
strokeWidth = 80;
};
closed = 0;
nodes = (
(160,645,l),
(157,762,o),
(124,980,o),
(-51,920,c)
);
},
{
alignment = -1;
pos = (82,0);
ref = "esign-deva";
}
);
width = 300;
},
{
layerId = "A45B8B48-B1A0-4768-860A-A9A091AD15CC";
shapes = (
{
closed = 1;
nodes = (
(-120,700,l),
(301,700,l),
(371,619,l),
(-59,620,l)
);
},
{
closed = 1;
nodes = (
(102,66,l),
(106,381,l),
(96,663,l),
(188,663,l),
(180,352,l),
(182,66,l)
);
},
{
closed = 1;
nodes = (
(127,166,l),
(180,126,l),
(190,-20,l),
(186,-20,l),
(62,40,l),
(62,44,l)
);
},
{
alignment = -1;
pos = (291,2);
ref = "esign-deva";
}
);
width = 300;
}
);
unicode = 2379;
},
{
color = 7;
glyphname = "ausign-deva";
layers = (
{
layerId = "7D96EDF2-9291-42EB-8A89-114070E423BA";
associatedMasterId = "A45B8B48-B1A0-4768-860A-A9A091AD15CC";
name = Regular2;
shapes = (
{
attr = {
strokeWidth = 80;
};
closed = 0;
nodes = (
(125,638,l),
(102,707,o),
(37,824,o),
(-77,824,c)
);
},
{
attr = {
strokeWidth = 80;
};
closed = 0;
nodes = (
(160,700,l),
(160,0,o),
(160,231,o),
(160,0,c)
);
},
{
attr = {
strokeWidth = 80;
};
closed = 0;
nodes = (
(-163,660,l),
(360,660,l)
);
},
{
attr = {
strokeWidth = 80;
};
closed = 0;
nodes = (
(160,645,l),
(157,762,o),
(156,938,o),
(11,955,c)
);
},
{
alignment = -1;
pos = (21,0);
ref = "aasign-deva";
},
{
alignment = -1;
pos = (99,0);
ref = "aisign-deva";
}
);
width = 321;
},
{
layerId = "A45B8B48-B1A0-4768-860A-A9A091AD15CC";
shapes = (
{
alignment = -1;
pos = (20,0);
ref = "aasign-deva";
},
{
alignment = -1;
pos = (-194,0);
ref = "aisign-deva";
}
);
width = 300;
}
);
unicode = 2380;
},
{
color = 7;
glyphname = "virama-deva";
layers = (
{
layerId = "7D96EDF2-9291-42EB-8A89-114070E423BA";
associatedMasterId = "A45B8B48-B1A0-4768-860A-A9A091AD15CC";
name = Regular2;
width = 664;
},
{
anchors = (
{
name = _bottom;
position = "{271, -40}";
}
);
layerId = "A45B8B48-B1A0-4768-860A-A9A091AD15CC";
shapes = (
{
closed = 1;
nodes = (
(80,-120,l),
(105,-120,o),
(177,-120,o),
(177,-120,cs),
(211,-141,o),
(230,-220,o),
(240,-280,c),
(340,-280,l),
(304,-227,o),
(184,-40,o),
(80,-40,c)
);
}
);
width = 0;
}
);
unicode = 2381;
},
{
color = 7;
glyphname = "zero-deva";
layers = (
{
layerId = "7D96EDF2-9291-42EB-8A89-114070E423BA";
associatedMasterId = "A45B8B48-B1A0-4768-860A-A9A091AD15CC";
name = Regular2;
width = 488;
},
{
layerId = "A45B8B48-B1A0-4768-860A-A9A091AD15CC";
shapes = (
{
closed = 1;
nodes = (
(460,535,o),
(400,602,o),
(300,602,cs),
(106,602,o),
(120,335,o),
(120,287,cs),
(120,128,o),
(186,78,o),
(283,78,cs),
(435,78,o),
(460,217,o),
(460,372,cs)
);
},
{
closed = 1;
nodes = (
(416,679,o),
(540,509,o),
(540,313,cs),
(540,135,o),
(461,0,o),
(308,0,cs),
(160,0,o),
(40,161,o),
(40,352,cs),
(40,533,o),
(125,679,o),
(273,679,cs)
);
}
);
width = 580;
}
);
unicode = 2406;
},
{
color = 7;
glyphname = "two-deva";
layers = (
{
layerId = "7D96EDF2-9291-42EB-8A89-114070E423BA";
associatedMasterId = "A45B8B48-B1A0-4768-860A-A9A091AD15CC";
name = Regular2;
width = 488;
},
{
layerId = "A45B8B48-B1A0-4768-860A-A9A091AD15CC";
shapes = (
{
closed = 1;
nodes = (
(279,410,o),
(232,374,o),
(115,374,cs),
(93,374,o),
(63,375,o),
(55,376,c),
(64,333,l),
(89,313,o),
(144,295,o),
(170,295,cs),
(285,295,o),
(366,358,o),
(366,472,cs),
(366,600,o),
(284,700,o),
(163,700,cs),
(99,700,o),
(45,664,o),
(45,604,cs),
(45,524,o),
(156,473,o),
(222,457,c),
(222,490,l),
(182,508,o),
(132,523,o),
(132,584,cs),
(132,639,o),
(168,652,o),
(199,652,cs),
(255,652,o),
(279,619,o),
(279,526,cs)
);
},
{
closed = 1;
nodes = (
(41,382,l),
(41,382,o),
(41,373,o),
(41,367,cs),
(41,347,o),
(114,126,o),
(358,-20,c),
(360,-20,l),
(360,100,l),
(260,100,l),
(210,161,o),
(139,275,o),
(139,355,c)
);
}
);
width = 440;
}
);
unicode = 2408;
},
{
color = 7;
glyphname = "three-deva";
layers = (
{
layerId = "7D96EDF2-9291-42EB-8A89-114070E423BA";
associatedMasterId = "A45B8B48-B1A0-4768-860A-A9A091AD15CC";
name = Regular2;
width = 488;
},
{
layerId = "A45B8B48-B1A0-4768-860A-A9A091AD15CC";
shapes = (
{
closed = 1;
nodes = (
(397,20,o),
(467,95,o),
(467,197,cs),
(467,289,o),
(397,360,o),
(307,360,c),
(297,347,l),
(351,348,o),
(389,294,o),
(389,216,cs),
(389,140,o),
(352,98,o),
(237,98,cs),
(177,98,o),
(152,117,o),
(124,140,c),
(154,220,l),
(45,274,l),
(45,148,o),
(153,20,o),
(277,20,cs)
);
},
{
closed = 1;
nodes = (
(75,158,l),
(98,100,o),
(135,-18,o),
(162,-97,c),
(271,-97,l),
(211,-30,o),
(172,57,o),
(124,140,c)
);
},
{
closed = 1;
nodes = (
(321,612,o),
(360,588,o),
(360,519,cs),
(360,426,o),
(325,387,o),
(174,387,c),
(233,290,l),
(340,290,o),
(428,388,o),
(428,486,cs),
(428,591,o),
(326,680,o),
(220,680,cs),
(150,680,o),
(101,642,o),
(76,612,c),
(154,524,l),
(154,542,o),
(173,612,o),
(263,612,cs)
);
}
);
width = 520;
}
);
unicode = 2409;
},
{
color = 7;
glyphname = "four-deva";
layers = (
{
layerId = "7D96EDF2-9291-42EB-8A89-114070E423BA";
associatedMasterId = "A45B8B48-B1A0-4768-860A-A9A091AD15CC";
name = Regular2;
width = 487;
},
{
layerId = "A45B8B48-B1A0-4768-860A-A9A091AD15CC";
shapes = (
{
closed = 1;
nodes = (
(62,672,l),
(276,558,o),
(483,303,o),
(483,151,cs),
(483,65,o),
(418,0,o),
(334,0,cs),
(237,0,o),
(137,98,o),
(137,203,cs),
(137,345,o),
(335,581,o),
(535,676,c),
(582,577,l),
(537,576,o),
(490,558,o),
(452,535,cs),
(329,461,o),
(199,303,o),
(199,163,cs),
(199,102,o),
(244,71,o),
(305,71,cs),
(380,71,o),
(420,107,o),
(420,173,cs),
(420,309,o),
(254,511,o),
(37,637,c)
);
}
);
width = 599;
}
);
unicode = 2410;
},
{
color = 7;
glyphname = "six-deva";
layers = (
{
layerId = "7D96EDF2-9291-42EB-8A89-114070E423BA";
associatedMasterId = "A45B8B48-B1A0-4768-860A-A9A091AD15CC";
name = Regular2;
width = 488;
},
{
layerId = "A45B8B48-B1A0-4768-860A-A9A091AD15CC";
shapes = (
{
closed = 1;
nodes = (
(466,191,l),
(508,85,o),
(502,51,o),
(570,-58,c),
(473,-59,l),
(461,32,o),
(440,147,o),
(440,147,c),
(440,147,o),
(438,191,o),
(438,206,c)
);
},
{
closed = 1;
nodes = (
(171,125,o),
(222,98,o),
(301,98,cs),
(357,98,o),
(420,126,o),
(440,145,c),
(424,261,l),
(434,252,o),
(541,187,o),
(541,183,c),
(507,91,o),
(445,20,o),
(336,20,cs),
(209,20,o),
(93,132,o),
(93,248,cs),
(93,348,o),
(180,420,o),
(302,420,c),
(361,323,l),
(271,323,ls),
(206,323,o),
(171,282,o),
(171,203,cs)
);
},
{
closed = 1;
nodes = (
(166,598,o),
(138,552,o),
(138,494,cs),
(138,440,o),
(162,392,o),
(193,380,c),
(193,373,l),
(197,371,o),
(54,380,o),
(54,511,cs),
(54,603,o),
(122,680,o),
(228,680,cs),
(260,680,o),
(302,680,o),
(355,645,c),
(355,645,o),
(381,551,o),
(381,551,c),
(381,551,o),
(377,551,o),
(377,551,c),
(353,571,o),
(295,597,o),
(231,598,c)
);
}
);
width = 488;
}
);
unicode = 2412;
},
{
glyphname = stemserif.001;
layers = (
{
layerId = "B1D80227-48B7-4B40-973B-981770F13846";
associatedMasterId = "A45B8B48-B1A0-4768-860A-A9A091AD15CC";
name = Layer1;
shapes = (
{
closed = 1;
nodes = (
(140,133,l),
(140,0,l),
(136,0,l),
(0,80,l),
(0,84,l),
(60,133,l),
(60,627,l),
(140,627,l)
);
}
);
width = 140;
},
{
layerId = "A45B8B48-B1A0-4768-860A-A9A091AD15CC";
width = 600;
}
);
},
{
glyphname = pa_bowl;
layers = (
{
layerId = "7D96EDF2-9291-42EB-8A89-114070E423BA";
associatedMasterId = "A45B8B48-B1A0-4768-860A-A9A091AD15CC";
name = Regular2;
shapes = (
{
closed = 1;
nodes = (
(0,660,l),
(80,660,l),
(80,380,ls),
(80,307,o),
(113,270,o),
(178,270,cs),
(255,270,o),
(313,322,o),
(323,400,c),
(399,400,l),
(399,285,o),
(332,220,o),
(215,220,cs),
(82,220,o),
(0,303,o),
(0,440,cs)
);
}
);
width = 400;
},
{
layerId = "A45B8B48-B1A0-4768-860A-A9A091AD15CC";
width = 600;
}
);
},
{
glyphname = stemserif;
layers = (
{
anchors = (
{
name = anutop;
position = "{80, 980}";
}
);
guides = (
{
position = "{0, 981}";
}
);
layerId = "7D96EDF2-9291-42EB-8A89-114070E423BA";
associatedMasterId = "A45B8B48-B1A0-4768-860A-A9A091AD15CC";
name = Regular2;
shapes = (
{
closed = 1;
nodes = (
(40,66,l),
(44,381,l),
(34,663,l),
(126,663,l),
(118,352,l),
(120,66,l)
);
},
{
closed = 1;
nodes = (
(65,166,l),
(118,126,l),
(128,-20,l),
(124,-20,l),
(0,40,l),
(0,44,l)
);
}
);
width = 128;
},
{
layerId = "A45B8B48-B1A0-4768-860A-A9A091AD15CC";
width = 600;
}
);
},
{
glyphname = Daa;
layers = (
{
anchors = (
{
name = anutop;
position = "{400, 980}";
},
{
name = bottom;
position = "{280, -50}";
},
{
name = right;
position = "{543, 325}";
},
{
name = top;
position = "{400, 660}";
}
);
layerId = "7D96EDF2-9291-42EB-8A89-114070E423BA";
associatedMasterId = "A45B8B48-B1A0-4768-860A-A9A091AD15CC";
name = Regular2;
shapes = (
{
closed = 1;
nodes = (
(190,300,l),
(158,300,o),
(130,335,o),
(130,375,cs),
(130,416,o),
(159,440,o),
(211,440,cs),
(440,440,l),
(440,660,l),
(360,660,l),
(360,520,l),
(211,520,ls),
(129,520,o),
(70,478,o),
(70,420,cs),
(70,348,o),
(162,225,o),
(214,225,cs),
(233,225,o),
(313,241,o),
(369,250,c),
(430,259,o),
(430,203,o),
(430,203,c),
(430,120,o),
(375,80,o),
(280,80,cs),
(201,80,o),
(151,90,o),
(140,100,c),
(140,200,l),
(40,200,l),
(40,187,o),
(120,0,o),
(290,0,cs),
(401,0,o),
(490,54,o),
(490,159,cs),
(490,249,o),
(421,341,o),
(360,330,cs)
);
}
);
width = 500;
},
{
layerId = "A45B8B48-B1A0-4768-860A-A9A091AD15CC";
width = 600;
}
);
},
{
glyphname = Aa_bowl;
layers = (
{
layerId = "7D96EDF2-9291-42EB-8A89-114070E423BA";
associatedMasterId = "A45B8B48-B1A0-4768-860A-A9A091AD15CC";
name = Regular2;
shapes = (
{
closed = 1;
nodes = (
(120,280,l),
(20,280,l),
(20,198,o),
(139,40,o),
(280,40,cs),
(377,40,o),
(460,106,o),
(460,212,cs),
(460,315,o),
(404,392,o),
(316,392,c),
(306,370,l),
(360,371,o),
(386,329,o),
(386,244,cs),
(386,160,o),
(350,120,o),
(246,120,cs),
(163,120,o),
(120,150,o),
(120,150,c)
);
},
{
closed = 1;
nodes = (
(324,630,o),
(358,605,o),
(358,530,cs),
(358,470,o),
(324,430,o),
(180,430,c),
(240,330,l),
(342,330,o),
(423,401,o),
(423,501,cs),
(423,609,o),
(332,700,o),
(211,700,cs),
(157,700,o),
(111,681,o),
(88,650,c),
(160,570,l),
(160,581,o),
(189,630,o),
(256,630,cs)
);
},
{
closed = 1;
nodes = (
(359,377,l),
(386,310,l),
(670,310,l),
(671,404,l)
);
}
);
width = 671;
},
{
layerId = "A45B8B48-B1A0-4768-860A-A9A091AD15CC";
width = 600;
}
);
},
{
glyphname = "nukta-deva";
layers = (
{
layerId = "7D96EDF2-9291-42EB-8A89-114070E423BA";
associatedMasterId = "A45B8B48-B1A0-4768-860A-A9A091AD15CC";
name = Regular2;
shapes = (
{
closed = 1;
nodes = (
(57,95,l),
(112,152,l),
(55,209,l),
(0,152,l)
);
}
);
width = 112;
},
{
layerId = "A45B8B48-B1A0-4768-860A-A9A091AD15CC";
shapes = (
{
closed = 1;
nodes = (
(232,307,l),
(287,364,l),
(230,421,l),
(175,364,l)
);
}
);
width = 0;
}
);
unicode = 2364;
},
{
glyphname = "purnaviram-deva";
layers = (
{
layerId = "7D96EDF2-9291-42EB-8A89-114070E423BA";
associatedMasterId = "A45B8B48-B1A0-4768-860A-A9A091AD15CC";
name = Regular2;
shapes = (
{
closed = 1;
nodes = (
(4,0,l),
(8,378,l),
(0,760,l),
(98,691,l),
(92,349,l),
(94,-60,l)
);
}
);
width = 98;
},
{
layerId = "A45B8B48-B1A0-4768-860A-A9A091AD15CC";
shapes = (
{
closed = 1;
nodes = (
(97,-20,l),
(103,315,l),
(93,780,l),
(185,740,l),
(177,286,l),
(183,-60,l)
);
}
);
width = 280;
}
);
unicode = 2404;
},
{
glyphname = "ke-deva";
layers = (
{
layerId = "7D96EDF2-9291-42EB-8A89-114070E423BA";
associatedMasterId = "A45B8B48-B1A0-4768-860A-A9A091AD15CC";
name = Regular2;
shapes = (
{
attr = {
strokeWidth = 80;
};
closed = 0;
nodes = (
(420,660,l),
(420,0,l)
);
},
{
attr = {
strokeWidth = 80;
strokeHeight = 76;
};
closed = 0;
nodes = (
(-31,660,l),
(849,660,l)
);
},
{
attr = {
strokeWidth = 80;
strokeHeight = 76;
};
closed = 0;
nodes = (
(419,201,l),
(419,201,o),
(353,140,o),
(260,140,cs),
(148,140,o),
(80,204,o),
(80,310,cs),
(80,416,o),
(148,482,o),
(260,482,cs),
(319,482,o),
(381,458,o),
(419,401,c),
(453,458,o),
(512,480,o),
(580,480,cs),
(679,480,o),
(740,416,o),
(740,310,cs),
(740,204,o),
(679,140,o),
(580,140,cs),
(568,140,o),
(554,141,o),
(539,141,c)
);
},
{
attr = {
strokeWidth = 80;
};
closed = 0;
nodes = (
(502,639,l),
(499,756,o),
(466,980,o),
(291,920,c)
);
}
);
width = 820;
},
{
layerId = "A45B8B48-B1A0-4768-860A-A9A091AD15CC";
width = 600;
}
);
},
{
glyphname = "gya-deva";
layers = (
{
anchors = (
{
name = top;
position = "{567, 700}";
},
{
name = bottom;
position = "{601, 0}";
}
);
layerId = "30043BD2-BFA1-4A87-9985-99CA7B3DDE19";
associatedMasterId = "A45B8B48-B1A0-4768-860A-A9A091AD15CC";
name = 1;
shapes = (
{
closed = 1;
nodes = (
(273,0,l),
(153,0,l),
(115,203,l),
(122,217,l)
);
},
{
closed = 1;
nodes = (
(510,66,l),
(514,381,l),
(504,663,l),
(596,663,l),
(588,352,l),
(590,66,l)
);
},
{
closed = 1;
nodes = (
(535,166,l),
(588,126,l),
(598,-20,l),
(594,-20,l),
(470,40,l),
(470,44,l)
);
},
{
closed = 1;
nodes = (
(-90,700,l),
(720,700,l),
(790,620,l),
(-20,620,l)
);
},
{
closed = 1;
nodes = (
(257,380,l),
(210,450,l),
(532,450,l),
(588,380,l)
);
},
{
closed = 1;
nodes = (
(161,120,o),
(80,216,o),
(20,400,c),
(24,400,l),
(134,400,l),
(134,396,l),
(134,230,l),
(152,212,o),
(191,200,o),
(239,200,cs),
(319,200,o),
(353,231,o),
(353,303,cs),
(353,354,o),
(337,372,o),
(327,387,c),
(338,388,l),
(385,363,o),
(413,315,o),
(413,259,cs),
(413,175,o),
(350,120,o),
(256,120,cs)
);
}
);
width = 700;
},
{
anchors = (
{
name = top;
position = "{567, 700}";
},
{
name = bottom;
position = "{601, 0}";
}
);
layerId = "46B6D1F0-F2FD-4146-B2F9-2C121398E696";
associatedMasterId = "A45B8B48-B1A0-4768-860A-A9A091AD15CC";
name = 2;
shapes = (
{
closed = 1;
nodes = (
(263,9,l),
(143,9,l),
(105,212,l),
(112,226,l)
);
},
{
closed = 1;
nodes = (
(510,66,l),
(514,381,l),
(504,663,l),
(596,663,l),
(588,352,l),
(590,66,l)
);
},
{
closed = 1;
nodes = (
(535,166,l),
(588,126,l),
(598,-20,l),
(594,-20,l),
(470,40,l),
(470,44,l)
);
},
{
closed = 1;
nodes = (
(-90,700,l),
(720,700,l),
(790,620,l),
(-20,620,l)
);
},
{
closed = 1;
nodes = (
(257,380,l),
(210,450,l),
(532,450,l),
(588,380,l)
);
},
{
closed = 1;
nodes = (
(162,120,o),
(81,183,o),
(40,400,c),
(44,400,l),
(181,314,l),
(181,310,l),
(126,230,l),
(143,213,o),
(179,200,o),
(240,200,cs),
(320,200,o),
(354,231,o),
(354,303,cs),
(354,354,o),
(338,372,o),
(328,387,c),
(339,388,l),
(386,363,o),
(414,315,o),
(414,259,cs),
(414,175,o),
(355,120,o),
(267,120,cs)
);
}
);
width = 700;
},
{
anchors = (
{
name = top;
position = "{547, 700}";
},
{
name = bottom;
position = "{601, 0}";
}
);
layerId = "A45B8B48-B1A0-4768-860A-A9A091AD15CC";
shapes = (
{
closed = 1;
nodes = (
(273,0,l),
(153,0,l),
(115,203,l),
(122,217,l)
);
},
{
closed = 1;
nodes = (
(510,66,l),
(514,381,l),
(504,663,l),
(596,663,l),
(588,352,l),
(590,66,l)
);
},
{
closed = 1;
nodes = (
(535,166,l),
(588,126,l),
(598,-20,l),
(594,-20,l),
(470,40,l),
(470,44,l)
);
},
{
closed = 1;
nodes = (
(-90,700,l),
(720,700,l),
(790,620,l),
(-20,620,l)
);
},
{
closed = 1;
nodes = (
(257,380,l),
(210,450,l),
(532,450,l),
(588,380,l)
);
},
{
closed = 1;
nodes = (
(161,120,o),
(80,216,o),
(20,400,c),
(24,400,l),
(134,400,l),
(134,396,l),
(134,230,l),
(152,212,o),
(191,200,o),
(239,200,cs),
(319,200,o),
(353,231,o),
(353,303,cs),
(353,354,o),
(337,372,o),
(327,387,c),
(338,388,l),
(385,363,o),
(413,315,o),
(413,259,cs),
(413,175,o),
(350,120,o),
(256,120,cs)
);
}
);
width = 700;
}
);
},
{
glyphname = "tra-deva";
layers = (
{
layerId = "A45B8B48-B1A0-4768-860A-A9A091AD15CC";
shapes = (
{
closed = 1;
nodes = (
(-120,700,l),
(570,700,l),
(640,620,l),
(-50,620,l)
);
},
{
closed = 1;
nodes = (
(369,66,l),
(373,381,l),
(363,663,l),
(455,663,l),
(447,352,l),
(449,66,l)
);
},
{
closed = 1;
nodes = (
(394,166,l),
(447,126,l),
(457,-20,l),
(453,-20,l),
(329,40,l),
(329,44,l)
);
},
{
closed = 1;
nodes = (
(408,274,l),
(295,369,o),
(253,420,o),
(181,420,cs),
(130,420,o),
(97,404,o),
(92,347,c),
(88,347,l),
(3,403,l),
(3,407,l),
(54,462,o),
(96,484,o),
(149,484,cs),
(255,484,o),
(348,398,o),
(418,337,c)
);
},
{
closed = 1;
nodes = (
(424,325,l),
(363,287,o),
(271,206,o),
(234,174,cs),
(192,138,o),
(186,134,o),
(170,112,c),
(90,202,l),
(202,215,o),
(321,344,o),
(422,418,c)
);
}
);
width = 550;
}
);
},
{
glyphname = stemserif.alt;
layers = (
{
anchors = (
{
name = anutop;
position = "{80, 980}";
}
);
guides = (
{
position = "{0, 981}";
}
);
layerId = "7D96EDF2-9291-42EB-8A89-114070E423BA";
associatedMasterId = "A45B8B48-B1A0-4768-860A-A9A091AD15CC";
name = Regular2;
shapes = (
{
closed = 1;
nodes = (
(40,66,l),
(44,381,l),
(34,663,l),
(126,663,l),
(118,352,l),
(120,66,l)
);
},
{
closed = 1;
nodes = (
(41,174,l),
(118,126,l),
(122,0,l),
(118,0,l),
(36,1,l),
(36,5,l)
);
}
);
width = 128;
},
{
layerId = "A45B8B48-B1A0-4768-860A-A9A091AD15CC";
width = 600;
}
);
},
{
glyphname = "pa-deva.matra";
layers = (
{
anchors = (
{
name = bottom;
position = "{480, 60}";
},
{
name = top;
position = "{249, 775}";
}
);
layerId = "A45B8B48-B1A0-4768-860A-A9A091AD15CC";
shapes = (
{
closed = 1;
nodes = (
(414,220,o),
(481,285,o),
(481,400,c),
(405,400,l),
(395,322,o),
(337,270,o),
(260,270,cs),
(195,270,o),
(160,307,o),
(160,380,cs),
(160,660,l),
(80,660,l),
(80,440,ls),
(80,303,o),
(164,220,o),
(297,220,cs)
);
},
{
closed = 1;
nodes = (
(482,0,l),
(480,352,l),
(488,663,l),
(396,663,l),
(406,381,l),
(402,0,l)
);
},
{
closed = 1;
nodes = (
(670,620,l),
(600,700,l),
(-90,700,l),
(-20,620,l)
);
}
);
width = 580;
}
);
},
{
glyphname = "pa-deva.halfform";
layers = (
{
layerId = "A45B8B48-B1A0-4768-860A-A9A091AD15CC";
shapes = (
{
closed = 1;
nodes = (
(670,620,l),
(600,700,l),
(-90,700,l),
(-20,620,l)
);
},
{
closed = 1;
nodes = (
(341,220,o),
(398,247,o),
(440,299,c),
(404,400,l),
(376,322,o),
(321,270,o),
(258,270,cs),
(194,270,o),
(160,314,o),
(160,400,cs),
(160,660,l),
(80,660,l),
(80,420,ls),
(80,294,o),
(149,220,o),
(266,220,cs)
);
}
);
width = 320;
}
);
},
{
color = 7;
glyphname = "isign-deva.002";
layers = (
{
layerId = "835C12BC-0A27-407E-B47B-64FB36D9F8D6";
associatedMasterId = "A45B8B48-B1A0-4768-860A-A9A091AD15CC";
name = "Wide_15 May 26 at 18:19";
shapes = (
{
closed = 1;
nodes = (
(193,-20,l),
(183,126,l),
(130,166,l),
(65,44,l),
(65,40,l),
(189,-20,l)
);
},
{
closed = 1;
nodes = (
(185,66,l),
(183,352,l),
(191,663,l),
(99,663,l),
(109,381,l),
(105,66,l)
);
},
{
closed = 1;
nodes = (
(397,620,l),
(327,700,l),
(-137,700,l),
(-75,620,l)
);
},
{
closed = 1;
nodes = (
(689,734,l),
(572,896,o),
(407,989,o),
(237,989,cs),
(107,989,o),
(30,931,o),
(30,833,cs),
(30,753,o),
(112,669,o),
(214,643,c),
(168,700,l),
(132,724,o),
(110,762,o),
(110,805,cs),
(110,874,o),
(171,914,o),
(275,914,cs),
(418,914,o),
(559,843,o),
(661,720,c)
);
}
);
width = 300;
},
{
layerId = "7D96EDF2-9291-42EB-8A89-114070E423BA";
associatedMasterId = "A45B8B48-B1A0-4768-860A-A9A091AD15CC";
name = Regular2;
shapes = (
{
attr = {
strokeWidth = 80;
};
closed = 0;
nodes = (
(160,0,l),
(160,231,o),
(160,-20,o),
(160,680,c),
(112,738,o),
(70,829,o),
(130,889,cs),
(197,956,o),
(302,922,o),
(352,879,cs),
(471,776,o),
(501,660,o),
(625,660,c)
);
},
{
attr = {
strokeWidth = 80;
};
closed = 0;
nodes = (
(-20,660,l),
(655,660,l)
);
}
);
width = 359;
},
{
layerId = "21ADEF33-6B7F-4644-9132-BD278B475EB4";
associatedMasterId = "A45B8B48-B1A0-4768-860A-A9A091AD15CC";
name = "15 May 26 at 18:18";
shapes = (
{
closed = 1;
nodes = (
(193,-20,l),
(183,126,l),
(130,166,l),
(65,44,l),
(65,40,l),
(189,-20,l)
);
},
{
closed = 1;
nodes = (
(185,66,l),
(183,352,l),
(191,663,l),
(99,663,l),
(109,381,l),
(105,66,l)
);
},
{
closed = 1;
nodes = (
(397,620,l),
(327,700,l),
(-137,700,l),
(-75,620,l)
);
},
{
closed = 1;
nodes = (
(469,734,l),
(388,896,o),
(274,989,o),
(157,989,cs),
(65,989,o),
(10,938,o),
(10,853,cs),
(10,765,o),
(101,672,o),
(214,643,c),
(168,700,l),
(120,728,o),
(90,774,o),
(90,825,cs),
(90,881,o),
(129,914,o),
(195,914,cs),
(286,914,o),
(376,843,o),
(441,720,c)
);
}
);
width = 300;
},
{
layerId = "A45B8B48-B1A0-4768-860A-A9A091AD15CC";
shapes = (
{
closed = 1;
nodes = (
(193,-20,l),
(183,126,l),
(130,166,l),
(65,44,l),
(65,40,l),
(189,-20,l)
);
},
{
closed = 1;
nodes = (
(193,-20,l),
(183,126,l),
(130,166,l),
(65,44,l),
(65,40,l),
(189,-20,l)
);
},
{
closed = 1;
nodes = (
(185,66,l),
(183,352,l),
(191,663,l),
(99,663,l),
(109,381,l),
(105,66,l)
);
},
{
closed = 1;
nodes = (
(397,620,l),
(327,700,l),
(-137,700,l),
(-75,620,l)
);
},
{
closed = 1;
nodes = (
(720,750,l),
(615,818,o),
(315,980,o),
(188,980,cs),
(110,980,o),
(50,932,o),
(50,859,cs),
(50,798,o),
(84,737,o),
(150,677,c),
(174,693,l),
(152,715,o),
(130,773,o),
(130,810,cs),
(130,865,o),
(157,907,o),
(241,907,cs),
(357,907,o),
(603,782,o),
(690,726,c)
);
}
);
width = 300;
}
);
},
{
color = 7;
glyphname = "isign-deva.003";
layers = (
{
layerId = "835C12BC-0A27-407E-B47B-64FB36D9F8D6";
associatedMasterId = "A45B8B48-B1A0-4768-860A-A9A091AD15CC";
name = "Wide_15 May 26 at 18:19";
shapes = (
{
closed = 1;
nodes = (
(193,-20,l),
(183,126,l),
(130,166,l),
(65,44,l),
(65,40,l),
(189,-20,l)
);
},
{
closed = 1;
nodes = (
(185,66,l),
(183,352,l),
(191,663,l),
(99,663,l),
(109,381,l),
(105,66,l)
);
},
{
closed = 1;
nodes = (
(397,620,l),
(327,700,l),
(-137,700,l),
(-75,620,l)
);
},
{
closed = 1;
nodes = (
(689,734,l),
(572,896,o),
(407,989,o),
(237,989,cs),
(107,989,o),
(30,931,o),
(30,833,cs),
(30,753,o),
(112,669,o),
(214,643,c),
(168,700,l),
(132,724,o),
(110,762,o),
(110,805,cs),
(110,874,o),
(171,914,o),
(275,914,cs),
(418,914,o),
(559,843,o),
(661,720,c)
);
}
);
width = 300;
},
{
layerId = "7D96EDF2-9291-42EB-8A89-114070E423BA";
associatedMasterId = "A45B8B48-B1A0-4768-860A-A9A091AD15CC";
name = Regular2;
shapes = (
{
attr = {
strokeWidth = 80;
};
closed = 0;
nodes = (
(160,0,l),
(160,231,o),
(160,-20,o),
(160,680,c),
(112,738,o),
(70,829,o),
(130,889,cs),
(197,956,o),
(302,922,o),
(352,879,cs),
(471,776,o),
(501,660,o),
(625,660,c)
);
},
{
attr = {
strokeWidth = 80;
};
closed = 0;
nodes = (
(-20,660,l),
(655,660,l)
);
}
);
width = 359;
},
{
layerId = "21ADEF33-6B7F-4644-9132-BD278B475EB4";
associatedMasterId = "A45B8B48-B1A0-4768-860A-A9A091AD15CC";
name = "15 May 26 at 18:18";
shapes = (
{
closed = 1;
nodes = (
(193,-20,l),
(183,126,l),
(130,166,l),
(65,44,l),
(65,40,l),
(189,-20,l)
);
},
{
closed = 1;
nodes = (
(185,66,l),
(183,352,l),
(191,663,l),
(99,663,l),
(109,381,l),
(105,66,l)
);
},
{
closed = 1;
nodes = (
(397,620,l),
(327,700,l),
(-137,700,l),
(-75,620,l)
);
},
{
closed = 1;
nodes = (
(469,734,l),
(388,896,o),
(274,989,o),
(157,989,cs),
(65,989,o),
(10,938,o),
(10,853,cs),
(10,765,o),
(101,672,o),
(214,643,c),
(168,700,l),
(120,728,o),
(90,774,o),
(90,825,cs),
(90,881,o),
(129,914,o),
(195,914,cs),
(286,914,o),
(376,843,o),
(441,720,c)
);
}
);
width = 300;
},
{
layerId = "A45B8B48-B1A0-4768-860A-A9A091AD15CC";
shapes = (
{
closed = 1;
nodes = (
(193,-20,l),
(183,126,l),
(130,166,l),
(65,44,l),
(65,40,l),
(189,-20,l)
);
},
{
closed = 1;
nodes = (
(193,-20,l),
(183,126,l),
(130,166,l),
(65,44,l),
(65,40,l),
(189,-20,l)
);
},
{
closed = 1;
nodes = (
(185,66,l),
(183,352,l),
(191,663,l),
(99,663,l),
(109,381,l),
(105,66,l)
);
},
{
closed = 1;
nodes = (
(397,620,l),
(327,700,l),
(-137,700,l),
(-75,620,l)
);
},
{
closed = 1;
nodes = (
(800,750,l),
(694,806,o),
(315,980,o),
(188,980,cs),
(110,980,o),
(40,932,o),
(40,859,cs),
(40,798,o),
(74,737,o),
(140,677,c),
(164,693,l),
(142,715,o),
(120,773,o),
(120,810,cs),
(120,865,o),
(157,907,o),
(241,907,cs),
(357,907,o),
(685,774,o),
(770,726,c)
);
}
);
width = 300;
}
);
},
{
color = 7;
glyphname = "isign-deva.004";
layers = (
{
layerId = "835C12BC-0A27-407E-B47B-64FB36D9F8D6";
associatedMasterId = "A45B8B48-B1A0-4768-860A-A9A091AD15CC";
name = "Wide_15 May 26 at 18:19";
shapes = (
{
closed = 1;
nodes = (
(193,-20,l),
(183,126,l),
(130,166,l),
(65,44,l),
(65,40,l),
(189,-20,l)
);
},
{
closed = 1;
nodes = (
(185,66,l),
(183,352,l),
(191,663,l),
(99,663,l),
(109,381,l),
(105,66,l)
);
},
{
closed = 1;
nodes = (
(397,620,l),
(327,700,l),
(-137,700,l),
(-75,620,l)
);
},
{
closed = 1;
nodes = (
(689,734,l),
(572,896,o),
(407,989,o),
(237,989,cs),
(107,989,o),
(30,931,o),
(30,833,cs),
(30,753,o),
(112,669,o),
(214,643,c),
(168,700,l),
(132,724,o),
(110,762,o),
(110,805,cs),
(110,874,o),
(171,914,o),
(275,914,cs),
(418,914,o),
(559,843,o),
(661,720,c)
);
}
);
width = 300;
},
{
layerId = "7D96EDF2-9291-42EB-8A89-114070E423BA";
associatedMasterId = "A45B8B48-B1A0-4768-860A-A9A091AD15CC";
name = Regular2;
shapes = (
{
attr = {
strokeWidth = 80;
};
closed = 0;
nodes = (
(160,0,l),
(160,231,o),
(160,-20,o),
(160,680,c),
(112,738,o),
(70,829,o),
(130,889,cs),
(197,956,o),
(302,922,o),
(352,879,cs),
(471,776,o),
(501,660,o),
(625,660,c)
);
},
{
attr = {
strokeWidth = 80;
};
closed = 0;
nodes = (
(-20,660,l),
(655,660,l)
);
}
);
width = 359;
},
{
layerId = "21ADEF33-6B7F-4644-9132-BD278B475EB4";
associatedMasterId = "A45B8B48-B1A0-4768-860A-A9A091AD15CC";
name = "15 May 26 at 18:18";
shapes = (
{
closed = 1;
nodes = (
(193,-20,l),
(183,126,l),
(130,166,l),
(65,44,l),
(65,40,l),
(189,-20,l)
);
},
{
closed = 1;
nodes = (
(185,66,l),
(183,352,l),
(191,663,l),
(99,663,l),
(109,381,l),
(105,66,l)
);
},
{
closed = 1;
nodes = (
(397,620,l),
(327,700,l),
(-137,700,l),
(-75,620,l)
);
},
{
closed = 1;
nodes = (
(469,734,l),
(388,896,o),
(274,989,o),
(157,989,cs),
(65,989,o),
(10,938,o),
(10,853,cs),
(10,765,o),
(101,672,o),
(214,643,c),
(168,700,l),
(120,728,o),
(90,774,o),
(90,825,cs),
(90,881,o),
(129,914,o),
(195,914,cs),
(286,914,o),
(376,843,o),
(441,720,c)
);
}
);
width = 300;
},
{
layerId = "A45B8B48-B1A0-4768-860A-A9A091AD15CC";
shapes = (
{
closed = 1;
nodes = (
(193,-20,l),
(183,126,l),
(130,166,l),
(65,44,l),
(65,40,l),
(189,-20,l)
);
},
{
closed = 1;
nodes = (
(193,-20,l),
(183,126,l),
(130,166,l),
(65,44,l),
(65,40,l),
(189,-20,l)
);
},
{
closed = 1;
nodes = (
(185,66,l),
(183,352,l),
(191,663,l),
(99,663,l),
(109,381,l),
(105,66,l)
);
},
{
closed = 1;
nodes = (
(337,620,l),
(267,700,l),
(-137,700,l),
(-75,620,l)
);
},
{
closed = 1;
nodes = (
(855,749,l),
(748,816,o),
(338,980,o),
(198,980,cs),
(87,980,o),
(40,932,o),
(40,859,cs),
(40,798,o),
(74,737,o),
(140,677,c),
(164,693,l),
(142,715,o),
(120,773,o),
(120,810,cs),
(120,865,o),
(164,906,o),
(257,906,cs),
(385,906,o),
(738,770,o),
(832,721,c)
);
}
);
width = 300;
}
);
},
{
color = 7;
glyphname = "ka-deva.half";
layers = (
{
layerId = "0F3680E8-5F59-4F32-9A2F-C60246F9E8CA";
associatedMasterId = "A45B8B48-B1A0-4768-860A-A9A091AD15CC";
name = "smallCounter-Test";
shapes = (
{
attr = {
strokeWidth = 80;
};
closed = 0;
nodes = (
(420,627,l),
(420,0,l)
);
},
{
attr = {
strokeWidth = 80;
};
closed = 0;
nodes = (
(-20,660,l),
(840,660,l)
);
},
{
attr = {
strokeWidth = 80;
strokeHeight = 76;
};
closed = 0;
nodes = (
(420,207,l),
(420,207,o),
(357,150,o),
(270,150,cs),
(157,150,o),
(100,224,o),
(100,310,cs),
(100,414,o),
(167,470,o),
(270,470,cs),
(325,470,o),
(385,448,o),
(420,394,c),
(446,442,o),
(506,470,o),
(570,470,cs),
(669,470,o),
(730,409,o),
(730,310,cs),
(730,211,o),
(669,150,o),
(570,150,cs),
(558,150,o),
(547,150,o),
(533,150,c)
);
}
);
width = 820;
},
{
guides = (
{
position = "{0, 310}";
}
);
layerId = "7D96EDF2-9291-42EB-8A89-114070E423BA";
associatedMasterId = "A45B8B48-B1A0-4768-860A-A9A091AD15CC";
name = Regular2;
shapes = (
{
attr = {
strokeWidth = 80;
};
closed = 0;
nodes = (
(420,660,l),
(420,0,l)
);
},
{
attr = {
strokeWidth = 80;
strokeHeight = 76;
};
closed = 0;
nodes = (
(-31,660,l),
(849,660,l)
);
},
{
attr = {
strokeWidth = 80;
strokeHeight = 76;
};
closed = 0;
nodes = (
(419,201,l),
(419,201,o),
(353,140,o),
(260,140,cs),
(148,140,o),
(80,204,o),
(80,310,cs),
(80,416,o),
(148,482,o),
(260,482,cs),
(319,482,o),
(381,458,o),
(419,401,c),
(453,458,o),
(512,480,o),
(580,480,cs),
(679,480,o),
(740,416,o),
(740,310,cs),
(740,204,o),
(679,140,o),
(580,140,cs),
(568,140,o),
(554,141,o),
(539,141,c)
);
}
);
width = 820;
},
{
anchors = (
{
name = right;
position = "{777, 325}";
},
{
name = top;
position = "{141, -1523}";
}
);
guides = (
{
position = "{0, 310}";
},
{
position = "{0, 660}";
}
);
layerId = "93637C23-AE38-4AE5-A30A-AF031EC9B104";
associatedMasterId = "A45B8B48-B1A0-4768-860A-A9A091AD15CC";
name = "15 May 26 at 18:24";
shapes = (
{
closed = 1;
nodes = (
(570,90,l),
(671,109,o),
(730,176,o),
(730,268,cs),
(730,379,o),
(645,480,o),
(538,480,cs),
(439,480,o),
(355,393,o),
(353,286,c),
(427,284,l),
(429,354,o),
(493,410,o),
(566,410,cs),
(639,410,o),
(680,353,o),
(680,301,cs),
(680,257,o),
(650,221,o),
(620,207,cs),
(592,193,o),
(524,180,o),
(511,180,c),
(511,180,o),
(517,180,o),
(510,180,c),
(510,178,l)
);
},
{
closed = 1;
nodes = (
(437,-20,l),
(427,126,l),
(374,166,l),
(309,44,l),
(309,40,l),
(433,-20,l)
);
},
{
closed = 1;
nodes = (
(378,130,o),
(427,230,o),
(427,308,c),
(357,308,l),
(357,247,o),
(297,200,o),
(220,200,cs),
(150,200,o),
(110,236,o),
(110,300,cs),
(110,384,o),
(166,434,o),
(259,434,cs),
(312,434,o),
(358,417,o),
(358,417,c),
(361,421,l),
(322,467,o),
(253,500,o),
(192,500,cs),
(115,500,o),
(40,444,o),
(40,330,cs),
(40,215,o),
(170,130,o),
(260,130,cs)
);
},
{
closed = 1;
nodes = (
(429,66,l),
(427,352,l),
(435,663,l),
(343,663,l),
(353,381,l),
(349,66,l)
);
},
{
closed = 1;
nodes = (
(860,620,l),
(790,700,l),
(-80,700,l),
(-10,620,l)
);
}
);
width = 770;
},
{
anchors = (
{
name = bottom;
position = "{460, 0}";
},
{
name = top;
position = "{141, -1523}";
},
{
name = left;
position = "{282, 1566}";
},
{
name = a5;
position = "{385, -2488}";
}
);
guides = (
{
position = "{0, 310}";
},
{
position = "{0, 660}";
},
{
position = "{0, -5676}";
}
);
layerId = "A45B8B48-B1A0-4768-860A-A9A091AD15CC";
shapes = (
{
closed = 1;
nodes = (
(437,-20,l),
(427,126,l),
(374,166,l),
(309,44,l),
(309,40,l),
(433,-20,l)
);
},
{
closed = 1;
nodes = (
(377,130,o),
(425,230,o),
(425,308,c),
(357,308,l),
(357,247,o),
(297,200,o),
(220,200,cs),
(150,200,o),
(110,236,o),
(110,300,cs),
(110,384,o),
(166,434,o),
(259,434,cs),
(308,434,o),
(349,421,o),
(358,417,c),
(361,421,l),
(322,467,o),
(253,500,o),
(192,500,cs),
(115,500,o),
(40,444,o),
(40,330,cs),
(40,215,o),
(170,130,o),
(260,130,cs)
);
},
{
closed = 1;
nodes = (
(429,66,l),
(427,352,l),
(435,663,l),
(343,663,l),
(353,381,l),
(349,66,l)
);
},
{
closed = 1;
nodes = (
(860,620,l),
(790,700,l),
(-90,700,l),
(-20,620,l)
);
},
{
closed = 1;
nodes = (
(689,377,l),
(654,446,o),
(600,480,o),
(538,480,cs),
(439,480,o),
(355,393,o),
(353,286,c),
(427,284,l),
(429,354,o),
(493,410,o),
(566,410,cs),
(606,410,o),
(636,393,o),
(665,359,c)
);
}
);
width = 600;
}
);
},
{
color = 7;
glyphname = "ba-deva.half";
layers = (
{
layerId = "7D96EDF2-9291-42EB-8A89-114070E423BA";
associatedMasterId = "A45B8B48-B1A0-4768-860A-A9A091AD15CC";
name = Regular2;
shapes = (
{
attr = {
strokeWidth = 76;
};
closed = 0;
nodes = (
(-20,660,l),
(580,660,l)
);
},
{
attr = {
strokeWidth = 76;
};
closed = 0;
nodes = (
(137,438,l),
(137,435,o),
(394,178,o),
(394,178,c)
);
},
{
attr = {
strokeWidth = 80;
};
closed = 0;
nodes = (
(420,659,l),
(420,0,l)
);
},
{
attr = {
strokeWidth = 80;
};
closed = 0;
nodes = (
(423,236,l),
(402,174,o),
(336,140,o),
(266,140,cs),
(175,140,o),
(80,197,o),
(80,310,cs),
(80,412,o),
(156,480,o),
(261,480,cs),
(335,480,o),
(402,446,o),
(423,384,c)
);
}
);
width = 560;
},
{
anchors = (
{
name = top;
position = "{447, 700}";
},
{
name = bottom;
position = "{478, 0}";
}
);
layerId = "A45B8B48-B1A0-4768-860A-A9A091AD15CC";
shapes = (
{
closed = 1;
nodes = (
(407,210,l),
(406,211,o),
(166,451,o),
(152,468,c),
(110,447,l),
(110,439,o),
(107,438,o),
(373,173,c)
);
},
{
closed = 1;
nodes = (
(400,300,l),
(383,266,o),
(328,190,o),
(240,190,cs),
(153,190,o),
(110,237,o),
(110,304,cs),
(110,395,o),
(153,449,o),
(271,449,cs),
(328,449,o),
(387,427,o),
(387,427,c),
(390,431,l),
(348,481,o),
(270,520,o),
(205,520,cs),
(133,520,o),
(40,460,o),
(40,337,cs),
(40,213,o),
(172,120,o),
(274,120,cs),
(372,120,o),
(418,178,o),
(442,213,c)
);
},
{
closed = 1;
nodes = (
(490,620,l),
(420,700,l),
(-90,700,l),
(-20,620,l)
);
}
);
width = 322;
}
);
},
{
color = 7;
glyphname = "va-deva.half";
layers = (
{
layerId = "7D96EDF2-9291-42EB-8A89-114070E423BA";
associatedMasterId = "A45B8B48-B1A0-4768-860A-A9A091AD15CC";
name = Regular2;
shapes = (
{
attr = {
strokeWidth = 76;
};
closed = 0;
nodes = (
(-21,660,l),
(579,660,l)
);
},
{
attr = {
strokeWidth = 80;
};
closed = 0;
nodes = (
(420,659,l),
(420,0,l)
);
},
{
attr = {
strokeWidth = 80;
};
closed = 0;
nodes = (
(423,236,l),
(402,174,o),
(336,140,o),
(266,140,cs),
(175,140,o),
(80,197,o),
(80,310,cs),
(80,412,o),
(156,480,o),
(261,480,cs),
(335,480,o),
(402,446,o),
(423,384,c)
);
}
);
width = 560;
},
{
anchors = (
{
name = bottom;
position = "{460, 0}";
},
{
name = top;
position = "{433, 700}";
}
);
layerId = "A45B8B48-B1A0-4768-860A-A9A091AD15CC";
shapes = (
{
closed = 1;
nodes = (
(400,300,l),
(383,266,o),
(328,190,o),
(240,190,cs),
(153,190,o),
(110,237,o),
(110,304,cs),
(110,395,o),
(153,449,o),
(271,449,cs),
(328,449,o),
(387,427,o),
(387,427,c),
(390,431,l),
(348,481,o),
(270,520,o),
(205,520,cs),
(133,520,o),
(40,460,o),
(40,337,cs),
(40,213,o),
(172,120,o),
(274,120,cs),
(372,120,o),
(418,178,o),
(442,213,c)
);
},
{
closed = 1;
nodes = (
(530,620,l),
(460,700,l),
(-90,700,l),
(-20,620,l)
);
}
);
width = 320;
}
);
},
{
color = 7;
glyphname = "ta-deva.half";
layers = (
{
layerId = "7D96EDF2-9291-42EB-8A89-114070E423BA";
associatedMasterId = "A45B8B48-B1A0-4768-860A-A9A091AD15CC";
name = Regular2;
shapes = (
{
attr = {
strokeWidth = 80;
lineCapEnd = 4;
};
closed = 0;
nodes = (
(460,660,l),
(460,0,l)
);
},
{
attr = {
strokeWidth = 80;
lineCapEnd = 4;
};
closed = 0;
nodes = (
(460,400,l),
(230,400,ls),
(135,400,o),
(80,352,o),
(80,270,cs),
(80,192,o),
(130,96,o),
(210,0,c)
);
},
{
attr = {
strokeWidth = 76;
};
closed = 0;
nodes = (
(-20,660,l),
(620,660,l)
);
}
);
width = 600;
},
{
anchors = (
{
name = top;
position = "{482, 700}";
},
{
name = bottom;
position = "{519, 0}";
}
);
layerId = "A45B8B48-B1A0-4768-860A-A9A091AD15CC";
shapes = (
{
closed = 1;
nodes = (
(280,20,l),
(239,20,o),
(120,104,o),
(120,250,cs),
(120,345,o),
(173,370,o),
(230,370,cs),
(450,370,l),
(450,450,l),
(230,450,ls),
(108,450,o),
(40,390,o),
(40,280,cs),
(40,140,o),
(213,14,o),
(280,-20,c)
);
},
{
closed = 1;
nodes = (
(280,100,l),
(143,100,l),
(188,47,l),
(280,-19,l)
);
},
{
closed = 1;
nodes = (
(550,620,l),
(480,700,l),
(-90,700,l),
(-20,620,l)
);
}
);
width = 300;
}
);
},
{
color = 7;
glyphname = "la-deva.half";
layers = (
{
layerId = "7D96EDF2-9291-42EB-8A89-114070E423BA";
associatedMasterId = "A45B8B48-B1A0-4768-860A-A9A091AD15CC";
name = Regular2;
shapes = (
{
attr = {
strokeWidth = 80;
lineCapEnd = 4;
lineCapStart = 4;
};
closed = 0;
nodes = (
(560,661,l),
(560,0,l)
);
},
{
attr = {
strokeWidth = 80;
lineCapEnd = 4;
lineCapStart = 4;
};
closed = 0;
nodes = (
(560,420,l),
(550,420,o),
(535,420,o),
(535,420,c),
(442,420,o),
(338,403,o),
(338,255,cs),
(338,239,o),
(338,218,o),
(340,200,c)
);
},
{
attr = {
strokeWidth = 80;
lineCapEnd = 4;
lineCapStart = 4;
};
closed = 0;
nodes = (
(210,0,l),
(130,96,o),
(80,175,o),
(80,280,cs),
(80,371,o),
(142,420,o),
(220,420,cs),
(272,420,o),
(344,397,o),
(354,328,c)
);
},
{
attr = {
strokeWidth = 76;
};
closed = 0;
nodes = (
(-20,660,l),
(717,660,l)
);
}
);
width = 700;
},
{
anchors = (
{
name = top;
position = "{576, 700}";
},
{
name = bottom;
position = "{619, 0}";
}
);
layerId = "A45B8B48-B1A0-4768-860A-A9A091AD15CC";
shapes = (
{
closed = 1;
nodes = (
(300,20,l),
(228,20,o),
(120,175,o),
(120,277,cs),
(120,349,o),
(149,380,o),
(216,380,cs),
(258,380,o),
(296,367,o),
(296,352,c),
(298,352,l),
(298,417,o),
(253,460,o),
(185,460,cs),
(100,460,o),
(40,396,o),
(40,307,cs),
(40,202,o),
(161,51,o),
(300,-20,c)
);
},
{
closed = 1;
nodes = (
(300,101,l),
(163,101,l),
(208,47,l),
(300,-19,l)
);
},
{
closed = 1;
nodes = (
(380,233,l),
(380,293,o),
(381,316,o),
(381,325,cs),
(381,391,o),
(458,405,o),
(558,358,c),
(558,365,l),
(555,365,o),
(483,460,o),
(410,460,cs),
(326,460,o),
(280,387,o),
(280,270,c)
);
},
{
closed = 1;
nodes = (
(690,620,l),
(620,700,l),
(-90,700,l),
(-20,620,l)
);
}
);
width = 460;
}
);
},
{
color = 7;
glyphname = "na-deva.half";
layers = (
{
layerId = "7D96EDF2-9291-42EB-8A89-114070E423BA";
associatedMasterId = "A45B8B48-B1A0-4768-860A-A9A091AD15CC";
name = Regular2;
shapes = (
{
attr = {
strokeWidth = 80;
};
closed = 0;
nodes = (
(440,628,l),
(440,1,l)
);
},
{
attr = {
strokeWidth = 80;
};
closed = 0;
nodes = (
(141,333,l),
(141,240,ls),
(141,201,o),
(21,360,o),
(121,360,cs),
(439,360,l)
);
},
{
attr = {
strokeWidth = 76;
};
closed = 0;
nodes = (
(-20,660,l),
(603,660,l)
);
}
);
width = 580;
},
{
anchors = (
{
name = top;
position = "{478, 700}";
},
{
name = bottom;
position = "{519, 0}";
}
);
layerId = "A45B8B48-B1A0-4768-860A-A9A091AD15CC";
shapes = (
{
closed = 1;
nodes = (
(520,400,l),
(520,320,l),
(220,320,l),
(220,160,l),
(216,160,l),
(40,396,l),
(40,400,l)
);
},
{
closed = 1;
nodes = (
(690,620,l),
(620,700,l),
(-90,700,l),
(-20,620,l)
);
}
);
width = 420;
}
);
},
{
color = 7;
glyphname = "ma-deva.half";
layers = (
{
layerId = "7D96EDF2-9291-42EB-8A89-114070E423BA";
associatedMasterId = "A45B8B48-B1A0-4768-860A-A9A091AD15CC";
name = Regular2;
shapes = (
{
attr = {
strokeWidth = 76;
};
closed = 0;
nodes = (
(-60,660,l),
(651,660,l)
);
},
{
attr = {
strokeWidth = 80;
};
closed = 0;
nodes = (
(480,659,l),
(480,0,l)
);
},
{
attr = {
strokeWidth = 80;
};
closed = 0;
nodes = (
(160,656,l),
(160,210,ls),
(160,121,o),
(21,280,o),
(130,280,cs),
(479,280,l)
);
}
);
width = 620;
},
{
anchors = (
{
name = top;
position = "{485, 700}";
},
{
name = bottom;
position = "{522, 0}";
}
);
layerId = "A45B8B48-B1A0-4768-860A-A9A091AD15CC";
shapes = (
{
closed = 1;
nodes = (
(490,700,l),
(580,620,l),
(-40,620,l),
(-110,700,l)
);
},
{
closed = 1;
nodes = (
(100,252,l),
(100,640,l),
(180,640,l),
(180,252,l)
);
},
{
closed = 1;
nodes = (
(436,240,l),
(180,240,l),
(180,120,l),
(176,120,l),
(0,316,l),
(0,320,l),
(414,320,l)
);
}
);
width = 320;
}
);
},
{
color = 7;
glyphname = "pha-deva.half";
layers = (
{
layerId = "7D96EDF2-9291-42EB-8A89-114070E423BA";
associatedMasterId = "A45B8B48-B1A0-4768-860A-A9A091AD15CC";
name = Regular2;
shapes = (
{
attr = {
strokeWidth = 80;
};
closed = 0;
nodes = (
(440,660,l),
(440,0,l)
);
},
{
attr = {
strokeWidth = 80;
};
closed = 0;
nodes = (
(120,660,l),
(120,380,ls),
(120,303,o),
(192,240,o),
(280,240,cs),
(370,240,o),
(440,292,o),
(440,360,c)
);
},
{
attr = {
strokeWidth = 80;
};
closed = 0;
nodes = (
(440,380,l),
(440,439,o),
(498,480,o),
(582,480,cs),
(683,480,o),
(740,418,o),
(740,310,cs),
(740,196,o),
(676,120,o),
(580,120,c)
);
},
{
attr = {
strokeWidth = 76;
};
closed = 0;
nodes = (
(-20,660,l),
(826,660,l)
);
}
);
width = 820;
},
{
anchors = (
{
name = top;
position = "{462, 700}";
},
{
name = bottom;
position = "{504, 0}";
}
);
layerId = "A45B8B48-B1A0-4768-860A-A9A091AD15CC";
shapes = (
{
closed = 1;
nodes = (
(-90,700,l),
(820,700,l),
(890,620,l),
(-20,620,l)
);
},
{
closed = 1;
nodes = (
(400,66,l),
(404,381,l),
(394,663,l),
(486,663,l),
(478,352,l),
(480,66,l)
);
},
{
closed = 1;
nodes = (
(425,166,l),
(478,126,l),
(488,-20,l),
(484,-20,l),
(360,40,l),
(360,44,l)
);
},
{
closed = 1;
nodes = (
(149,220,o),
(80,294,o),
(80,420,cs),
(80,660,l),
(160,660,l),
(160,400,ls),
(160,314,o),
(194,270,o),
(258,270,cs),
(321,270,o),
(376,322,o),
(404,400,c),
(440,299,l),
(398,247,o),
(341,220,o),
(266,220,cs)
);
},
{
closed = 1;
nodes = (
(713,379,l),
(684,413,o),
(654,430,o),
(614,430,cs),
(541,430,o),
(490,384,o),
(464,308,c),
(404,363,l),
(405,405,o),
(487,500,o),
(586,500,cs),
(648,500,o),
(702,466,o),
(737,397,c)
);
}
);
width = 600;
}
);
},
{
color = 7;
glyphname = "sa-deva.half";
layers = (
{
layerId = "7D96EDF2-9291-42EB-8A89-114070E423BA";
associatedMasterId = "A45B8B48-B1A0-4768-860A-A9A091AD15CC";
name = Regular2;
shapes = (
{
attr = {
strokeWidth = 80;
lineCapStart = 4;
};
closed = 0;
nodes = (
(560,676,l),
(560,0,l)
);
},
{
attr = {
strokeWidth = 80;
lineCapStart = 4;
};
closed = 0;
nodes = (
(549,320,l),
(116,320,l)
);
},
{
attr = {
strokeWidth = 80;
lineCapStart = 4;
};
closed = 0;
nodes = (
(301,3,l),
(273,45,o),
(92,360,o),
(75,393,c)
);
},
{
attr = {
strokeWidth = 80;
lineCapStart = 4;
};
closed = 0;
nodes = (
(120,660,l),
(252,660,o),
(300,593,o),
(300,499,cs),
(300,407,o),
(254,340,o),
(99,340,c)
);
},
{
attr = {
strokeWidth = 76;
};
closed = 0;
nodes = (
(-21,660,l),
(749,660,l)
);
}
);
width = 700;
},
{
anchors = (
{
name = top;
position = "{575, 700}";
},
{
name = bottom;
position = "{620, 0}";
}
);
layerId = "A45B8B48-B1A0-4768-860A-A9A091AD15CC";
shapes = (
{
closed = 1;
nodes = (
(540,291,l),
(77,290,l),
(77,350,l),
(540,373,l)
);
},
{
closed = 1;
nodes = (
(-90,700,l),
(720,700,l),
(790,620,l),
(-20,620,l)
);
},
{
closed = 1;
nodes = (
(138,355,l),
(138,275,o),
(179,161,o),
(229,100,c),
(329,100,l),
(329,-20,l),
(327,-20,l),
(83,126,o),
(40,347,o),
(40,367,cs),
(40,373,o),
(40,382,o),
(40,382,c)
);
},
{
closed = 1;
nodes = (
(153,670,l),
(221,617,o),
(279,525,o),
(279,449,cs),
(279,360,o),
(228,307,o),
(141,307,cs),
(107,307,o),
(67,321,o),
(50,336,c),
(40,382,l),
(50,381,o),
(81,380,o),
(100,380,cs),
(184,380,o),
(199,425,o),
(199,507,cs),
(199,577,o),
(148,645,o),
(119,670,c)
);
}
);
width = 380;
}
);
},
{
color = 7;
glyphname = "ga-deva.half";
layers = (
{
layerId = "7D96EDF2-9291-42EB-8A89-114070E423BA";
associatedMasterId = "A45B8B48-B1A0-4768-860A-A9A091AD15CC";
name = Regular2;
shapes = (
{
attr = {
strokeWidth = 80;
};
closed = 0;
nodes = (
(440,660,l),
(440,0,l)
);
},
{
attr = {
strokeWidth = 80;
strokeHeight = 76;
};
closed = 0;
nodes = (
(-20,660,l),
(600,660,l)
);
},
{
attr = {
strokeWidth = 80;
strokeHeight = 76;
};
closed = 0;
nodes = (
(160,660,l),
(160,340,ls),
(160,260,o),
(120,240,o),
(40,240,c)
);
}
);
width = 580;
},
{
anchors = (
{
name = top;
position = "{478, 700}";
},
{
name = bottom;
position = "{520, 0}";
}
);
layerId = "A45B8B48-B1A0-4768-860A-A9A091AD15CC";
shapes = (
{
closed = 1;
nodes = (
(220,664,l),
(220,140,l),
(216,140,l),
(30,316,l),
(30,320,l),
(140,320,l),
(140,664,l)
);
},
{
closed = 1;
nodes = (
(-90,700,l),
(400,700,l),
(470,620,l),
(-20,620,l)
);
}
);
width = 320;
}
);
},
{
color = 7;
glyphname = "kha-deva.half";
layers = (
{
layerId = "7D96EDF2-9291-42EB-8A89-114070E423BA";
associatedMasterId = "A45B8B48-B1A0-4768-860A-A9A091AD15CC";
name = Regular2;
shapes = (
{
attr = {
strokeWidth = 80;
};
closed = 0;
nodes = (
(640,660,l),
(640,0,l)
);
},
{
attr = {
strokeWidth = 80;
strokeHeight = 76;
};
closed = 0;
nodes = (
(-29,660,l),
(214,660,o),
(558,660,o),
(801,660,c)
);
},
{
attr = {
strokeWidth = 80;
strokeHeight = 76;
};
closed = 0;
nodes = (
(640,320,l),
(623,270,o),
(570,230,o),
(512,230,cs),
(440,230,o),
(370,284,o),
(370,370,c),
(370,449,o),
(430,510,o),
(509,510,cs),
(570,510,o),
(622,470,o),
(640,420,c)
);
},
{
attr = {
strokeWidth = 80;
strokeHeight = 76;
};
closed = 0;
nodes = (
(80,420,l),
(80,220,o),
(190,80,o),
(380,80,cs),
(505,80,o),
(605,141,o),
(642,240,c)
);
},
{
attr = {
strokeWidth = 80;
strokeHeight = 76;
};
closed = 0;
nodes = (
(80,660,l),
(192,660,o),
(260,603,o),
(260,510,cs),
(260,417,o),
(192,360,o),
(80,360,c)
);
}
);
width = 780;
},
{
anchors = (
{
name = top;
position = "{649, 700}";
},
{
name = bottom;
position = "{680, 0}";
}
);
layerId = "A45B8B48-B1A0-4768-860A-A9A091AD15CC";
shapes = (
{
closed = 1;
nodes = (
(580,235,l),
(569,229,o),
(536,227,o),
(520,230,cs),
(460,240,o),
(399,289,o),
(399,354,cs),
(399,404,o),
(433,430,o),
(499,430,cs),
(563,430,o),
(593,406,o),
(595,356,cs),
(600,214,o),
(500,140,o),
(358,140,cs),
(217,140,o),
(118,228,o),
(118,355,c),
(40,382,l),
(40,368,l),
(74,195,o),
(227,60,o),
(389,60,cs),
(535,60,o),
(665,143,o),
(665,303,cs),
(665,408,o),
(565,500,o),
(453,500,cs),
(373,500,o),
(319,449,o),
(319,375,cs),
(319,277,o),
(421,205,o),
(525,190,cs),
(544,187,o),
(566,189,o),
(581,194,c)
);
},
{
closed = 1;
nodes = (
(-20,620,l),
(760,620,l),
(690,700,l),
(-90,700,l)
);
},
{
closed = 1;
nodes = (
(123,650,l),
(188,618,o),
(216,558,o),
(216,490,cs),
(216,421,o),
(186,380,o),
(117,380,cs),
(92,380,o),
(50,381,o),
(37,382,c),
(48,335,l),
(65,320,o),
(104,307,o),
(138,307,cs),
(225,307,o),
(296,360,o),
(296,449,cs),
(296,529,o),
(248,604,o),
(150,650,c)
);
}
);
width = 580;
}
);
},
{
color = 7;
glyphname = "sha-deva.half";
layers = (
{
layerId = "7D96EDF2-9291-42EB-8A89-114070E423BA";
associatedMasterId = "A45B8B48-B1A0-4768-860A-A9A091AD15CC";
name = Regular2;
shapes = (
{
attr = {
strokeWidth = 80;
};
closed = 0;
nodes = (
(600,627,l),
(600,0,l)
);
},
{
attr = {
strokeWidth = 80;
};
closed = 0;
nodes = (
(295,3,l),
(267,45,o),
(97,338,o),
(80,371,c)
);
},
{
attr = {
strokeWidth = 80;
};
closed = 0;
nodes = (
(220,472,l),
(169,472,o),
(140,510,o),
(140,558,cs),
(140,623,o),
(193,664,o),
(264,664,cs),
(412,664,o),
(410,508,o),
(410,483,cs),
(410,259,o),
(169,301,o),
(104,301,c)
);
},
{
attr = {
strokeWidth = 76;
};
closed = 0;
nodes = (
(478,660,l),
(761,660,l)
);
}
);
width = 740;
},
{
layerId = "30043BD2-BFA1-4A87-9985-99CA7B3DDE19";
associatedMasterId = "A45B8B48-B1A0-4768-860A-A9A091AD15CC";
name = 1;
shapes = (
{
closed = 1;
nodes = (
(418,700,l),
(702,700,l),
(772,620,l),
(480,620,l)
);
},
{
closed = 1;
nodes = (
(140,360,l),
(140,300,o),
(179,196,o),
(250,100,c),
(380,100,l),
(380,-20,l),
(245,-20,o),
(80,189,o),
(80,363,c)
);
},
{
closed = 1;
nodes = (
(346,608,o),
(317,651,o),
(260,651,cs),
(214,651,o),
(193,628,o),
(193,564,cs),
(193,520,o),
(229,491,o),
(279,491,c),
(281,467,l),
(227,467,o),
(114,503,o),
(114,583,cs),
(114,651,o),
(148,700,o),
(220,700,cs),
(355,700,o),
(419,596,o),
(419,491,cs),
(419,336,o),
(303,279,o),
(201,279,cs),
(161,279,o),
(116,293,o),
(96,314,c),
(96,362,l),
(108,360,o),
(138,360,o),
(158,360,cs),
(300,360,o),
(346,413,o),
(346,510,cs)
);
}
);
width = 740;
},
{
anchors = (
{
name = top;
position = "{614, 700}";
},
{
name = bottom;
position = "{654, 0}";
}
);
layerId = "A45B8B48-B1A0-4768-860A-A9A091AD15CC";
shapes = (
{
closed = 1;
nodes = (
(349,616,o),
(285,651,o),
(246,651,cs),
(211,651,o),
(178,636,o),
(178,579,cs),
(178,514,o),
(256,500,o),
(299,489,c),
(299,450,l),
(227,468,o),
(98,516,o),
(98,600,cs),
(98,663,o),
(141,701,o),
(208,701,cs),
(318,701,o),
(429,595,o),
(429,461,cs),
(429,341,o),
(360,274,o),
(240,274,cs),
(201,274,o),
(136,289,o),
(105,314,c),
(95,360,l),
(103,359,o),
(135,357,o),
(157,357,cs),
(308,357,o),
(349,380,o),
(349,518,cs)
);
},
{
closed = 1;
nodes = (
(193,333,l),
(193,253,o),
(233,161,o),
(283,100,c),
(381,100,l),
(381,-20,l),
(137,126,o),
(95,325,o),
(95,345,cs),
(95,351,o),
(95,360,o),
(95,360,c)
);
}
);
width = 480;
}
);
},
{
color = 7;
glyphname = "ssa-deva.half";
layers = (
{
layerId = "7D96EDF2-9291-42EB-8A89-114070E423BA";
associatedMasterId = "A45B8B48-B1A0-4768-860A-A9A091AD15CC";
name = Regular2;
shapes = (
{
attr = {
strokeWidth = 80;
};
closed = 0;
nodes = (
(440,306,l),
(440,306,o),
(120,626,o),
(120,629,c)
);
},
{
attr = {
strokeWidth = 80;
};
closed = 0;
nodes = (
(440,660,l),
(440,0,l)
);
},
{
attr = {
strokeWidth = 80;
};
closed = 0;
nodes = (
(120,660,l),
(120,380,ls),
(120,310,o),
(183,240,o),
(280,240,cs),
(350,240,o),
(440,277,o),
(440,380,c)
);
},
{
attr = {
strokeWidth = 76;
};
closed = 0;
nodes = (
(-21,660,l),
(633,660,l)
);
}
);
width = 580;
},
{
anchors = (
{
name = top;
position = "{469, 700}";
},
{
name = bottom;
position = "{499, 0}";
}
);
layerId = "A45B8B48-B1A0-4768-860A-A9A091AD15CC";
shapes = (
{
closed = 1;
nodes = (
(158,607,l),
(172,590,o),
(412,350,o),
(413,349,c),
(379,312,l),
(113,577,o),
(116,578,o),
(116,586,c)
);
},
{
closed = 1;
nodes = (
(-90,700,l),
(600,700,l),
(670,620,l),
(-20,620,l)
);
},
{
closed = 1;
nodes = (
(149,220,o),
(80,294,o),
(80,420,cs),
(80,660,l),
(160,660,l),
(160,400,ls),
(160,314,o),
(194,270,o),
(258,270,cs),
(321,270,o),
(376,322,o),
(404,400,c),
(440,299,l),
(398,247,o),
(341,220,o),
(266,220,cs)
);
}
);
width = 320;
}
);
},
{
color = 7;
glyphname = "bha-deva.half";
layers = (
{
layerId = "7D96EDF2-9291-42EB-8A89-114070E423BA";
associatedMasterId = "A45B8B48-B1A0-4768-860A-A9A091AD15CC";
name = Regular2;
shapes = (
{
attr = {
strokeWidth = 80;
};
closed = 0;
nodes = (
(500,659,l),
(500,0,l)
);
},
{
attr = {
strokeWidth = 80;
};
closed = 0;
nodes = (
(499,280,l),
(150,280,ls),
(41,280,o),
(180,121,o),
(180,210,cs),
(180,538,l),
(180,600,o),
(184,660,o),
(120,660,c),
(95,660,o),
(54,660,o),
(30,660,c)
);
},
{
attr = {
strokeWidth = 76;
};
closed = 0;
nodes = (
(299,660,l),
(688,660,l)
);
}
);
width = 640;
},
{
layerId = "46B6D1F0-F2FD-4146-B2F9-2C121398E696";
associatedMasterId = "A45B8B48-B1A0-4768-860A-A9A091AD15CC";
name = 2;
shapes = (
{
closed = 1;
nodes = (
(232,504,l),
(142,481,o),
(30,545,o),
(30,624,cs),
(30,672,o),
(67,701,o),
(114,701,cs),
(190,701,o),
(260,596,o),
(260,524,cs),
(260,252,l),
(180,252,l),
(180,373,o),
(180,430,o),
(180,430,c),
(180,553,o),
(186,644,o),
(148,644,cs),
(135,644,o),
(95,646,o),
(95,615,cs),
(95,555,o),
(152,520,o),
(230,520,c)
);
},
{
closed = 1;
nodes = (
(553,320,l),
(553,240,l),
(260,240,l),
(260,120,l),
(255,120,l),
(79,316,l),
(79,320,l)
);
},
{
closed = 1;
nodes = (
(307,700,l),
(592,700,l),
(662,620,l),
(377,620,l)
);
}
);
width = 680;
},
{
anchors = (
{
name = top;
position = "{505, 700}";
},
{
name = bottom;
position = "{541, 0}";
}
);
guides = (
{
position = "{0, 5895}";
}
);
layerId = "A45B8B48-B1A0-4768-860A-A9A091AD15CC";
shapes = (
{
closed = 1;
nodes = (
(200,252,l),
(120,252,l),
(120,558,l),
(120,626,o),
(143,620,o),
(-49,620,c),
(-49,620,o),
(-102,700,o),
(-102,700,c),
(-102,700,o),
(-11,700,o),
(60,700,cs),
(116,700,o),
(200,597,o),
(200,560,c)
);
},
{
closed = 1;
nodes = (
(494,320,l),
(494,240,l),
(200,240,l),
(200,120,l),
(195,120,l),
(20,316,l),
(20,320,l)
);
}
);
width = 340;
}
);
},
{
color = (153, 154, 255, 255);
glyphname = "iisign-deva.002";
layers = (
{
layerId = "A45B8B48-B1A0-4768-860A-A9A091AD15CC";
shapes = (
{
closed = 1;
nodes = (
(193,-20,l),
(183,126,l),
(130,166,l),
(65,44,l),
(65,40,l),
(189,-20,l)
);
},
{
closed = 1;
nodes = (
(185,66,l),
(183,352,l),
(191,663,l),
(99,663,l),
(109,381,l),
(105,66,l)
);
},
{
closed = 1;
nodes = (
(397,620,l),
(327,700,l),
(-137,700,l),
(-75,620,l)
);
},
{
closed = 1;
nodes = (
(170,687,l),
(56,821,o),
(-194,980,o),
(-332,980,cs),
(-423,980,o),
(-460,935,o),
(-460,874,cs),
(-460,829,o),
(-429,774,o),
(-380,730,c),
(-346,743,l),
(-364,761,o),
(-380,801,o),
(-380,830,cs),
(-380,876,o),
(-341,907,o),
(-284,907,cs),
(-152,907,o),
(-3,790,o),
(113,686,c)
);
}
);
width = 282;
}
);
},
{
color = 7;
glyphname = "tta-deva.half";
layers = (
{
layerId = "7D96EDF2-9291-42EB-8A89-114070E423BA";
associatedMasterId = "A45B8B48-B1A0-4768-860A-A9A091AD15CC";
name = Regular2;
shapes = (
{
attr = {
strokeWidth = 80;
};
closed = 0;
nodes = (
(420,660,l),
(420,460,l),
(280,460,ls),
(151,460,o),
(80,372,o),
(80,260,cs),
(80,125,o),
(185,40,o),
(310,40,cs),
(397,40,o),
(480,83,o),
(480,200,c)
);
},
{
attr = {
strokeWidth = 76;
};
closed = 0;
nodes = (
(-60,660,l),
(655,660,l)
);
}
);
width = 560;
},
{
anchors = (
{
name = bottom;
position = "{445, 0}";
},
{
name = right;
position = "{600, 325}";
},
{
name = top;
position = "{415, 700}";
}
);
layerId = "A45B8B48-B1A0-4768-860A-A9A091AD15CC";
shapes = (
{
closed = 1;
nodes = (
(380,660,l),
(460,660,l),
(460,460,l),
(307,460,ls),
(221,460,o),
(140,463,o),
(140,351,cs),
(140,227,o),
(203,205,o),
(300,205,cs),
(388,205,o),
(457,254,o),
(481,320,c),
(550,250,l),
(550,250,o),
(478,140,o),
(339,140,cs),
(196,140,o),
(60,222,o),
(60,379,cs),
(60,508,o),
(181,540,o),
(307,540,cs),
(380,540,l)
);
},
{
closed = 1;
nodes = (
(-92,700,l),
(600,700,l),
(660,620,l),
(-22,620,l)
);
},
{
closed = 1;
nodes = (
(380,220,l),
(460,220,l),
(460,20,l),
(307,20,ls),
(221,20,o),
(140,33,o),
(140,-79,cs),
(140,-191,o),
(203,-215,o),
(300,-215,cs),
(388,-215,o),
(457,-166,o),
(481,-100,c),
(550,-170,l),
(550,-170,o),
(478,-280,o),
(339,-280,cs),
(221,-280,o),
(60,-215,o),
(60,-58,cs),
(60,71,o),
(183,100,o),
(307,100,cs),
(380,100,l)
);
}
);
width = 580;
}
);
},
{
color = 7;
glyphname = "ttha-deva.half";
layers = (
{
layerId = "7D96EDF2-9291-42EB-8A89-114070E423BA";
associatedMasterId = "A45B8B48-B1A0-4768-860A-A9A091AD15CC";
name = Regular2;
shapes = (
{
attr = {
strokeWidth = 80;
};
closed = 0;
nodes = (
(391,460,l),
(529,444,o),
(560,321,o),
(560,260,cs),
(560,108,o),
(452,40,o),
(320,40,cs),
(175,40,o),
(80,134,o),
(80,260,cs),
(80,385,o),
(163,460,o),
(280,460,cs),
(380,460,l),
(380,661,l)
);
},
{
attr = {
strokeWidth = 76;
};
closed = 0;
nodes = (
(-60,660,l),
(655,660,l)
);
}
